<svg width="24" height="28" viewBox="0 0 24 28" fill="none" xmlns="http://www.w3.org/2000/svg">
<path d="M7.82326 22.4541L7.82083 21.9565H7.32326H6.08719C5.34775 21.9565 4.74861 21.3582 4.74861 20.6058V9.88917H19.1095V20.6058C19.1095 21.3604 18.5081 21.9565 17.7833 21.9565H16.5286H16.0286V22.4565V26.2767C16.0286 26.7164 15.8689 27.0088 15.6579 27.1963C15.4376 27.3919 15.1298 27.5003 14.8054 27.5C14.481 27.4997 14.1727 27.3907 13.9521 27.1946C13.7407 27.0067 13.5813 26.7144 13.5813 26.2767V22.4565V21.9565H13.0813H10.7706H10.2706V22.4565V26.2767C10.2706 26.7134 10.1119 27.0057 9.90153 27.1939C9.6822 27.39 9.37625 27.4991 9.05488 27.5C8.73355 27.5009 8.42876 27.3935 8.21059 27.1988C8.00146 27.0121 7.8419 26.7193 7.8419 26.2767L7.84189 26.2743L7.82326 22.4541ZM4.70048 8.28269C4.88352 6.02474 6.29694 4.07241 8.35928 3.0126L8.71308 2.83078L8.76961 2.80551C10.8036 1.89623 13.1463 1.94252 15.0895 2.80597L15.1188 2.81902L15.4911 3.01185C17.5369 4.07151 18.9497 6.02421 19.1327 8.28269H4.70048ZM3.07778 10.7897V18.0299C3.07778 18.7245 2.54225 19.2618 1.86964 19.2618C1.14402 19.2618 0.5 18.6616 0.5 18.0299V10.7897C0.5 10.1727 1.14155 9.5703 1.86964 9.5703C2.52833 9.5703 3.07778 10.1186 3.07778 10.7897ZM9.55004 5.31265C9.55004 4.68947 9.04971 4.15616 8.39784 4.15616C7.74596 4.15616 7.26427 4.70232 7.26427 5.31265C7.26427 5.92624 7.75529 6.46914 8.39784 6.46914C9.04971 6.46914 9.55004 5.93583 9.55004 5.31265ZM16.5938 5.31265C16.5938 4.69906 16.1028 4.15616 15.4602 4.15616C14.8084 4.15616 14.308 4.68947 14.308 5.31265C14.308 5.93583 14.8084 6.46914 15.4602 6.46914C16.1028 6.46914 16.5938 5.92624 16.5938 5.31265ZM20.7741 10.7897C20.7741 10.1034 21.32 9.5703 21.9822 9.5703C22.714 9.5703 23.3519 10.1573 23.3519 10.7897V18.0299C23.3519 18.6626 22.7129 19.2618 21.9822 19.2618C21.3247 19.2618 20.7741 18.7209 20.7741 18.0299V10.7897Z" fill="#1E0B05" stroke="#1E0B05"/>
</svg>
