<svg width="24" height="25" viewBox="0 0 24 25" fill="none" xmlns="http://www.w3.org/2000/svg">
<path d="M3 10.4745C3 9.45047 3.83011 8.62036 4.8541 8.62036V8.62036C5.55638 8.62036 6.19839 8.22358 6.51246 7.59544L7.33333 5.95369C7.44329 5.73378 7.49827 5.62382 7.56062 5.52818C7.8859 5.02918 8.41668 4.70114 9.00848 4.63335C9.1219 4.62036 9.24484 4.62036 9.49071 4.62036H14.5093C14.7552 4.62036 14.8781 4.62036 14.9915 4.63335C15.5833 4.70114 16.1141 5.02918 16.4394 5.52818C16.5017 5.62382 16.5567 5.73378 16.6667 5.95369L17.4875 7.59544C17.8016 8.22358 18.4436 8.62036 19.1459 8.62036V8.62036C20.1699 8.62036 21 9.45047 21 10.4745V15.4775C21 17.4823 21 18.4846 20.5402 19.2165C20.3004 19.5981 19.9777 19.9208 19.5961 20.1605C18.8643 20.6204 17.8619 20.6204 15.8571 20.6204H8.14286C6.1381 20.6204 5.13571 20.6204 4.4039 20.1605C4.02229 19.9208 3.69961 19.5981 3.45983 19.2165C3 18.4846 3 17.4823 3 15.4775V10.4745Z" stroke="#FDFBF2" stroke-width="1.5"/>
<circle cx="12" cy="13.6204" r="3.25" stroke="#FDFBF2" stroke-width="1.5"/>
</svg>
