<svg width="25" height="26" viewBox="0 0 25 26" fill="none" xmlns="http://www.w3.org/2000/svg">
<path d="M24.9188 12.1075C22.7846 7.12196 18.8003 3.15825 13.8038 1.0498C13.6026 0.974687 13.3799 0.981564 13.1837 1.06894C12.9875 1.15632 12.8334 1.31722 12.7546 1.51704C12.7117 1.61702 12.6891 1.72456 12.6881 1.83338C12.6872 1.94219 12.7079 2.05009 12.7491 2.1508C12.7903 2.25152 12.8512 2.34302 12.9281 2.41998C13.005 2.49693 13.0965 2.5578 13.1972 2.59902C17.803 4.54484 21.4755 8.19971 23.4434 12.796C23.5314 12.9909 23.6921 13.1437 23.8912 13.2218C24.0902 13.2999 24.3119 13.2972 24.509 13.2141C24.6099 13.1699 24.7009 13.1058 24.7765 13.0257C24.8521 12.9456 24.9108 12.8511 24.949 12.7478C24.9873 12.6445 25.0043 12.5346 24.9991 12.4246C24.9939 12.3145 24.9666 12.2067 24.9188 12.1075Z" fill="#FF9900"/>
<path d="M12.771 7.02345C15.5628 8.19937 17.7899 10.4118 18.9843 13.1957C19.0477 13.3331 19.1479 13.4502 19.2738 13.5341C19.3996 13.618 19.5463 13.6654 19.6974 13.6712C19.8081 13.6703 19.9173 13.6451 20.0171 13.5974C20.2056 13.505 20.3515 13.3439 20.4247 13.1471C20.4979 12.9504 20.4929 12.7331 20.4106 12.54C19.0568 9.37929 16.5297 6.86695 13.3612 5.5316C13.1661 5.46234 12.952 5.46948 12.7619 5.55159C12.5719 5.6337 12.4199 5.7847 12.3366 5.97424C12.2595 6.17138 12.2617 6.39069 12.3427 6.58626C12.4237 6.78183 12.5772 6.93849 12.771 7.02345Z" fill="#FF9900"/>
<path d="M20.6647 16.761C20.4869 16.5533 20.2663 16.3866 20.018 16.2723C19.7696 16.1579 19.4995 16.0987 19.2261 16.0987C18.9527 16.0987 18.6826 16.1579 18.4343 16.2723C18.1859 16.3866 17.9653 16.5533 17.7875 16.761C17.1154 17.425 16.4433 18.0971 15.7793 18.7775C15.7498 18.8213 15.7117 18.8587 15.6674 18.8874C15.6231 18.9162 15.5735 18.9358 15.5215 18.9449C15.4695 18.9541 15.4161 18.9527 15.3647 18.9409C15.3132 18.929 15.2647 18.9069 15.2219 18.8758C14.7875 18.6381 14.3202 18.4496 13.9022 18.1873C11.9838 16.944 10.2835 15.3931 8.8693 13.597C8.13095 12.7266 7.52091 11.7549 7.05776 10.7117C7.0074 10.6252 6.99043 10.5232 7.01006 10.4251C7.02969 10.3269 7.08457 10.2394 7.16433 10.1789C7.83647 9.52313 8.49222 8.85919 9.15617 8.18704C9.37286 8.00705 9.54725 7.78153 9.66693 7.52653C9.78661 7.27152 9.84866 6.99328 9.84866 6.71159C9.84866 6.4299 9.78661 6.15167 9.66693 5.89666C9.54725 5.64166 9.37286 5.41613 9.15617 5.23614C8.63157 4.70334 8.10697 4.18694 7.57417 3.65414L5.93479 2.01475C5.75044 1.81725 5.52873 1.65831 5.28249 1.54715C5.03625 1.43599 4.77038 1.37481 4.50032 1.36719C4.22853 1.37615 3.96117 1.43869 3.7136 1.55122C3.46603 1.66375 3.24312 1.82406 3.05766 2.02294C2.37731 2.6869 1.72975 3.37544 1.03301 4.03119C0.419603 4.60972 0.0526654 5.40234 0.00840899 6.24437C-0.049983 7.62531 0.19629 9.00218 0.729743 10.2773C1.75213 12.9279 3.22461 15.3821 5.0823 17.5315C7.5254 20.4676 10.5692 22.8462 14.0088 24.5071C15.5347 25.3133 17.2073 25.804 18.9269 25.9498H19.2466C19.7716 25.972 20.2949 25.8768 20.7784 25.6712C21.262 25.4656 21.6936 25.1547 22.0417 24.7612C22.6155 24.1137 23.2631 23.5235 23.8779 22.9087C24.0905 22.7279 24.2612 22.503 24.3783 22.2497C24.4954 21.9963 24.5561 21.7206 24.5561 21.4415C24.5561 21.1624 24.4954 20.8866 24.3783 20.6333C24.2612 20.3799 24.0905 20.1551 23.8779 19.9742C22.8177 18.9032 21.7467 17.8321 20.6647 16.761ZM22.7303 21.7693L22.1155 22.3759C21.6893 22.7858 21.2549 23.1956 20.8286 23.6792C20.6367 23.9023 20.395 24.0772 20.123 24.1897C19.8511 24.3022 19.5565 24.3492 19.263 24.3268H19.0335C17.5257 24.1966 16.0594 23.7646 14.7219 23.0563C11.4951 21.487 8.63724 19.2521 6.33643 16.4987C4.58743 14.497 3.20054 12.2058 2.23796 9.72807C1.78848 8.67794 1.57581 7.5417 1.61501 6.4001C1.63378 5.96149 1.8218 5.54723 2.1396 5.24434C2.56584 4.8345 2.9593 4.42464 3.39373 4.0066L4.21343 3.18691C4.24027 3.13147 4.28221 3.08473 4.3344 3.05201C4.38659 3.0193 4.44693 3.00196 4.50853 3.00196C4.57012 3.00196 4.63047 3.0193 4.68266 3.05201C4.73485 3.08473 4.77676 3.13147 4.80361 3.18691C5.16427 3.53938 5.51675 3.90004 5.86922 4.2607L6.41022 4.8017L7.22991 5.6214L8.00861 6.4001C8.31189 6.70339 8.2955 6.76078 8.00861 7.03947L7.72992 7.31817C7.17252 7.89195 6.60694 8.44934 6.01676 9.02313C5.70855 9.31589 5.49945 9.69758 5.41863 10.1149C5.3378 10.5322 5.38931 10.9644 5.56594 11.3511C6.08328 12.5392 6.77386 13.6441 7.61517 14.6298C9.14709 16.5569 10.9859 18.2186 13.0579 19.548C13.3776 19.7447 13.7055 19.9087 13.9924 20.048L14.435 20.2693C14.748 20.4542 15.1043 20.5531 15.4678 20.5562C15.7509 20.5548 16.0305 20.4943 16.2888 20.3785C16.5471 20.2628 16.7784 20.0944 16.9678 19.8841C17.6154 19.2201 18.2712 18.5725 18.9597 17.8922C19.0298 17.8009 19.1276 17.7348 19.2384 17.7037C19.353 17.7313 19.4544 17.798 19.5253 17.8922C20.6182 18.9851 21.7112 20.0589 22.8041 21.1136C22.9926 21.4005 23.0172 21.4743 22.7303 21.7693Z" fill="#FF9900"/>
</svg>
