<svg width="27" height="20" viewBox="0 0 27 20" fill="none" xmlns="http://www.w3.org/2000/svg">
<path d="M23.2826 0H3.32609C2.44395 0 1.59795 0.350423 0.974186 0.974186C0.350423 1.59795 0 2.44395 0 3.32609V15.7989C0 16.681 0.350423 17.5271 0.974186 18.1508C1.59795 18.7746 2.44395 19.125 3.32609 19.125H23.2826C24.1647 19.125 25.0107 18.7746 25.6345 18.1508C26.2583 17.5271 26.6087 16.681 26.6087 15.7989V3.32609C26.6087 2.44395 26.2583 1.59795 25.6345 0.974186C25.0107 0.350423 24.1647 0 23.2826 0ZM24.9457 15.7989C24.9457 16.24 24.7704 16.663 24.4586 16.9749C24.1467 17.2867 23.7237 17.462 23.2826 17.462H3.32609C2.88502 17.462 2.46202 17.2867 2.15014 16.9749C1.83826 16.663 1.66304 16.24 1.66304 15.7989V3.32609C1.66304 2.88502 1.83826 2.46202 2.15014 2.15014C2.46202 1.83826 2.88502 1.66304 3.32609 1.66304H23.2826C23.7237 1.66304 24.1467 1.83826 24.4586 2.15014C24.7704 2.46202 24.9457 2.88502 24.9457 3.32609V15.7989Z" fill="#FF9900"/>
<path d="M21.9273 4.34795L13.3044 11.3992L4.6815 4.34795C4.50971 4.23427 4.30184 4.18841 4.09817 4.21924C3.89449 4.25008 3.70952 4.35542 3.57907 4.51485C3.44863 4.67428 3.38201 4.87646 3.39212 5.0822C3.40222 5.28795 3.48834 5.48261 3.63378 5.62849L12.7805 13.1122C12.9287 13.2324 13.1136 13.298 13.3044 13.298C13.4951 13.298 13.6801 13.2324 13.8282 13.1122L22.975 5.62849C23.0719 5.56432 23.1544 5.48054 23.217 5.38253C23.2795 5.28452 23.3209 5.17448 23.3383 5.05951C23.3557 4.94454 23.3488 4.8272 23.318 4.71506C23.2872 4.60293 23.2333 4.49849 23.1597 4.4085C23.086 4.3185 22.9944 4.24494 22.8905 4.19258C22.7867 4.14023 22.6731 4.11022 22.5569 4.10452C22.4408 4.09881 22.3247 4.11754 22.2163 4.15947C22.1078 4.2014 22.0094 4.2656 21.9273 4.34795Z" fill="#FF9900"/>
</svg>
