<svg width="24" height="30" viewBox="0 0 24 30" fill="none" xmlns="http://www.w3.org/2000/svg">
<path d="M12 0C8.8174 0 5.76515 1.26427 3.51472 3.51471C1.26428 5.76515 0 8.8174 0 12C0 17.7046 6.18462 24.5538 11.3815 29.2985L12.0185 29.88L12.6369 29.28C18.3877 23.7415 24 17.8615 24 12C24 8.8174 22.7357 5.76515 20.4853 3.51471C18.2348 1.26427 15.1826 0 12 0ZM12 27.3415C5.45538 21.2308 1.84615 15.8031 1.84615 12C1.84615 9.30703 2.91593 6.72435 4.82015 4.82014C6.72436 2.91592 9.30703 1.84615 12 1.84615C14.693 1.84615 17.2756 2.91592 19.1799 4.82014C21.0841 6.72435 22.1538 9.30703 22.1538 12C22.1538 16.9385 17.2246 22.2369 12 27.3415Z" fill="#FF9900"/>
<path d="M12 7.38281C11.0872 7.38281 10.1949 7.6535 9.43585 8.16064C8.67686 8.66779 8.08529 9.38861 7.73597 10.232C7.38664 11.0753 7.29524 12.0033 7.47333 12.8986C7.65142 13.7939 8.09098 14.6163 8.73646 15.2618C9.38193 15.9072 10.2043 16.3468 11.0996 16.5249C11.9949 16.703 12.9229 16.6116 13.7663 16.2623C14.6096 15.9129 15.3304 15.3214 15.8376 14.5624C16.3447 13.8034 16.6154 12.911 16.6154 11.9982C16.6154 10.7741 16.1292 9.60018 15.2636 8.73462C14.398 7.86907 13.2241 7.38281 12 7.38281ZM12 14.7674C11.4523 14.7674 10.9169 14.605 10.4615 14.3007C10.0061 13.9964 9.65119 13.5639 9.44159 13.0579C9.232 12.5519 9.17716 11.9951 9.28401 11.4579C9.39086 10.9208 9.6546 10.4273 10.0419 10.0401C10.4292 9.65277 10.9226 9.38903 11.4598 9.28218C11.997 9.17533 12.5538 9.23017 13.0598 9.43976C13.5658 9.64936 13.9983 10.0043 14.3026 10.4597C14.6068 10.9151 14.7693 11.4505 14.7693 11.9982C14.7693 12.7326 14.4775 13.437 13.9582 13.9563C13.4388 14.4757 12.7345 14.7674 12 14.7674Z" fill="#FF9900"/>
</svg>
