<svg width="866" height="404" viewBox="0 0 866 404" fill="none" xmlns="http://www.w3.org/2000/svg">
<path d="M227.741 329.423C227.269 329.534 227.151 329.59 226.327 329.739C222.594 330.415 206.908 334.757 202.527 323.308C197.633 310.526 192.213 282.141 208.259 291.086C224.305 300.03 225.572 310.14 231.486 299.262C237.4 288.384 244.958 272.42 251.045 288.696C257.133 304.972 261.215 316.638 252.37 321.332C243.877 325.851 234.35 327.869 227.741 329.423Z" fill="#01A89E" fill-opacity="0.5"/>
<path d="M47.6265 74.8378C47.8971 74.524 47.8624 74.0504 47.5489 73.7799C47.2354 73.5094 46.7618 73.5445 46.4911 73.8582L47.6265 74.8378ZM227.585 336.501L227.668 337.247L227.585 336.501ZM571.52 181.367L571.666 182.103L571.52 181.367ZM862.666 324.932L865.05 316.604L856.648 318.708L862.666 324.932ZM43.2633 77.715C43.0021 78.0367 43.0511 78.5091 43.3726 78.77C43.6941 79.0309 44.1664 78.9817 44.4276 78.6599L43.2633 77.715ZM38.4496 86.4993C38.6907 86.1623 38.6131 85.6938 38.2762 85.453C37.9394 85.2121 37.471 85.29 37.2299 85.6271L38.4496 86.4993ZM31.6868 93.9122C31.4674 94.2637 31.5743 94.7264 31.9256 94.9456C32.2768 95.1648 32.7395 95.0576 32.9589 94.7062L31.6868 93.9122ZM27.9909 103.262C28.1873 102.897 28.0508 102.443 27.6862 102.246C27.3215 102.05 26.8667 102.187 26.6703 102.552L27.9909 103.262ZM22.2312 111.486C22.0591 111.863 22.225 112.308 22.6018 112.48C22.9785 112.652 23.4234 112.486 23.5955 112.109L22.2312 111.486ZM19.7958 121.218C19.9425 120.83 19.7475 120.397 19.3601 120.251C18.9728 120.105 18.5399 120.3 18.3932 120.687L19.7958 121.218ZM15.1776 130.121C15.0572 130.518 15.2808 130.937 15.6771 131.057C16.0734 131.177 16.4923 130.953 16.6127 130.557L15.1776 130.121ZM14.0629 140.092C14.1564 139.688 13.9051 139.285 13.5016 139.192C13.0981 139.099 12.6952 139.35 12.6017 139.754L14.0629 140.092ZM10.6791 149.549C10.6131 149.958 10.8911 150.343 11.2999 150.409C11.7088 150.475 12.0938 150.196 12.1598 149.787L10.6791 149.549ZM10.9158 159.584C10.9541 159.171 10.6508 158.806 10.2384 158.768C9.82601 158.73 9.46062 159.034 9.4223 159.446L10.9158 159.584ZM8.83387 169.402C8.8233 169.816 9.15039 170.16 9.56445 170.171C9.9785 170.181 10.3227 169.853 10.3333 169.439L8.83387 169.402ZM10.411 179.311C10.3939 178.897 10.0446 178.576 9.63081 178.593C9.21697 178.61 8.89531 178.96 8.91236 179.374L10.411 179.311ZM9.6526 189.318C9.69697 189.73 10.0668 190.028 10.4786 189.983C10.8904 189.938 11.1882 189.568 11.1439 189.157L9.6526 189.318ZM12.5235 198.935C12.4523 198.527 12.0637 198.254 11.6557 198.325C11.2477 198.397 10.9747 198.786 11.046 199.194L12.5235 198.935ZM13.08 208.955C13.1776 209.358 13.583 209.605 13.9855 209.507C14.388 209.409 14.6352 209.003 14.5377 208.601L13.08 208.955ZM17.1711 218.115C17.0479 217.72 16.6274 217.499 16.232 217.623C15.8366 217.746 15.6159 218.167 15.7391 218.562L17.1711 218.115ZM19.0066 227.979C19.1547 228.366 19.5883 228.559 19.9751 228.41C20.3619 228.262 20.5554 227.828 20.4073 227.442L19.0066 227.979ZM24.2276 236.546C24.0554 236.169 23.6105 236.004 23.2338 236.176C22.8571 236.349 22.6913 236.794 22.8634 237.17L24.2276 236.546ZM27.2895 246.104C27.4848 246.469 27.9392 246.606 28.3045 246.411C28.6697 246.215 28.8075 245.761 28.6121 245.395L27.2895 246.104ZM33.5397 253.96C33.3222 253.607 32.8602 253.498 32.5077 253.716C32.1552 253.934 32.0457 254.396 32.2632 254.748L33.5397 253.96ZM37.7547 263.064C37.9933 263.403 38.4612 263.483 38.7998 263.245C39.1383 263.006 39.2193 262.538 38.9807 262.199L37.7547 263.064ZM44.9089 270.088C44.6502 269.764 44.1783 269.712 43.8548 269.971C43.5313 270.23 43.4787 270.702 43.7374 271.025L44.9089 270.088ZM50.1899 278.614C50.4675 278.921 50.9417 278.945 51.2491 278.667C51.5566 278.389 51.5808 277.915 51.3032 277.608L50.1899 278.614ZM58.1384 284.738C57.8431 284.448 57.3683 284.452 57.0778 284.747C56.7873 285.043 56.7912 285.518 57.0865 285.808L58.1384 284.738ZM64.4013 292.589C64.7131 292.862 65.1869 292.83 65.4595 292.518C65.7322 292.206 65.7005 291.732 65.3888 291.459L64.4013 292.589ZM73.0106 297.742C72.6836 297.488 72.2125 297.547 71.9582 297.874C71.704 298.201 71.763 298.673 72.0899 298.927L73.0106 297.742ZM80.1159 304.804C80.4568 305.039 80.9238 304.953 81.1591 304.612C81.3944 304.271 81.3088 303.804 80.9679 303.569L80.1159 304.804ZM89.2502 308.944C88.8967 308.728 88.4352 308.84 88.2193 309.194C88.0034 309.548 88.115 310.009 88.4685 310.225L89.2502 308.944ZM97.1231 315.182C97.488 315.378 97.9427 315.241 98.1388 314.876C98.3349 314.511 98.1982 314.056 97.8333 313.861L97.1231 315.182ZM106.669 318.302C106.294 318.126 105.848 318.287 105.671 318.662C105.495 319.037 105.656 319.484 106.031 319.66L106.669 318.302ZM115.132 323.644C115.515 323.8 115.953 323.616 116.109 323.232C116.266 322.848 116.081 322.411 115.698 322.254L115.132 323.644ZM124.942 325.742C124.551 325.606 124.124 325.813 123.987 326.204C123.851 326.595 124.057 327.023 124.448 327.159L124.942 325.742ZM133.965 330.209C134.362 330.326 134.779 330.098 134.896 329.7C135.013 329.303 134.785 328.886 134.388 328.77L133.965 330.209ZM143.907 331.312C143.504 331.215 143.099 331.462 143.001 331.865C142.904 332.268 143.151 332.673 143.554 332.77L143.907 331.312ZM153.272 334.877C153.679 334.955 154.072 334.689 154.151 334.282C154.229 333.875 153.963 333.482 153.557 333.404L153.272 334.877ZM163.349 335.057C162.94 334.997 162.559 335.281 162.499 335.691C162.439 336.101 162.722 336.482 163.132 336.541L163.349 335.057ZM172.973 337.755C173.385 337.796 173.753 337.496 173.795 337.084C173.837 336.672 173.537 336.304 173.125 336.262L172.973 337.755ZM182.978 337.05C182.564 337.026 182.209 337.341 182.184 337.755C182.16 338.169 182.475 338.524 182.888 338.548L182.978 337.05ZM192.884 338.931C193.298 338.939 193.64 338.609 193.648 338.195C193.656 337.781 193.326 337.439 192.912 337.432L192.884 338.931ZM202.744 337.418C202.33 337.426 202.001 337.769 202.009 338.183C202.017 338.597 202.36 338.926 202.774 338.917L202.744 337.418ZM212.756 338.522C213.169 338.498 213.485 338.143 213.462 337.729C213.438 337.316 213.083 337 212.67 337.024L212.756 338.522ZM222.509 336.272C222.096 336.311 221.793 336.677 221.832 337.089C221.871 337.501 222.236 337.804 222.649 337.765L222.509 336.272ZM232.768 336.645C233.179 336.594 233.471 336.219 233.421 335.808C233.37 335.397 232.996 335.105 232.585 335.156L232.768 336.645ZM242.462 333.818C242.052 333.878 241.768 334.26 241.829 334.669C241.889 335.079 242.27 335.363 242.68 335.302L242.462 333.818ZM252.702 333.696C253.11 333.625 253.384 333.237 253.313 332.828C253.243 332.42 252.855 332.147 252.446 332.218L252.702 333.696ZM262.289 330.376C261.883 330.458 261.62 330.853 261.701 331.259C261.782 331.665 262.178 331.928 262.584 331.847L262.289 330.376ZM272.372 329.735C272.776 329.642 273.028 329.239 272.935 328.835C272.842 328.432 272.44 328.18 272.036 328.273L272.372 329.735ZM281.837 325.855C281.436 325.961 281.197 326.371 281.302 326.771C281.407 327.172 281.817 327.411 282.217 327.306L281.837 325.855ZM291.931 324.586C292.328 324.468 292.554 324.05 292.436 323.653C292.319 323.256 291.901 323.03 291.504 323.148L291.931 324.586ZM301.048 320.137C300.655 320.269 300.443 320.693 300.574 321.086C300.705 321.479 301.129 321.691 301.522 321.56L301.048 320.137ZM310.995 318.215C311.384 318.071 311.581 317.639 311.437 317.251C311.293 316.863 310.861 316.665 310.473 316.81L310.995 318.215ZM319.821 313.137C319.438 313.296 319.256 313.734 319.414 314.117C319.572 314.5 320.01 314.682 320.393 314.524L319.821 313.137ZM329.656 310.5C330.033 310.328 330.2 309.883 330.028 309.506C329.856 309.129 329.412 308.963 329.035 309.135L329.656 310.5ZM338.09 304.813C337.72 304.998 337.569 305.449 337.754 305.819C337.938 306.19 338.389 306.341 338.759 306.156L338.09 304.813ZM347.701 301.501C348.065 301.303 348.2 300.848 348.003 300.484C347.806 300.12 347.351 299.985 346.986 300.182L347.701 301.501ZM355.724 295.259C355.366 295.468 355.245 295.927 355.454 296.285C355.663 296.642 356.122 296.763 356.48 296.554L355.724 295.259ZM365.101 291.339C365.452 291.12 365.559 290.657 365.34 290.306C365.121 289.954 364.658 289.847 364.307 290.067L365.101 291.339ZM372.745 284.638C372.4 284.867 372.305 285.332 372.533 285.677C372.761 286.023 373.226 286.118 373.572 285.889L372.745 284.638ZM381.91 280.241C382.25 280.005 382.335 279.538 382.1 279.197C381.864 278.857 381.397 278.772 381.056 279.008L381.91 280.241ZM389.262 273.218C388.925 273.459 388.848 273.928 389.089 274.264C389.33 274.601 389.799 274.678 390.135 274.436L389.262 273.218ZM398.276 268.519C398.61 268.274 398.682 267.804 398.437 267.471C398.192 267.137 397.723 267.065 397.389 267.31L398.276 268.519ZM405.469 261.332C405.137 261.579 405.067 262.049 405.314 262.381C405.561 262.714 406.031 262.783 406.364 262.536L405.469 261.332ZM414.431 256.532C414.763 256.284 414.832 255.814 414.585 255.482C414.338 255.15 413.869 255.081 413.536 255.328L414.431 256.532ZM421.624 249.345C421.29 249.59 421.218 250.059 421.463 250.393C421.708 250.727 422.177 250.799 422.511 250.553L421.624 249.345ZM430.639 244.645C430.975 244.403 431.053 243.935 430.811 243.598C430.57 243.262 430.101 243.185 429.765 243.427L430.639 244.645ZM437.988 237.617C437.648 237.853 437.563 238.32 437.799 238.661C438.035 239.001 438.502 239.085 438.843 238.849L437.988 237.617ZM447.149 233.205C447.494 232.975 447.588 232.51 447.359 232.165C447.13 231.82 446.665 231.726 446.32 231.955L447.149 233.205ZM454.779 226.478C454.429 226.699 454.324 227.162 454.544 227.513C454.765 227.863 455.228 227.968 455.578 227.747L454.779 226.478ZM464.147 222.507C464.503 222.296 464.621 221.835 464.41 221.479C464.199 221.123 463.739 221.005 463.383 221.216L464.147 222.507ZM472.137 216.198C471.774 216.399 471.643 216.855 471.843 217.217C472.044 217.58 472.5 217.711 472.863 217.51L472.137 216.198ZM481.7 212.793C482.069 212.604 482.214 212.151 482.025 211.783C481.836 211.415 481.384 211.269 481.015 211.459L481.7 212.793ZM490.037 207.002C489.662 207.179 489.503 207.626 489.68 208.001C489.857 208.375 490.304 208.534 490.679 208.357L490.037 207.002ZM499.798 204.209C500.177 204.043 500.351 203.601 500.186 203.221C500.021 202.842 499.579 202.668 499.199 202.833L499.798 204.209ZM508.503 198.956C508.118 199.109 507.93 199.545 508.083 199.93C508.236 200.315 508.672 200.502 509.057 200.349L508.503 198.956ZM518.46 196.775C518.849 196.634 519.051 196.203 518.91 195.814C518.769 195.424 518.339 195.223 517.949 195.364L518.46 196.775ZM527.488 192.071C527.094 192.2 526.88 192.624 527.009 193.018C527.138 193.411 527.561 193.625 527.955 193.496L527.488 192.071ZM537.486 190.518C537.883 190.4 538.11 189.983 537.992 189.586C537.874 189.189 537.457 188.962 537.06 189.08L537.486 190.518ZM546.758 186.349C546.358 186.456 546.12 186.867 546.226 187.268C546.333 187.668 546.744 187.906 547.144 187.799L546.758 186.349ZM556.948 185.324C557.351 185.228 557.6 184.823 557.504 184.42C557.408 184.017 557.004 183.768 556.601 183.864L556.948 185.324ZM566.351 181.667C565.946 181.753 565.687 182.152 565.773 182.557C565.858 182.962 566.256 183.221 566.662 183.135L566.351 181.667ZM576.589 181.153C576.996 181.077 577.265 180.685 577.19 180.278C577.114 179.871 576.723 179.602 576.316 179.678L576.589 181.153ZM586.084 177.993C585.675 178.058 585.396 178.442 585.461 178.851C585.525 179.261 585.909 179.54 586.318 179.475L586.084 177.993ZM596.17 178.052C596.581 177.998 596.87 177.622 596.817 177.211C596.764 176.8 596.388 176.511 595.977 176.564L596.17 178.052ZM605.839 175.424C605.427 175.466 605.126 175.833 605.167 176.246C605.209 176.658 605.576 176.958 605.988 176.916L605.839 175.424ZM615.853 176.067C616.266 176.038 616.578 175.679 616.548 175.266C616.519 174.852 616.161 174.541 615.748 174.571L615.853 176.067ZM625.711 174.016C625.298 174.033 624.975 174.382 624.992 174.796C625.008 175.209 625.357 175.532 625.771 175.515L625.711 174.016ZM635.653 175.275C636.067 175.271 636.4 174.933 636.397 174.518C636.394 174.104 636.055 173.771 635.641 173.775L635.653 175.275ZM645.58 173.853C645.166 173.843 644.822 174.171 644.811 174.585C644.801 174.999 645.128 175.343 645.542 175.353L645.58 173.853ZM655.466 175.762C655.879 175.786 656.234 175.47 656.259 175.056C656.283 174.643 655.968 174.288 655.554 174.264L655.466 175.762ZM665.477 175.014C665.064 174.976 664.698 175.279 664.66 175.691C664.621 176.104 664.924 176.469 665.336 176.508L665.477 175.014ZM675.15 177.598C675.561 177.651 675.937 177.361 675.991 176.95C676.044 176.539 675.754 176.163 675.344 176.11L675.15 177.598ZM685.203 177.566C684.795 177.498 684.408 177.774 684.34 178.183C684.272 178.592 684.548 178.978 684.956 179.046L685.203 177.566ZM694.705 180.857C695.111 180.941 695.507 180.679 695.591 180.273C695.674 179.868 695.413 179.471 695.007 179.388L694.705 180.857ZM704.719 181.575C704.317 181.477 703.911 181.723 703.812 182.125C703.713 182.527 703.959 182.934 704.361 183.032L704.719 181.575ZM713.914 185.575C714.312 185.69 714.728 185.459 714.842 185.061C714.957 184.663 714.727 184.248 714.329 184.133L713.914 185.575ZM723.824 187.065C723.431 186.935 723.007 187.148 722.876 187.542C722.746 187.935 722.959 188.359 723.353 188.489L723.824 187.065ZM732.7 191.791C733.088 191.936 733.52 191.74 733.666 191.352C733.812 190.965 733.616 190.532 733.229 190.386L732.7 191.791ZM742.485 194.086C742.103 193.925 741.663 194.103 741.501 194.484C741.34 194.866 741.518 195.306 741.899 195.467L742.485 194.086ZM750.931 199.518C751.306 199.695 751.753 199.536 751.93 199.161C752.108 198.787 751.948 198.34 751.574 198.162L750.931 199.518ZM760.482 202.613C760.115 202.42 759.662 202.561 759.469 202.928C759.276 203.295 759.416 203.748 759.783 203.941L760.482 202.613ZM768.436 208.733C768.794 208.941 769.253 208.82 769.462 208.462C769.67 208.104 769.549 207.645 769.191 207.436L768.436 208.733ZM777.685 212.627C777.337 212.404 776.873 212.505 776.649 212.854C776.425 213.203 776.526 213.667 776.875 213.89L777.685 212.627ZM785.082 219.408C785.421 219.646 785.889 219.565 786.127 219.226C786.366 218.888 786.285 218.42 785.947 218.181L785.082 219.408ZM793.958 224.092C793.63 223.839 793.159 223.899 792.906 224.227C792.652 224.555 792.713 225.026 793.04 225.279L793.958 224.092ZM800.731 231.498C801.047 231.766 801.52 231.726 801.788 231.41C802.055 231.094 802.016 230.621 801.7 230.353L800.731 231.498ZM809.155 236.957C808.851 236.676 808.377 236.694 808.095 236.998C807.813 237.301 807.831 237.776 808.135 238.058L809.155 236.957ZM815.232 244.949C815.522 245.244 815.997 245.248 816.292 244.957C816.588 244.667 816.592 244.192 816.302 243.897L815.232 244.949ZM823.119 251.164C822.843 250.855 822.369 250.829 822.06 251.105C821.752 251.381 821.725 251.856 822.001 252.164L823.119 251.164ZM828.42 259.695C828.681 260.016 829.153 260.065 829.475 259.804C829.797 259.543 829.846 259.071 829.585 258.749L828.42 259.695ZM835.673 266.645C835.428 266.311 834.959 266.239 834.625 266.483C834.291 266.728 834.218 267.197 834.462 267.532L835.673 266.645ZM840.099 275.664C840.326 276.011 840.791 276.107 841.137 275.88C841.483 275.653 841.58 275.188 841.354 274.842L840.099 275.664ZM846.592 283.328C846.385 282.97 845.926 282.849 845.568 283.057C845.209 283.265 845.087 283.724 845.295 284.082L846.592 283.328ZM850.011 292.771C850.197 293.14 850.649 293.288 851.018 293.101C851.388 292.914 851.536 292.462 851.349 292.093L850.011 292.771ZM855.574 301.119C855.41 300.739 854.969 300.563 854.589 300.727C854.208 300.891 854.033 301.333 854.196 301.713L855.574 301.119ZM857.794 310.892C857.932 311.283 858.361 311.487 858.751 311.349C859.142 311.211 859.347 310.782 859.209 310.392L857.794 310.892ZM862.194 319.946C862.086 319.546 861.674 319.31 861.274 319.419C860.874 319.528 860.638 319.94 860.746 320.34L862.194 319.946ZM46.4911 73.8582C45.3901 75.1344 44.3142 76.4201 43.2633 77.715L44.4276 78.6599C45.469 77.3768 46.5353 76.1026 47.6265 74.8378L46.4911 73.8582ZM37.2299 85.6271C35.2786 88.3553 33.4313 91.1183 31.6868 93.9122L32.9589 94.7062C34.6867 91.9389 36.5165 89.202 38.4496 86.4993L37.2299 85.6271ZM26.6703 102.552C25.0821 105.502 23.6028 108.482 22.2312 111.486L23.5955 112.109C24.9535 109.134 26.4183 106.184 27.9909 103.262L26.6703 102.552ZM18.3932 120.687C17.2101 123.812 16.1387 126.958 15.1776 130.121L16.6127 130.557C17.5641 127.426 18.6246 124.311 19.7958 121.218L18.3932 120.687ZM12.6017 139.754C11.8481 143.008 11.2077 146.275 10.6791 149.549L12.1598 149.787C12.6831 146.546 13.317 143.312 14.0629 140.092L12.6017 139.754ZM9.4223 159.446C9.1142 162.763 8.91854 166.083 8.83387 169.402L10.3333 169.439C10.4171 166.154 10.6108 162.867 10.9158 159.584L9.4223 159.446ZM8.91236 179.374C9.04926 182.697 9.2965 186.013 9.6526 189.318L11.1439 189.157C10.7913 185.884 10.5465 182.601 10.411 179.311L8.91236 179.374ZM11.046 199.194C11.6174 202.466 12.2959 205.721 13.08 208.955L14.5377 208.601C13.7612 205.398 13.0894 202.174 12.5235 198.935L11.046 199.194ZM15.7391 218.562C16.726 221.729 17.8156 224.869 19.0066 227.979L20.4073 227.442C19.2277 224.361 18.1485 221.251 17.1711 218.115L15.7391 218.562ZM22.8634 237.17C24.2413 240.185 25.7171 243.164 27.2895 246.104L28.6121 245.395C27.0544 242.483 25.5925 239.532 24.2276 236.546L22.8634 237.17ZM32.2632 254.748C34.0016 257.565 35.8326 260.338 37.7547 263.064L38.9807 262.199C37.0761 259.498 35.262 256.75 33.5397 253.96L32.2632 254.748ZM43.7374 271.025C45.8019 273.606 47.9532 276.137 50.1899 278.614L51.3032 277.608C49.0866 275.154 46.9547 272.645 44.9089 270.088L43.7374 271.025ZM57.0865 285.808C59.4443 288.126 61.8829 290.388 64.4013 292.589L65.3888 291.459C62.8924 289.277 60.4752 287.035 58.1384 284.738L57.0865 285.808ZM72.0899 298.927C74.6914 300.948 77.3671 302.908 80.1159 304.804L80.9679 303.569C78.2424 301.689 75.5896 299.746 73.0106 297.742L72.0899 298.927ZM88.4685 310.225C91.2854 311.943 94.1706 313.597 97.1231 315.182L97.8333 313.861C94.905 312.288 92.0436 310.648 89.2502 308.944L88.4685 310.225ZM106.031 319.66C109.003 321.056 112.037 322.385 115.132 323.644L115.698 322.254C112.628 321.005 109.618 319.686 106.669 318.302L106.031 319.66ZM124.448 327.159C127.565 328.245 130.737 329.263 133.965 330.209L134.388 328.77C131.184 327.83 128.035 326.82 124.942 325.742L124.448 327.159ZM143.554 332.77C146.744 333.541 149.983 334.243 153.272 334.877L153.557 333.404C150.291 332.775 147.074 332.077 143.907 331.312L143.554 332.77ZM163.132 336.541C166.368 337.013 169.649 337.418 172.973 337.755L173.125 336.262C169.822 335.927 166.564 335.525 163.349 335.057L163.132 336.541ZM182.888 338.548C186.18 338.742 189.513 338.87 192.884 338.931L192.912 337.432C189.561 337.371 186.249 337.243 182.978 337.05L182.888 338.548ZM202.774 338.917C206.066 338.849 209.393 338.718 212.756 338.522L212.67 337.024C209.326 337.219 206.017 337.35 202.744 337.418L202.774 338.917ZM222.649 337.765C224.314 337.608 225.987 337.435 227.668 337.247L227.502 335.756C225.829 335.944 224.165 336.115 222.509 336.272L222.649 337.765ZM227.668 337.247C229.384 337.054 231.084 336.853 232.768 336.645L232.585 335.156C230.907 335.364 229.212 335.564 227.502 335.756L227.668 337.247ZM242.68 335.302C246.088 334.799 249.428 334.263 252.702 333.696L252.446 332.218C249.185 332.783 245.858 333.317 242.462 333.818L242.68 335.302ZM262.584 331.847C265.916 331.177 269.178 330.472 272.372 329.735L272.036 328.273C268.855 329.007 265.607 329.709 262.289 330.376L262.584 331.847ZM282.217 327.306C285.528 326.435 288.764 325.528 291.931 324.586L291.504 323.148C288.353 324.085 285.132 324.989 281.837 325.855L282.217 327.306ZM301.522 321.56C304.753 320.481 307.909 319.366 310.995 318.215L310.473 316.81C307.402 317.954 304.262 319.064 301.048 320.137L301.522 321.56ZM320.393 314.524C323.552 313.218 326.637 311.876 329.656 310.5L329.035 309.135C326.032 310.504 322.963 311.839 319.821 313.137L320.393 314.524ZM338.759 306.156C341.804 304.637 344.782 303.084 347.701 301.501L346.986 300.182C344.082 301.757 341.119 303.302 338.09 304.813L338.759 306.156ZM356.48 296.554C359.406 294.843 362.277 293.103 365.101 291.339L364.307 290.067C361.494 291.824 358.636 293.556 355.724 295.259L356.48 296.554ZM373.572 285.889C376.388 284.027 379.164 282.143 381.91 280.241L381.056 279.008C378.319 280.904 375.552 282.782 372.745 284.638L373.572 285.889ZM390.135 274.436C392.867 272.476 395.578 270.502 398.276 268.519L397.389 267.31C394.694 269.291 391.988 271.261 389.262 273.218L390.135 274.436ZM406.364 262.536C409.06 260.53 411.727 258.541 414.431 256.532L413.536 255.328C410.851 257.325 408.146 259.341 405.469 261.332L406.364 262.536ZM422.511 250.553C425.2 248.578 427.906 246.607 430.639 244.645L429.765 243.427C427.026 245.393 424.316 247.367 421.624 249.345L422.511 250.553ZM438.843 238.849C441.574 236.954 444.339 235.071 447.149 233.205L446.32 231.955C443.501 233.828 440.726 235.716 437.988 237.617L438.843 238.849ZM455.578 227.747C458.383 225.98 461.236 224.232 464.147 222.507L463.383 221.216C460.46 222.949 457.595 224.704 454.779 226.478L455.578 227.747ZM472.863 217.51C475.747 215.913 478.691 214.34 481.7 212.793L481.015 211.459C477.992 213.013 475.034 214.594 472.137 216.198L472.863 217.51ZM490.679 208.357C493.651 206.947 496.689 205.563 499.798 204.209L499.199 202.833C496.076 204.194 493.024 205.585 490.037 207.002L490.679 208.357ZM509.057 200.349C512.121 199.129 515.254 197.936 518.46 196.775L517.949 195.364C514.729 196.531 511.582 197.729 508.503 198.956L509.057 200.349ZM527.955 193.496C531.064 192.475 534.239 191.482 537.486 190.518L537.06 189.08C533.8 190.048 530.61 191.045 527.488 192.071L527.955 193.496ZM547.144 187.799C550.344 186.945 553.611 186.12 556.948 185.324L556.601 183.864C553.251 184.663 549.971 185.492 546.758 186.349L547.144 187.799ZM566.662 183.135C568.313 182.784 569.981 182.44 571.666 182.103L571.373 180.632C569.682 180.97 568.008 181.315 566.351 181.667L566.662 183.135ZM571.666 182.103C573.314 181.774 574.955 181.457 576.589 181.153L576.316 179.678C574.675 179.983 573.027 180.301 571.373 180.632L571.666 182.103ZM586.318 179.475C589.63 178.949 592.914 178.476 596.17 178.052L595.977 176.564C592.707 176.99 589.409 177.466 586.084 177.993L586.318 179.475ZM605.988 176.916C609.307 176.581 612.595 176.298 615.853 176.067L615.748 174.571C612.475 174.803 609.171 175.087 605.839 175.424L605.988 176.916ZM625.771 175.515C629.097 175.382 632.391 175.302 635.653 175.275L635.641 173.775C632.364 173.802 629.054 173.882 625.711 174.016L625.771 175.515ZM645.542 175.353C648.886 175.434 652.194 175.571 655.466 175.762L655.554 174.264C652.265 174.073 648.941 173.935 645.58 173.853L645.542 175.353ZM665.336 176.508C668.647 176.816 671.918 177.18 675.15 177.598L675.344 176.11C672.094 175.69 668.805 175.324 665.477 175.014L665.336 176.508ZM684.956 179.046C688.249 179.594 691.498 180.199 694.705 180.857L695.007 179.388C691.783 178.726 688.514 178.118 685.203 177.566L684.956 179.046ZM704.361 183.032C707.592 183.825 710.776 184.674 713.914 185.575L714.329 184.133C711.173 183.227 707.969 182.373 704.719 181.575L704.361 183.032ZM723.353 188.489C726.519 189.536 729.635 190.638 732.7 191.791L733.229 190.386C730.145 189.226 727.01 188.118 723.824 187.065L723.353 188.489ZM741.899 195.467C744.965 196.767 747.976 198.118 750.931 199.518L751.574 198.162C748.6 196.753 745.57 195.393 742.485 194.086L741.899 195.467ZM759.783 203.941C762.727 205.491 765.611 207.089 768.436 208.733L769.191 207.436C766.348 205.782 763.445 204.173 760.482 202.613L759.783 203.941ZM776.875 213.89C779.676 215.686 782.412 217.526 785.082 219.408L785.947 218.181C783.258 216.287 780.504 214.435 777.685 212.627L776.875 213.89ZM793.04 225.279C795.674 227.314 798.238 229.389 800.731 231.498L801.7 230.353C799.19 228.229 796.61 226.14 793.958 224.092L793.04 225.279ZM808.135 238.058C810.578 240.323 812.943 242.622 815.232 244.949L816.302 243.897C813.997 241.553 811.615 239.238 809.155 236.957L808.135 238.058ZM822.001 252.164C824.226 254.651 826.366 257.163 828.42 259.695L829.585 258.749C827.516 256.199 825.36 253.668 823.119 251.164L822.001 252.164ZM834.462 267.532C836.437 270.229 838.316 272.943 840.099 275.664L841.354 274.842C839.556 272.098 837.662 269.364 835.673 266.645L834.462 267.532ZM845.295 284.082C846.975 286.979 848.548 289.878 850.011 292.771L851.349 292.093C849.873 289.174 848.287 286.25 846.592 283.328L845.295 284.082ZM854.196 301.713C855.522 304.792 856.722 307.855 857.794 310.892L859.209 310.392C858.124 307.322 856.913 304.228 855.574 301.119L854.196 301.713Z" fill="#01A89E"/>
</svg>
