<svg width="811" height="335" viewBox="0 0 811 335" fill="none" xmlns="http://www.w3.org/2000/svg">
<path d="M542.251 266.049C541.778 265.939 541.648 265.937 540.842 265.706C537.196 264.659 521.209 261.609 522.349 249.403C523.619 235.776 531.325 207.925 541.753 223.048C552.182 238.172 548.842 247.798 558.961 240.662C569.079 233.526 582.923 222.557 581.176 239.846C579.43 257.135 577.926 269.403 567.917 269.697C558.3 269.989 548.864 267.581 542.251 266.049Z" fill="#FFAF00"/>
<path d="M761.384 1.86163C761.087 1.57222 761.081 1.09738 761.37 0.801054C761.66 0.50473 762.135 0.499131 762.431 0.788549L761.384 1.86163ZM614.81 280.661L614.804 281.411L614.81 280.661ZM269.142 161.74L269.069 162.487L269.142 161.74ZM4.001 334.5L0.734417 326.477L9.31375 327.664L4.001 334.5ZM765.918 4.29588C766.206 4.59408 766.198 5.06887 765.899 5.35635C765.601 5.64383 765.127 5.63514 764.839 5.33693L765.918 4.29588ZM771.362 12.5216C771.093 12.2065 771.131 11.7331 771.446 11.4643C771.76 11.1955 772.234 11.233 772.503 11.5481L771.362 12.5216ZM778.64 19.2037C778.889 19.5349 778.823 20.005 778.492 20.2538C778.16 20.5025 777.69 20.4357 777.441 20.1045L778.64 19.2037ZM783.043 28.0673C782.815 27.721 782.911 27.2561 783.257 27.0288C783.603 26.8015 784.068 26.898 784.296 27.2443L783.043 28.0673ZM789.422 35.6178C789.627 35.9779 789.501 36.4358 789.141 36.6404C788.781 36.8451 788.323 36.719 788.119 36.3589L789.422 35.6178ZM792.648 44.9531C792.467 44.5805 792.622 44.1318 792.994 43.9507C793.367 43.7697 793.816 43.925 793.997 44.2976L792.648 44.9531ZM798.001 53.2527C798.158 53.6362 797.974 54.074 797.59 54.2305C797.207 54.387 796.769 54.203 796.612 53.8195L798.001 53.2527ZM799.996 62.9299C799.865 62.5371 800.076 62.1122 800.469 61.9808C800.862 61.8495 801.287 62.0615 801.418 62.4544L799.996 62.9299ZM804.235 71.8633C804.341 72.2638 804.102 72.6742 803.702 72.7798C803.301 72.8854 802.891 72.6464 802.785 72.2459L804.235 71.8633ZM804.966 81.718C804.886 81.3115 805.151 80.9175 805.557 80.8378C805.963 80.7581 806.358 81.0231 806.438 81.4296L804.966 81.718ZM808.022 91.1149C808.076 91.5256 807.786 91.902 807.376 91.9555C806.965 92.009 806.588 91.7194 806.534 91.3087L808.022 91.1149ZM807.49 100.98C807.462 100.566 807.775 100.209 808.188 100.182C808.601 100.154 808.959 100.467 808.986 100.881L807.49 100.98ZM809.332 110.688C809.334 111.102 808.999 111.439 808.585 111.44C808.171 111.442 807.834 111.107 807.832 110.693L809.332 110.688ZM807.566 120.41C807.59 119.996 807.945 119.681 808.359 119.705C808.772 119.73 809.088 120.085 809.064 120.498L807.566 120.41ZM808.187 130.27C808.137 130.682 807.763 130.974 807.352 130.924C806.941 130.874 806.648 130.501 806.698 130.089L808.187 130.27ZM805.235 139.697C805.31 139.29 805.701 139.02 806.108 139.095C806.516 139.171 806.785 139.562 806.711 139.969L805.235 139.697ZM804.645 149.559C804.545 149.961 804.139 150.206 803.737 150.107C803.335 150.007 803.089 149.6 803.189 149.198L804.645 149.559ZM800.569 158.559C800.693 158.164 801.114 157.944 801.509 158.068C801.904 158.191 802.125 158.612 802.001 159.008L800.569 158.559ZM798.792 168.282C798.645 168.669 798.212 168.863 797.825 168.716C797.437 168.568 797.243 168.135 797.39 167.748L798.792 168.282ZM793.667 176.726C793.837 176.348 794.281 176.18 794.658 176.35C795.036 176.521 795.205 176.965 795.035 177.342L793.667 176.726ZM790.746 186.159C790.554 186.525 790.101 186.667 789.734 186.474C789.367 186.282 789.225 185.829 789.417 185.462L790.746 186.159ZM784.656 193.932C784.869 193.577 785.33 193.463 785.685 193.676C786.04 193.89 786.155 194.351 785.941 194.706L784.656 193.932ZM780.638 202.957C780.404 203.299 779.938 203.386 779.596 203.151C779.254 202.917 779.167 202.45 779.401 202.109L780.638 202.957ZM773.67 209.967C773.924 209.64 774.395 209.58 774.722 209.834C775.05 210.088 775.11 210.559 774.856 210.886L773.67 209.967ZM768.621 218.462C768.349 218.774 767.875 218.806 767.563 218.533C767.251 218.26 767.219 217.787 767.491 217.475L768.621 218.462ZM760.897 224.6C761.186 224.304 761.661 224.3 761.957 224.59C762.253 224.88 762.258 225.355 761.968 225.651L760.897 224.6ZM754.907 232.448C754.601 232.726 754.127 232.703 753.848 232.397C753.569 232.09 753.592 231.616 753.898 231.337L754.907 232.448ZM746.518 237.671C746.84 237.411 747.312 237.46 747.573 237.782C747.834 238.104 747.784 238.576 747.463 238.837L746.518 237.671ZM739.656 244.805C739.32 245.047 738.851 244.971 738.609 244.635C738.366 244.299 738.442 243.83 738.778 243.588L739.656 244.805ZM730.756 249.04C731.104 248.817 731.568 248.919 731.792 249.268C732.015 249.617 731.914 250.08 731.565 250.304L730.756 249.04ZM723.177 255.357C722.816 255.561 722.359 255.434 722.154 255.074C721.95 254.713 722.077 254.256 722.437 254.052L723.177 255.357ZM713.841 258.619C714.211 258.435 714.662 258.586 714.846 258.956C715.031 259.327 714.881 259.778 714.51 259.962L713.841 258.619ZM705.607 264.107C705.227 264.272 704.785 264.097 704.62 263.717C704.455 263.337 704.629 262.896 705.009 262.731L705.607 264.107ZM696.022 266.366C696.409 266.22 696.842 266.416 696.988 266.804C697.134 267.192 696.938 267.624 696.55 267.77L696.022 266.366ZM687.29 270.988C686.896 271.114 686.473 270.897 686.347 270.502C686.22 270.108 686.437 269.686 686.832 269.559L687.29 270.988ZM677.457 272.314C677.857 272.207 678.268 272.445 678.376 272.845C678.483 273.245 678.246 273.656 677.846 273.763L677.457 272.314ZM668.375 276.07C667.97 276.159 667.57 275.903 667.481 275.498C667.392 275.093 667.648 274.694 668.052 274.605L668.375 276.07ZM658.497 276.478C658.905 276.407 659.294 276.681 659.365 277.089C659.435 277.497 659.162 277.885 658.754 277.956L658.497 276.478ZM649.035 279.423C648.624 279.476 648.248 279.186 648.194 278.775C648.141 278.364 648.431 277.988 648.842 277.935L649.035 279.423ZM639.213 278.976C639.625 278.94 639.989 279.245 640.026 279.658C640.062 280.071 639.757 280.435 639.344 280.471L639.213 278.976ZM629.529 281.132C629.115 281.152 628.764 280.832 628.744 280.419C628.724 280.005 629.043 279.653 629.457 279.634L629.529 281.132ZM619.755 279.91C620.17 279.906 620.509 280.238 620.513 280.653C620.517 281.067 620.185 281.406 619.771 281.41L619.755 279.91ZM609.825 281.337C609.411 281.328 609.082 280.986 609.09 280.572C609.099 280.157 609.441 279.829 609.855 279.837L609.825 281.337ZM600.199 279.52C600.613 279.539 600.934 279.889 600.915 280.303C600.897 280.717 600.546 281.037 600.133 281.019L600.199 279.52ZM590.306 280.447C589.893 280.418 589.582 280.059 589.611 279.646C589.64 279.232 589.999 278.921 590.412 278.951L590.306 280.447ZM580.738 278.125C581.15 278.166 581.451 278.533 581.41 278.945C581.37 279.358 581.002 279.658 580.59 279.617L580.738 278.125ZM570.948 278.515C570.537 278.462 570.247 278.086 570.3 277.675C570.353 277.264 570.729 276.974 571.14 277.027L570.948 278.515ZM561.454 275.619C561.863 275.685 562.141 276.07 562.075 276.479C562.01 276.888 561.625 277.166 561.216 277.1L561.454 275.619ZM551.584 275.379C551.177 275.3 550.912 274.906 550.992 274.499C551.071 274.093 551.465 273.828 551.871 273.907L551.584 275.379ZM542.381 271.879C542.785 271.973 543.037 272.376 542.943 272.779C542.85 273.183 542.447 273.434 542.043 273.34L542.381 271.879ZM532.591 270.971C532.191 270.863 531.954 270.451 532.061 270.051C532.169 269.651 532.581 269.415 532.981 269.522L532.591 270.971ZM523.637 266.819C524.033 266.941 524.255 267.361 524.133 267.757C524.011 268.153 523.591 268.374 523.195 268.252L523.637 266.819ZM513.892 265.187C513.501 265.05 513.295 264.622 513.431 264.231C513.568 263.84 513.996 263.634 514.387 263.771L513.892 265.187ZM505.264 260.392C505.65 260.543 505.841 260.978 505.69 261.364C505.539 261.749 505.105 261.94 504.719 261.789L505.264 260.392ZM495.678 258.069C495.298 257.905 495.122 257.464 495.286 257.083C495.45 256.703 495.891 256.528 496.272 256.692L495.678 258.069ZM487.41 252.69C487.785 252.867 487.946 253.314 487.77 253.689C487.593 254.063 487.146 254.224 486.772 254.047L487.41 252.69ZM477.998 249.748C477.629 249.561 477.482 249.109 477.669 248.74C477.857 248.371 478.308 248.224 478.677 248.411L477.998 249.748ZM470.065 243.887C470.429 244.085 470.565 244.54 470.368 244.904C470.171 245.268 469.715 245.404 469.351 245.206L470.065 243.887ZM460.818 240.459C460.458 240.254 460.332 239.796 460.537 239.436C460.742 239.076 461.2 238.951 461.56 239.156L460.818 240.459ZM453.144 234.26C453.5 234.471 453.618 234.931 453.407 235.287C453.196 235.644 452.736 235.761 452.38 235.55L453.144 234.26ZM444.015 230.525C443.661 230.309 443.548 229.848 443.763 229.494C443.978 229.14 444.44 229.028 444.794 229.243L444.015 230.525ZM436.483 224.153C436.835 224.37 436.946 224.832 436.729 225.185C436.512 225.538 436.05 225.648 435.697 225.43L436.483 224.153ZM427.396 220.315C427.043 220.098 426.933 219.636 427.15 219.283C427.367 218.931 427.829 218.821 428.182 219.038L427.396 220.315ZM419.862 213.945C420.217 214.16 420.329 214.621 420.114 214.975C419.9 215.329 419.438 215.442 419.084 215.226L419.862 213.945ZM410.733 210.21C410.376 209.999 410.258 209.539 410.469 209.182C410.68 208.826 411.14 208.708 411.497 208.92L410.733 210.21ZM403.059 204.007C403.419 204.213 403.545 204.671 403.339 205.03C403.134 205.39 402.676 205.515 402.316 205.31L403.059 204.007ZM393.813 200.566C393.449 200.368 393.314 199.913 393.512 199.549C393.71 199.185 394.165 199.051 394.529 199.249L393.813 200.566ZM385.889 194.682C386.258 194.871 386.404 195.323 386.215 195.692C386.026 196.06 385.574 196.206 385.206 196.017L385.889 194.682ZM376.481 191.692C376.107 191.513 375.949 191.066 376.127 190.692C376.306 190.318 376.753 190.16 377.127 190.339L376.481 191.692ZM368.243 186.251C368.622 186.418 368.794 186.861 368.626 187.24C368.459 187.619 368.016 187.79 367.637 187.623L368.243 186.251ZM358.693 183.837C358.309 183.682 358.124 183.244 358.279 182.86C358.434 182.476 358.871 182.291 359.255 182.446L358.693 183.837ZM350.15 178.934C350.539 179.076 350.739 179.507 350.596 179.896C350.454 180.285 350.023 180.485 349.634 180.342L350.15 178.934ZM340.462 177.145C340.068 177.015 339.855 176.591 339.984 176.198C340.114 175.804 340.538 175.591 340.931 175.721L340.462 177.145ZM331.599 172.809C331.997 172.926 332.224 173.343 332.108 173.74C331.991 174.138 331.574 174.365 331.177 174.248L331.599 172.809ZM321.777 171.649C321.376 171.545 321.135 171.136 321.239 170.735C321.342 170.334 321.752 170.093 322.153 170.197L321.777 171.649ZM312.648 167.893C313.053 167.984 313.306 168.386 313.215 168.79C313.124 169.194 312.723 169.447 312.319 169.356L312.648 167.893ZM302.843 167.364C302.436 167.285 302.171 166.891 302.25 166.485C302.329 166.078 302.722 165.813 303.129 165.892L302.843 167.364ZM293.511 164.164C293.92 164.232 294.197 164.617 294.13 165.026C294.063 165.435 293.677 165.712 293.268 165.644L293.511 164.164ZM283.575 164.184C283.165 164.127 282.877 163.749 282.933 163.339C282.989 162.929 283.367 162.641 283.777 162.697L283.575 164.184ZM274.16 161.509C274.571 161.555 274.868 161.925 274.823 162.337C274.778 162.749 274.407 163.046 273.996 163L274.16 161.509ZM263.905 162.019C263.492 161.985 263.185 161.623 263.219 161.21C263.253 160.797 263.615 160.49 264.028 160.525L263.905 162.019ZM253.81 159.827C254.223 159.849 254.541 160.202 254.519 160.616C254.498 161.03 254.145 161.347 253.731 161.325L253.81 159.827ZM243.435 160.937C243.021 160.927 242.693 160.584 242.702 160.17C242.71 159.756 243.053 159.428 243.467 159.437L243.435 160.937ZM233.17 159.375C233.584 159.371 233.924 159.703 233.928 160.117C233.933 160.532 233.601 160.871 233.186 160.875L233.17 159.375ZM222.981 161.148C222.567 161.166 222.217 160.845 222.198 160.431C222.18 160.017 222.501 159.667 222.915 159.649L222.981 161.148ZM212.611 160.275C213.024 160.243 213.385 160.551 213.417 160.964C213.45 161.377 213.142 161.738 212.729 161.77L212.611 160.275ZM202.514 162.753C202.103 162.8 201.731 162.505 201.684 162.093C201.636 161.681 201.932 161.31 202.343 161.263L202.514 162.753ZM192.143 162.619C192.553 162.557 192.935 162.838 192.998 163.248C193.06 163.657 192.779 164.04 192.37 164.102L192.143 162.619ZM182.3 165.826C181.893 165.904 181.5 165.637 181.422 165.23C181.344 164.823 181.611 164.431 182.018 164.353L182.3 165.826ZM171.924 166.484C172.327 166.391 172.731 166.642 172.824 167.046C172.918 167.449 172.667 167.852 172.264 167.946L171.924 166.484ZM162.32 170.461C161.921 170.57 161.508 170.335 161.398 169.936C161.288 169.537 161.523 169.124 161.922 169.014L162.32 170.461ZM152.044 171.944C152.438 171.818 152.86 172.036 152.987 172.431C153.113 172.826 152.895 173.247 152.501 173.373L152.044 171.944ZM142.819 176.688C142.43 176.83 141.999 176.63 141.856 176.241C141.714 175.852 141.913 175.421 142.302 175.279L142.819 176.688ZM132.714 179.021C133.097 178.862 133.536 179.043 133.695 179.426C133.854 179.809 133.673 180.247 133.29 180.406L132.714 179.021ZM123.933 184.53C123.558 184.705 123.111 184.543 122.936 184.168C122.761 183.792 122.923 183.346 123.298 183.171L123.933 184.53ZM114.054 187.737C114.421 187.545 114.874 187.688 115.066 188.055C115.257 188.422 115.115 188.875 114.748 189.067L114.054 187.737ZM105.772 194.007C105.414 194.215 104.955 194.093 104.747 193.734C104.539 193.376 104.661 192.917 105.019 192.709L105.772 194.007ZM96.2195 198.08C96.568 197.856 97.0321 197.957 97.2559 198.306C97.4798 198.655 97.3788 199.119 97.0303 199.342L96.2195 198.08ZM88.5407 205.066C88.2027 205.305 87.7346 205.225 87.4952 204.887C87.2557 204.549 87.3355 204.081 87.6735 203.842L88.5407 205.066ZM79.4 209.987C79.7267 209.732 80.1979 209.791 80.4526 210.118C80.7073 210.445 80.6489 210.916 80.3223 211.17L79.4 209.987ZM72.3937 217.645C72.0791 217.914 71.6056 217.877 71.3362 217.562C71.0667 217.248 71.1033 216.774 71.4179 216.505L72.3937 217.645ZM63.746 223.386C64.0478 223.102 64.5224 223.117 64.8062 223.419C65.09 223.721 65.0754 224.195 64.7737 224.479L63.746 223.386ZM57.4808 231.661C57.1927 231.958 56.7178 231.966 56.4203 231.677C56.1227 231.389 56.1151 230.914 56.4032 230.617L57.4808 231.661ZM49.4085 238.185C49.6822 237.875 50.1561 237.845 50.467 238.119C50.7778 238.393 50.8079 238.867 50.5342 239.177L49.4085 238.185ZM43.9531 247.015C43.6945 247.338 43.2225 247.391 42.8989 247.132C42.5754 246.873 42.5227 246.401 42.7813 246.078L43.9531 247.015ZM36.5422 254.28C36.7848 253.944 37.2536 253.869 37.5894 254.112C37.9251 254.355 38.0006 254.824 37.7581 255.159L36.5422 254.28ZM31.971 263.595C31.7453 263.942 31.2808 264.041 30.9335 263.815C30.5861 263.589 30.4875 263.124 30.7132 262.777L31.971 263.595ZM25.3185 271.553C25.5264 271.195 25.9853 271.073 26.3436 271.282C26.702 271.49 26.824 271.948 26.6162 272.307L25.3185 271.553ZM21.7174 281.284C21.5287 281.653 21.0768 281.798 20.708 281.609C20.3393 281.42 20.1934 280.968 20.382 280.6L21.7174 281.284ZM15.9286 289.917C16.0968 289.538 16.54 289.368 16.9185 289.536C17.297 289.705 17.4675 290.148 17.2993 290.527L15.9286 289.917ZM13.411 299.997C13.2649 300.384 12.8323 300.58 12.4447 300.434C12.0571 300.287 11.8612 299.854 12.0072 299.467L13.411 299.997ZM8.66554 309.227C8.78735 308.831 9.20704 308.609 9.60295 308.732C9.99886 308.854 10.2211 309.274 10.0992 309.669L8.66554 309.227ZM7.42196 319.512C7.32691 319.915 6.92304 320.165 6.51988 320.069C6.11672 319.974 5.86691 319.57 5.96197 319.167L7.42196 319.512ZM3.95733 329.32C4.02205 328.911 4.40616 328.632 4.81532 328.697C5.22441 328.762 5.50364 329.147 5.43891 329.556L3.95733 329.32ZM762.431 0.788549C763.617 1.94568 764.779 3.11494 765.918 4.29588L764.839 5.33693C763.71 4.16685 762.558 3.00827 761.384 1.86163L762.431 0.788549ZM772.503 11.5481C774.644 14.0562 776.69 16.6093 778.64 19.2037L777.441 20.1045C775.51 17.535 773.484 15.0061 771.362 12.5216L772.503 11.5481ZM784.296 27.2443C786.105 29.9974 787.813 32.79 789.422 35.6178L788.119 36.3589C786.525 33.5589 784.834 30.7936 783.043 28.0673L784.296 27.2443ZM793.997 44.2976C795.434 47.2519 796.769 50.2384 798.001 53.2527L796.612 53.8195C795.392 50.8351 794.071 47.8781 792.648 44.9531L793.997 44.2976ZM801.418 62.4544C802.462 65.5683 803.4 68.7062 804.235 71.8633L802.785 72.2459C801.958 69.1199 801.029 66.013 799.996 62.9299L801.418 62.4544ZM806.438 81.4296C807.07 84.6449 807.598 87.8749 808.022 91.1149L806.534 91.3087C806.114 88.1002 805.592 84.9018 804.966 81.718L806.438 81.4296ZM808.986 100.881C809.205 104.146 809.32 107.417 809.332 110.688L807.832 110.693C807.82 107.453 807.706 104.214 807.49 100.98L808.986 100.881ZM809.064 120.498C808.872 123.762 808.58 127.021 808.187 130.27L806.698 130.089C807.087 126.87 807.377 123.642 807.566 120.41L809.064 120.498ZM806.711 139.969C806.12 143.181 805.432 146.38 804.645 149.559L803.189 149.198C803.968 146.048 804.651 142.879 805.235 139.697L806.711 139.969ZM802.001 159.008C801.027 162.124 799.957 165.217 798.792 168.282L797.39 167.748C798.544 164.711 799.604 161.646 800.569 158.559L802.001 159.008ZM795.035 177.342C793.697 180.314 792.267 183.255 790.746 186.159L789.417 185.462C790.924 182.584 792.341 179.671 793.667 176.726L795.035 177.342ZM785.941 194.706C784.261 197.497 782.494 200.249 780.638 202.957L779.401 202.109C781.239 199.425 782.991 196.698 784.656 193.932L785.941 194.706ZM774.856 210.886C772.861 213.46 770.783 215.986 768.621 218.462L767.491 217.475C769.633 215.021 771.693 212.517 773.67 209.967L774.856 210.886ZM761.968 225.651C759.693 227.97 757.339 230.237 754.907 232.448L753.898 231.337C756.309 229.146 758.642 226.899 760.897 224.6L761.968 225.651ZM747.463 238.837C744.934 240.885 742.331 242.876 739.656 244.805L738.778 243.588C741.431 241.675 744.011 239.702 746.518 237.671L747.463 238.837ZM731.565 250.304C728.837 252.05 726.04 253.736 723.177 255.357L722.437 254.052C725.277 252.444 728.05 250.772 730.756 249.04L731.565 250.304ZM714.51 259.962C711.605 261.408 708.637 262.791 705.607 264.107L705.009 262.731C708.015 261.425 710.959 260.054 713.841 258.619L714.51 259.962ZM696.55 267.77C693.52 268.908 690.433 269.981 687.29 270.988L686.832 269.559C689.952 268.56 693.015 267.495 696.022 266.366L696.55 267.77ZM677.846 273.763C674.74 274.596 671.583 275.366 668.375 276.07L668.052 274.605C671.238 273.906 674.373 273.141 677.457 272.314L677.846 273.763ZM658.754 277.956C655.561 278.509 652.321 278.999 649.035 279.423L648.842 277.935C652.107 277.514 655.325 277.027 658.497 276.478L658.754 277.956ZM639.344 280.471C636.115 280.753 632.843 280.974 629.529 281.132L629.457 279.634C632.751 279.477 636.003 279.257 639.213 278.976L639.344 280.471ZM619.771 281.41C618.125 281.426 616.469 281.426 614.804 281.411L614.816 279.911C616.472 279.926 618.119 279.926 619.755 279.91L619.771 281.41ZM614.804 281.411C613.129 281.396 611.47 281.371 609.825 281.337L609.855 279.837C611.494 279.871 613.148 279.896 614.816 279.911L614.804 281.411ZM600.133 281.019C596.795 280.868 593.52 280.677 590.306 280.447L590.412 278.951C593.613 279.18 596.875 279.37 600.199 279.52L600.133 281.019ZM580.59 279.617C577.313 279.291 574.1 278.923 570.948 278.515L571.14 277.027C574.276 277.433 577.475 277.8 580.738 278.125L580.59 279.617ZM561.216 277.1C557.938 276.57 554.729 275.996 551.584 275.379L551.871 273.907C555 274.52 558.193 275.092 561.454 275.619L561.216 277.1ZM542.043 273.34C538.826 272.594 535.677 271.803 532.591 270.971L532.981 269.522C536.049 270.35 539.181 271.137 542.381 271.879L542.043 273.34ZM523.195 268.252C520.03 267.273 516.931 266.25 513.892 265.187L514.387 263.771C517.408 264.828 520.49 265.845 523.637 266.819L523.195 268.252ZM504.719 261.789C501.647 260.588 498.636 259.347 495.678 258.069L496.272 256.692C499.214 257.963 502.21 259.198 505.264 260.392L504.719 261.789ZM486.772 254.047C483.8 252.647 480.878 251.212 477.998 249.748L478.677 248.411C481.545 249.869 484.453 251.297 487.41 252.69L486.772 254.047ZM469.351 245.206C466.474 243.648 463.632 242.064 460.818 240.459L461.56 239.156C464.366 240.756 467.198 242.335 470.065 243.887L469.351 245.206ZM452.38 235.55C449.576 233.889 446.79 232.212 444.015 230.525L444.794 229.243C447.565 230.928 450.346 232.602 453.144 234.26L452.38 235.55ZM435.697 225.43C432.926 223.725 430.173 222.024 427.396 220.315L428.182 219.038C430.949 220.741 433.724 222.455 436.483 224.153L435.697 225.43ZM419.084 215.226C416.319 213.546 413.539 211.872 410.733 210.21L411.497 208.92C414.308 210.586 417.094 212.262 419.862 213.945L419.084 215.226ZM402.316 205.31C399.517 203.711 396.685 202.129 393.813 200.566L394.529 199.249C397.411 200.816 400.252 202.404 403.059 204.007L402.316 205.31ZM385.206 196.017C382.345 194.55 379.439 193.107 376.481 191.692L377.127 190.339C380.099 191.76 383.017 193.209 385.889 194.682L385.206 196.017ZM367.637 187.623C364.712 186.33 361.733 185.067 358.693 183.837L359.255 182.446C362.31 183.682 365.304 184.952 368.243 186.251L367.637 187.623ZM349.634 180.342C346.638 179.242 343.583 178.175 340.462 177.145L340.931 175.721C344.068 176.756 347.139 177.828 350.15 178.934L349.634 180.342ZM331.177 174.248C328.108 173.346 324.976 172.479 321.777 171.649L322.153 170.197C325.367 171.031 328.515 171.902 331.599 172.809L331.177 174.248ZM312.319 169.356C309.223 168.656 306.066 167.992 302.843 167.364L303.129 165.892C306.366 166.522 309.538 167.19 312.648 167.893L312.319 169.356ZM293.268 165.644C290.1 165.122 286.87 164.634 283.575 164.184L283.777 162.697C287.085 163.15 290.329 163.639 293.511 164.164L293.268 165.644ZM273.996 163C272.369 162.82 270.727 162.649 269.069 162.487L269.214 160.994C270.878 161.157 272.526 161.329 274.16 161.509L273.996 163ZM269.069 162.487C267.339 162.317 265.618 162.162 263.905 162.019L264.028 160.525C265.748 160.667 267.477 160.824 269.214 160.994L269.069 162.487ZM253.731 161.325C250.263 161.14 246.831 161.011 243.435 160.937L243.467 159.437C246.878 159.512 250.326 159.642 253.81 159.827L253.731 161.325ZM233.186 160.875C229.745 160.91 226.343 161.002 222.981 161.148L222.915 159.649C226.294 159.502 229.712 159.41 233.17 159.375L233.186 160.875ZM212.729 161.77C209.281 162.04 205.876 162.368 202.514 162.753L202.343 161.263C205.722 160.876 209.145 160.546 212.611 160.275L212.729 161.77ZM192.37 164.102C188.966 164.619 185.61 165.194 182.3 165.826L182.018 164.353C185.346 163.718 188.722 163.139 192.143 162.619L192.37 164.102ZM172.264 167.946C168.898 168.726 165.584 169.565 162.32 170.461L161.922 169.014C165.205 168.113 168.539 167.269 171.924 166.484L172.264 167.946ZM152.501 173.373C149.218 174.421 145.991 175.527 142.819 176.688L142.302 175.279C145.494 174.111 148.741 172.998 152.044 171.944L152.501 173.373ZM133.29 180.406C130.112 181.726 126.993 183.101 123.933 184.53L123.298 183.171C126.377 181.733 129.516 180.348 132.714 179.021L133.29 180.406ZM114.748 189.067C111.692 190.661 108.701 192.309 105.772 194.007L105.019 192.709C107.967 191 110.978 189.341 114.054 187.737L114.748 189.067ZM97.0303 199.342C94.1323 201.202 91.3024 203.111 88.5407 205.066L87.6735 203.842C90.4538 201.874 93.3024 199.952 96.2195 198.08L97.0303 199.342ZM80.3223 211.17C77.6065 213.286 74.9637 215.445 72.3937 217.645L71.4179 216.505C74.0053 214.29 76.666 212.116 79.4 209.987L80.3223 211.17ZM64.7737 224.479C62.2647 226.837 59.8337 229.232 57.4808 231.661L56.4032 230.617C58.7723 228.172 61.2199 225.76 63.746 223.386L64.7737 224.479ZM50.5342 239.177C48.2565 241.762 46.0629 244.376 43.9531 247.015L42.7813 246.078C44.9059 243.421 47.115 240.788 49.4085 238.185L50.5342 239.177ZM37.7581 255.159C35.7381 257.953 33.8092 260.768 31.971 263.595L30.7132 262.777C32.5648 259.929 34.5078 257.094 36.5422 254.28L37.7581 255.159ZM26.6162 272.307C24.8835 275.294 23.2506 278.289 21.7174 281.284L20.382 280.6C21.9272 277.581 23.5727 274.563 25.3185 271.553L26.6162 272.307ZM17.2993 290.527C15.8913 293.694 14.5952 296.854 13.411 299.997L12.0072 299.467C13.2018 296.297 14.5089 293.111 15.9286 289.917L17.2993 290.527ZM10.0992 309.669C9.07901 312.984 8.18671 316.268 7.42196 319.512L5.96197 319.167C6.73458 315.89 7.63577 312.573 8.66554 309.227L10.0992 309.669Z" fill="#FFAF00"/>
</svg>
