<svg width="857" height="304" viewBox="0 0 857 304" fill="none" xmlns="http://www.w3.org/2000/svg">
<path d="M73.4046 2.1309C73.7531 1.90684 73.8542 1.44279 73.6303 1.09441C73.4065 0.746027 72.9425 0.645246 72.594 0.869305L73.4046 2.1309ZM173.001 289.724L172.995 288.974L173.001 289.724ZM491.594 164.478L491.815 165.195L491.594 164.478ZM856.094 303.479L856.448 294.825L848.777 298.85L856.094 303.479ZM68.4042 3.65209L67.7856 4.07651L68.6336 5.31321L69.2522 4.88879L68.4042 3.65209ZM61.3087 10.6975L61.9006 10.2365L60.9793 9.05337L60.3874 9.5144L61.3087 10.6975ZM52.7083 15.8883L52.1463 16.3853L53.1395 17.5087L53.7015 17.0117L52.7083 15.8883ZM46.5097 23.7887L47.039 23.2571L45.9764 22.1991L45.4471 22.7307L46.5097 23.7887ZM38.65 30.0104L38.1559 30.575L39.2844 31.5624L39.7785 30.9978L38.65 30.0104ZM33.5329 38.62L33.9893 38.0246L32.7989 37.1126L32.3425 37.7081L33.5329 38.62ZM26.5392 45.8158L26.1227 46.4398L27.3702 47.2719L27.7867 46.6479L26.5392 45.8158ZM22.5762 55.0382L22.9509 54.3883L21.6515 53.6398L21.2768 54.2898L22.5762 55.0382ZM16.5843 63.0825L16.2529 63.7556L17.5985 64.4175L17.9299 63.7444L16.5843 63.0825ZM13.8627 72.7318L14.1496 72.0387L12.7637 71.4658L12.4768 72.1589L13.8627 72.7318ZM8.96684 81.4812L8.72532 82.1915L10.1454 82.6735L10.3869 81.9633L8.96684 81.4812ZM7.51089 91.4064L7.70632 90.6822L6.25812 90.2923L6.0627 91.0166L7.51089 91.4064ZM3.77427 100.718L3.62537 101.453L5.09552 101.75L5.24442 101.014L3.77427 100.718ZM3.59238 110.744L3.69452 110.001L2.20849 109.798L2.10635 110.541L3.59238 110.744ZM1.06058 120.449L1.00529 121.197L2.50121 121.306L2.5565 120.558L1.06058 120.449ZM2.13706 130.418L2.14553 129.668L0.645618 129.652L0.637149 130.402L2.13706 130.418ZM0.835034 140.363L0.873263 141.112L2.37132 141.034L2.33309 140.285L0.835034 140.363ZM3.14246 150.121L3.05775 149.376L1.56734 149.547L1.65205 150.292L3.14246 150.121ZM3.08472 160.149L3.21562 160.888L4.69261 160.625L4.5617 159.887L3.08472 160.149ZM6.58639 169.544L6.40968 168.815L4.9519 169.17L5.12862 169.898L6.58639 169.544ZM7.77836 179.501L8.00042 180.217L9.43317 179.772L9.21111 179.056L7.77836 179.501ZM12.4294 188.385L12.1626 187.684L10.7607 188.219L11.0275 188.92L12.4294 188.385ZM14.8657 198.111L15.1765 198.793L16.5417 198.17L16.2308 197.488L14.8657 198.111ZM20.6045 206.327L20.2506 205.666L18.9281 206.375L19.282 207.036L20.6045 206.327ZM24.2641 215.659L24.66 216.296L25.934 215.503L25.5381 214.867L24.2641 215.659ZM31.0165 223.069L30.58 222.46L29.3603 223.334L29.7968 223.943L31.0165 223.069ZM35.8629 231.853L36.3384 232.432L37.4983 231.48L37.0228 230.901L35.8629 231.853ZM43.5255 238.315L43.0129 237.768L41.918 238.794L42.4306 239.341L43.5255 238.315ZM49.4695 246.375L50.0169 246.887L51.0422 245.791L50.4947 245.279L49.4695 246.375ZM57.9098 251.774L57.3299 251.299L56.3786 252.459L56.9585 252.934L57.9098 251.774ZM64.8696 258.997L65.4792 259.434L66.353 258.214L65.7434 257.778L64.8696 258.997ZM73.9611 263.269L73.3246 262.873L72.531 264.146L73.1675 264.543L73.9611 263.269ZM81.7597 269.524L82.4199 269.879L83.1317 268.558L82.4716 268.203L81.7597 269.524ZM91.2886 272.604L90.6078 272.29L89.9787 273.652L90.6595 273.966L91.2886 272.604ZM99.8423 277.87L100.541 278.142L101.087 276.745L100.388 276.472L99.8423 277.87ZM109.687 279.79L108.973 279.559L108.509 280.986L109.223 281.217L109.687 279.79ZM118.74 284.013L119.465 284.204L119.849 282.754L119.124 282.563L118.74 284.013ZM128.754 284.826L128.02 284.674L127.715 286.143L128.449 286.295L128.754 284.826ZM138.257 288.06L138.999 288.174L139.227 286.692L138.486 286.578L138.257 288.06ZM148.238 287.832L147.492 287.754L147.336 289.246L148.082 289.324L148.238 287.832ZM158.052 290.123L158.801 290.166L158.887 288.668L158.138 288.626L158.052 290.123ZM167.971 288.965L167.221 288.955L167.201 290.455L167.951 290.465L167.971 288.965ZM178.195 290.394L178.945 290.378L178.913 288.878L178.163 288.895L178.195 290.394ZM188.288 288.542L187.539 288.579L187.61 290.077L188.359 290.041L188.288 288.542ZM198.527 289.405L199.275 289.347L199.16 287.852L198.412 287.91L198.527 289.405ZM208.57 286.967L207.825 287.048L207.986 288.539L208.732 288.458L208.57 286.967ZM218.88 287.183L219.622 287.077L219.411 285.592L218.668 285.698L218.88 287.183ZM228.703 284.08L227.965 284.213L228.23 285.689L228.968 285.557L228.703 284.08ZM238.986 283.56L239.719 283.399L239.398 281.934L238.666 282.095L238.986 283.56ZM248.542 279.725L247.816 279.914L248.194 281.366L248.92 281.176L248.542 279.725ZM258.751 278.397L259.469 278.178L259.033 276.743L258.315 276.962L258.751 278.397ZM267.968 273.805L267.26 274.052L267.755 275.468L268.463 275.221L267.968 273.805ZM278.038 271.657L278.736 271.382L278.186 269.986L277.488 270.262L278.038 271.657ZM286.864 266.352L286.177 266.654L286.779 268.027L287.466 267.726L286.864 266.352ZM296.745 263.456L297.421 263.131L296.771 261.78L296.095 262.105L296.745 263.456ZM305.187 257.556L304.522 257.902L305.212 259.233L305.878 258.887L305.187 257.556ZM314.878 254.064L315.535 253.701L314.81 252.388L314.154 252.751L314.878 254.064ZM323.011 247.738L322.362 248.114L323.112 249.412L323.762 249.036L323.011 247.738ZM332.55 243.857L333.194 243.472L332.424 242.185L331.781 242.57L332.55 243.857ZM340.492 237.297L339.852 237.688L340.633 238.968L341.273 238.577L340.492 237.297ZM349.959 233.244L350.597 232.85L349.811 231.573L349.173 231.967L349.959 233.244ZM357.851 226.624L357.211 227.016L357.996 228.294L358.635 227.902L357.851 226.624ZM367.328 222.592L367.969 222.203L367.192 220.92L366.551 221.309L367.328 222.592ZM375.294 216.06L374.649 216.443L375.414 217.733L376.059 217.35L375.294 216.06ZM384.846 212.207L385.496 211.833L384.747 210.533L384.097 210.908L384.846 212.207ZM392.975 205.879L392.319 206.244L393.047 207.554L393.703 207.19L392.975 205.879ZM402.642 202.319L403.304 201.965L402.598 200.642L401.936 200.995L402.642 202.319ZM410.99 196.273L410.321 196.614L411.001 197.95L411.67 197.61L410.99 196.273ZM420.794 193.075L421.469 192.747L420.816 191.398L420.141 191.725L420.794 193.075ZM429.395 187.357L428.713 187.671L429.338 189.034L430.02 188.72L429.395 187.357ZM439.291 184.578L439.979 184.28L439.382 182.904L438.694 183.203L439.291 184.578ZM448.075 179.244L447.381 179.528L447.949 180.916L448.643 180.632L448.075 179.244ZM458.091 176.873L458.791 176.603L458.252 175.204L457.552 175.474L458.091 176.873ZM467.132 171.889L466.427 172.144L466.938 173.554L467.643 173.299L467.132 171.889ZM477.275 169.913L477.985 169.671L477.502 168.251L476.792 168.493L477.275 169.913ZM486.433 165.314L485.718 165.542L486.174 166.971L486.888 166.742L486.433 165.314ZM496.638 163.745L497.358 163.535L496.938 162.095L496.218 162.306L496.638 163.745ZM505.86 159.647L505.134 159.835L505.509 161.287L506.235 161.099L505.86 159.647ZM515.952 158.741L516.683 158.576L516.354 157.113L515.622 157.278L515.952 158.741ZM525.384 155.233L524.647 155.375L524.931 156.848L525.667 156.705L525.384 155.233ZM535.528 154.966L536.269 154.848L536.033 153.366L535.293 153.485L535.528 154.966ZM545.2 152.066L544.455 152.16L544.643 153.649L545.387 153.554L545.2 152.066ZM555.292 152.465L556.039 152.395L555.9 150.901L555.153 150.971L555.292 152.465ZM565.162 150.203L564.413 150.248L564.502 151.745L565.251 151.7L565.162 150.203ZM575.187 151.267L575.937 151.247L575.897 149.747L575.147 149.767L575.187 151.267ZM585.183 149.663L584.433 149.658L584.423 151.158L585.173 151.163L585.183 149.663ZM595.144 151.391L595.894 151.421L595.954 149.922L595.204 149.892L595.144 151.391ZM605.183 150.452L604.435 150.398L604.325 151.894L605.073 151.948L605.183 150.452ZM615.027 152.837L615.772 152.916L615.931 151.424L615.186 151.345L615.027 152.837ZM625.131 152.565L624.388 152.461L624.18 153.947L624.923 154.051L625.131 152.565ZM634.752 155.583L635.491 155.71L635.747 154.232L635.008 154.105L634.752 155.583ZM644.872 155.972L644.138 155.82L643.834 157.289L644.569 157.441L644.872 155.972ZM654.302 159.609L655.032 159.783L655.382 158.325L654.653 158.15L654.302 159.609ZM664.341 160.632L663.618 160.435L663.222 161.882L663.945 162.079L664.341 160.632ZM673.533 164.859L674.25 165.079L674.691 163.645L673.974 163.425L673.533 164.859ZM683.51 166.513L682.8 166.271L682.315 167.691L683.025 167.933L683.51 166.513ZM692.404 171.289L693.106 171.553L693.633 170.148L692.931 169.885L692.404 171.289ZM702.253 173.541L701.559 173.257L700.99 174.645L701.684 174.93L702.253 173.541ZM710.866 178.851L711.551 179.156L712.162 177.785L711.476 177.48L710.866 178.851ZM720.567 181.683L719.891 181.358L719.241 182.71L719.917 183.035L720.567 181.683ZM728.829 187.473L729.495 187.817L730.184 186.484L729.517 186.14L728.829 187.473ZM738.359 190.865L737.702 190.503L736.976 191.815L737.632 192.178L738.359 190.865ZM746.299 197.134L746.945 197.515L747.708 196.223L747.063 195.842L746.299 197.134ZM755.611 201.057L754.976 200.657L754.177 201.927L754.811 202.326L755.611 201.057ZM763.162 207.749L763.785 208.166L764.62 206.92L763.997 206.503L763.162 207.749ZM772.238 212.191L771.627 211.757L770.757 212.979L771.368 213.414L772.238 212.191ZM779.425 219.319L780.023 219.771L780.928 218.574L780.329 218.122L779.425 219.319ZM788.241 224.276L787.655 223.807L786.717 224.978L787.302 225.447L788.241 224.276ZM794.991 231.793L795.562 232.279L796.535 231.136L795.963 230.65L794.991 231.793ZM803.489 237.245L802.933 236.742L801.927 237.856L802.484 238.358L803.489 237.245ZM809.768 245.143L810.309 245.662L811.349 244.58L810.808 244.061L809.768 245.143ZM817.911 251.106L817.387 250.569L816.313 251.617L816.837 252.154L817.911 251.106ZM823.686 259.412L824.191 259.966L825.3 258.955L824.795 258.401L823.686 259.412ZM831.414 265.931L830.929 265.359L829.784 266.329L830.269 266.901L831.414 265.931ZM836.554 274.628L837.015 275.22L838.198 274.297L837.737 273.705L836.554 274.628ZM843.719 281.733L843.285 281.122L842.062 281.991L842.496 282.602L843.719 281.733ZM848.064 290.882L848.465 291.515L849.732 290.711L849.331 290.078L848.064 290.882ZM854.461 298.749L854.101 298.092L852.786 298.813L853.146 299.471L854.461 298.749ZM72.594 0.869305C71.176 1.7809 69.7794 2.70866 68.4042 3.65209L69.2522 4.88879C70.615 3.95387 71.9991 3.03441 73.4046 2.1309L72.594 0.869305ZM60.3874 9.5144C57.7378 11.5783 55.1782 13.7043 52.7083 15.8883L53.7015 17.0117C56.148 14.8484 58.6836 12.7423 61.3087 10.6975L60.3874 9.5144ZM45.4471 22.7307C43.0864 25.1016 40.8209 27.5297 38.65 30.0104L39.7785 30.9978C41.9282 28.5412 44.1718 26.1367 46.5097 23.7887L45.4471 22.7307ZM32.3425 37.7081C30.3087 40.3616 28.3744 43.0659 26.5392 45.8158L27.7867 46.6479C29.6038 43.9251 31.5191 41.2475 33.5329 38.62L32.3425 37.7081ZM21.2768 54.2898C19.6105 57.1802 18.0465 60.1129 16.5843 63.0825L17.9299 63.7444C19.3778 60.804 20.9264 57.9002 22.5762 55.0382L21.2768 54.2898ZM12.4768 72.1589C11.2032 75.2357 10.0334 78.3449 8.96684 81.4812L10.3869 81.9633C11.4431 78.8575 12.6015 75.7785 13.8627 72.7318L12.4768 72.1589ZM6.0627 91.0166C5.19554 94.2301 4.43292 97.4656 3.77427 100.718L5.24442 101.014C5.89677 97.7935 6.65208 94.589 7.51089 91.4064L6.0627 91.0166ZM2.10635 110.541C1.65363 113.835 1.30523 117.139 1.06058 120.449L2.5565 120.558C2.79885 117.28 3.14396 114.007 3.59238 110.744L2.10635 110.541ZM0.637149 130.402C0.599629 133.725 0.66578 137.047 0.835034 140.363L2.33309 140.285C2.16542 137 2.0999 133.709 2.13706 130.418L0.637149 130.402ZM1.65205 150.292C2.02718 153.591 2.50492 156.879 3.08472 160.149L4.5617 159.887C3.98734 156.647 3.51408 153.39 3.14246 150.121L1.65205 150.292ZM5.12862 169.898C5.91082 173.124 6.79425 176.327 7.77836 179.501L9.21111 179.056C8.23633 175.912 7.36123 172.739 6.58639 169.544L5.12862 169.898ZM11.0275 188.92C12.2077 192.019 13.4873 195.085 14.8657 198.111L16.2308 197.488C14.8657 194.491 13.5983 191.455 12.4294 188.385L11.0275 188.92ZM19.282 207.036C20.846 209.957 22.5068 212.833 24.2641 215.659L25.5381 214.867C23.798 212.068 22.1533 209.22 20.6045 206.327L19.282 207.036ZM29.7968 223.943C31.7251 226.636 33.7473 229.274 35.8629 231.853L37.0228 230.901C34.9282 228.348 32.9259 225.735 31.0165 223.069L29.7968 223.943ZM42.4306 239.341C44.6877 241.75 47.0342 244.096 49.4695 246.375L50.4947 245.279C48.0835 243.023 45.7603 240.7 43.5255 238.315L42.4306 239.341ZM56.9585 252.934C59.5113 255.026 62.1485 257.049 64.8696 258.997L65.7434 257.778C63.0488 255.848 60.4374 253.845 57.9098 251.774L56.9585 252.934ZM73.1675 264.543C75.954 266.278 78.8182 267.94 81.7597 269.524L82.4716 268.203C79.5577 266.634 76.7208 264.988 73.9611 263.269L73.1675 264.543ZM90.6595 273.966C93.6488 275.345 96.7099 276.648 99.8423 277.87L100.388 276.472C97.2839 275.261 94.2505 273.97 91.2886 272.604L90.6595 273.966ZM109.223 281.217C112.331 282.226 115.504 283.159 118.74 284.013L119.124 282.563C115.914 281.716 112.768 280.791 109.687 279.79L109.223 281.217ZM128.449 286.295C131.661 286.96 134.93 287.549 138.257 288.06L138.486 286.578C135.185 286.07 131.94 285.485 128.754 284.826L128.449 286.295ZM148.082 289.324C151.353 289.664 154.677 289.932 158.052 290.123L158.138 288.626C154.786 288.435 151.486 288.17 148.238 287.832L148.082 289.324ZM167.951 290.465C169.624 290.486 171.31 290.489 173.007 290.474L172.995 288.974C171.308 288.989 169.633 288.986 167.971 288.965L167.951 290.465ZM173.007 290.474C174.754 290.458 176.483 290.431 178.195 290.394L178.163 288.895C176.458 288.932 174.735 288.958 172.995 288.974L173.007 290.474ZM188.359 290.041C191.82 289.874 195.207 289.661 198.527 289.405L198.412 287.91C195.108 288.165 191.734 288.376 188.288 288.542L188.359 290.041ZM208.732 288.458C212.189 288.082 215.57 287.656 218.88 287.183L218.668 285.698C215.375 286.169 212.011 286.593 208.57 286.967L208.732 288.458ZM228.968 285.557C232.381 284.943 235.719 284.276 238.986 283.56L238.666 282.095C235.417 282.807 232.098 283.47 228.703 284.08L228.968 285.557ZM248.92 281.176C252.267 280.302 255.542 279.375 258.751 278.397L258.315 276.962C255.124 277.934 251.869 278.856 248.542 279.725L248.92 281.176ZM268.463 275.221C271.714 274.084 274.903 272.895 278.038 271.657L277.488 270.262C274.371 271.492 271.201 272.675 267.968 273.805L268.463 275.221ZM287.466 267.726C290.603 266.349 293.693 264.924 296.745 263.456L296.095 262.105C293.058 263.565 289.985 264.983 286.864 266.352L287.466 267.726ZM305.878 258.887C308.902 257.318 311.899 255.708 314.878 254.064L314.154 252.751C311.185 254.39 308.2 255.993 305.187 257.556L305.878 258.887ZM323.762 249.036C326.695 247.338 329.621 245.611 332.55 243.857L331.781 242.57C328.856 244.321 325.936 246.045 323.011 247.738L323.762 249.036ZM341.273 238.577C344.152 236.818 347.044 235.039 349.959 233.244L349.173 231.967C346.258 233.762 343.368 235.54 340.492 237.297L341.273 238.577ZM358.635 227.902C361.5 226.142 364.394 224.371 367.328 222.592L366.551 221.309C363.614 223.091 360.717 224.863 357.851 226.624L358.635 227.902ZM376.059 217.35C378.942 215.639 381.869 213.923 384.846 212.207L384.097 210.908C381.114 212.628 378.182 214.346 375.294 216.06L376.059 217.35ZM393.703 207.19C396.628 205.563 399.605 203.939 402.642 202.319L401.936 200.995C398.892 202.62 395.907 204.248 392.975 205.879L393.703 207.19ZM411.67 197.61C414.651 196.091 417.691 194.578 420.794 193.075L420.141 191.725C417.028 193.233 413.98 194.75 410.99 196.273L411.67 197.61ZM430.02 188.72C433.048 187.33 436.137 185.948 439.291 184.578L438.694 183.203C435.53 184.577 432.432 185.962 429.395 187.357L430.02 188.72ZM448.643 180.632C451.73 179.367 454.878 178.113 458.091 176.873L457.552 175.474C454.329 176.718 451.171 177.975 448.075 179.244L448.643 180.632ZM467.643 173.299C470.792 172.157 474.001 171.028 477.275 169.913L476.792 168.493C473.509 169.611 470.29 170.743 467.132 171.889L467.643 173.299ZM486.888 166.742C488.515 166.223 490.157 165.707 491.815 165.195L491.373 163.762C489.711 164.275 488.064 164.793 486.433 165.314L486.888 166.742ZM491.815 165.195C493.425 164.698 495.033 164.214 496.638 163.745L496.218 162.306C494.606 162.777 492.991 163.262 491.373 163.762L491.815 165.195ZM506.235 161.099C509.486 160.256 512.725 159.471 515.952 158.741L515.622 157.278C512.38 158.011 509.126 158.8 505.86 159.647L506.235 161.099ZM525.667 156.705C528.968 156.068 532.255 155.489 535.528 154.966L535.293 153.485C532.003 154.01 528.7 154.592 525.384 155.233L525.667 156.705ZM545.387 153.554C548.704 153.134 552.006 152.772 555.292 152.465L555.153 150.971C551.851 151.28 548.533 151.644 545.2 152.066L545.387 153.554ZM565.251 151.7C568.58 151.5 571.892 151.356 575.187 151.267L575.147 149.767C571.836 149.857 568.507 150.001 565.162 150.203L565.251 151.7ZM585.173 151.163C588.516 151.184 591.84 151.261 595.144 151.391L595.204 149.892C591.884 149.761 588.543 149.684 585.183 149.663L585.173 151.163ZM605.073 151.948C608.412 152.191 611.73 152.488 615.027 152.837L615.186 151.345C611.873 150.994 608.539 150.696 605.183 150.452L605.073 151.948ZM624.923 154.051C628.223 154.51 631.5 155.022 634.752 155.583L635.008 154.105C631.74 153.541 628.447 153.027 625.131 152.565L624.923 154.051ZM644.569 157.441C647.839 158.114 651.084 158.838 654.302 159.609L654.653 158.15C651.419 157.375 648.159 156.649 644.872 155.972L644.569 157.441ZM663.945 162.079C667.17 162.96 670.366 163.887 673.533 164.859L673.974 163.425C670.792 162.449 667.581 161.517 664.341 160.632L663.945 162.079ZM683.025 167.933C686.183 169.009 689.309 170.129 692.404 171.289L692.931 169.885C689.823 168.719 686.682 167.594 683.51 166.513L683.025 167.933ZM701.684 174.93C704.779 176.197 707.84 177.505 710.866 178.851L711.476 177.48C708.437 176.129 705.362 174.815 702.253 173.541L701.684 174.93ZM719.917 183.035C722.925 184.479 725.896 185.96 728.829 187.473L729.517 186.14C726.572 184.62 723.588 183.133 720.567 181.683L719.917 183.035ZM737.632 192.178C740.563 193.799 743.452 195.452 746.299 197.134L747.063 195.842C744.204 194.153 741.302 192.493 738.359 190.865L737.632 192.178ZM754.811 202.326C757.641 204.108 760.425 205.917 763.162 207.749L763.997 206.503C761.249 204.662 758.453 202.846 755.611 201.057L754.811 202.326ZM771.368 213.414C774.106 215.361 776.792 217.331 779.425 219.319L780.329 218.122C777.685 216.125 774.988 214.147 772.238 212.191L771.368 213.414ZM787.302 225.447C789.924 227.548 792.488 229.665 794.991 231.793L795.963 230.65C793.449 228.512 790.874 226.386 788.241 224.276L787.302 225.447ZM802.484 238.358C804.98 240.613 807.409 242.876 809.768 245.143L810.808 244.061C808.438 241.783 805.997 239.51 803.489 237.245L802.484 238.358ZM816.837 252.154C819.202 254.577 821.486 256.998 823.686 259.412L824.795 258.401C822.583 255.975 820.288 253.541 817.911 251.106L816.837 252.154ZM830.269 266.901C832.465 269.496 834.561 272.074 836.554 274.628L837.737 273.705C835.731 271.135 833.623 268.541 831.414 265.931L830.269 266.901ZM842.496 282.602C844.487 285.406 846.344 288.169 848.064 290.882L849.331 290.078C847.596 287.342 845.725 284.557 843.719 281.733L842.496 282.602Z" fill="#8BBD4E"/>
</svg>
