<svg width="32" height="32" viewBox="0 0 32 32" fill="none" xmlns="http://www.w3.org/2000/svg">
<path d="M14 27.8667C8.33333 26.8667 4 21.9333 4 16C4 9.4 9.4 4 16 4C22.6 4 28 9.4 28 16C28 21.9333 23.6667 26.8667 18 27.8667L17.3333 27.3333H14.6667L14 27.8667Z" fill="url(#paint0_linear)"/>
<path d="M20.6667 19.3332L21.2 15.9998H18V13.6665C18 12.7332 18.3333 11.9998 19.8 11.9998H21.3333V8.93317C20.4667 8.79984 19.5333 8.6665 18.6667 8.6665C15.9333 8.6665 14 10.3332 14 13.3332V15.9998H11V19.3332H14V27.7998C14.6667 27.9332 15.3333 27.9998 16 27.9998C16.6667 27.9998 17.3333 27.9332 18 27.7998V19.3332H20.6667Z" fill="white"/>
<defs>
<linearGradient id="paint0_linear" x1="16" y1="27.1693" x2="16" y2="4" gradientUnits="userSpaceOnUse">
<stop stop-color="#0062E0"/>
<stop offset="1" stop-color="#19AFFF"/>
</linearGradient>
</defs>
</svg>
