<svg width="359" height="121" viewBox="0 0 359 121" fill="none" xmlns="http://www.w3.org/2000/svg">
<path d="M0.5 97.4989L6.2492 96.9697L2.91629 92.2554L0.5 97.4989ZM358.981 120.427C358.703 119.455 357.807 117.994 356.405 116.179C354.987 114.344 353.006 112.092 350.494 109.525C345.469 104.391 338.297 97.981 329.2 91.113C311.004 77.3771 285.083 61.7947 253.176 50.9161C189.344 29.1521 101.583 26.2275 3.87115 94.5033L4.44392 95.323C101.87 27.247 189.293 30.1913 252.854 51.8626C284.644 62.7015 310.471 78.2282 328.597 91.9111C337.66 98.7526 344.793 105.13 349.779 110.224C352.273 112.772 354.226 114.995 355.614 116.791C357.017 118.607 357.8 119.934 358.019 120.701L358.981 120.427Z" fill="#FEB00A" fill-opacity="0.6"/>
<path d="M126.942 32.1827C126.295 32.8186 125.52 33.2874 124.616 33.589C123.596 33.929 122.582 34.0114 121.574 33.8362C121.239 33.765 121.023 33.5814 120.924 33.2855C120.847 33.0553 120.861 32.7949 120.965 32.5044C121.08 32.1919 121.233 31.9672 121.425 31.8301C121.617 31.693 121.828 31.5861 122.058 31.5093C122.321 31.4216 122.743 31.3448 123.324 31.2789C123.905 31.213 124.327 31.1362 124.59 31.0484C124.87 30.9552 125.111 30.8291 125.314 30.6701C125.396 30.6427 125.495 30.555 125.61 30.407C125.741 30.2535 125.766 30.163 125.684 30.1356C125.278 29.6314 124.283 29.3329 122.699 29.24C121.263 29.1525 120.449 28.821 120.257 28.2455C120.191 28.0482 120.164 27.829 120.175 27.5878C120.257 27.1767 120.561 26.719 121.087 26.2146C121.8 25.5019 122.208 25.0825 122.312 24.9564C121.978 24.8852 121.506 24.9511 120.898 25.154C120.306 25.3514 119.856 25.4008 119.549 25.3022C119.237 25.1872 119.029 24.9734 118.924 24.661C118.809 24.3157 118.839 23.9677 119.015 23.6168C119.206 23.2605 119.483 23.022 119.845 22.9014C121.062 22.6052 121.774 22.4406 121.983 22.4077C122.799 22.2815 123.498 22.295 124.079 22.4484C124.671 22.5798 125.033 22.8429 125.165 23.2375C125.302 23.6486 125.176 24.257 124.787 25.0628C124.463 25.6823 124.132 26.3045 123.792 26.9294C123.885 26.9349 124.017 27.0006 124.187 27.1267C124.373 27.2472 124.516 27.3184 124.614 27.3404C126.193 27.1427 127.339 27.5372 128.051 28.5237C128.156 28.6717 128.235 28.8279 128.29 28.9923C128.597 29.9131 128.148 30.9766 126.942 32.1827Z" fill="#715C4A"/>
<path d="M137.157 31.1991C136.52 31.3634 135.987 31.2054 135.559 30.725C134.968 29.8926 134.517 28.8722 134.206 27.6637C134.024 26.9587 133.829 25.8544 133.621 24.3509C133.429 22.843 133.238 21.7198 133.048 20.9812C132.979 20.7126 133.042 20.3654 133.236 19.9394C133.431 19.5133 133.704 19.2549 134.057 19.1641C134.443 19.0647 134.832 19.1522 135.225 19.4269C135.618 19.7015 135.82 20.0343 135.831 20.4252C135.96 22.5221 136.286 24.5861 136.809 26.6171C136.969 27.2381 137.15 27.8716 137.353 28.5176C137.434 28.6936 137.61 28.8899 137.88 29.1066C138.146 29.3065 138.299 29.4819 138.338 29.633C138.368 29.7505 138.357 29.8788 138.303 30.0179C138.058 30.4569 137.915 30.6997 137.873 30.7462C137.698 30.9703 137.46 31.1212 137.157 31.1991Z" fill="#715C4A"/>
<path d="M146.637 17.5482C146.923 16.4041 147.209 15.2601 147.494 14.1161C147.997 12.6155 148.718 11.7801 149.656 11.6099C149.98 11.5511 150.27 11.5954 150.525 11.7428C150.795 11.87 150.956 12.0786 151.009 12.3686C151.046 12.5732 151.025 12.7972 150.946 13.0406C150.08 15.4526 149.221 17.8546 148.369 20.2464C147.421 23.0785 146.791 25.5798 146.48 27.7502C146.447 28.2493 146.118 28.7143 145.491 29.1451C145.336 29.2613 145.165 29.3364 144.977 29.3705C144.67 29.4262 144.394 29.3617 144.15 29.1772C143.922 28.9895 143.814 28.736 143.827 28.4166C143.869 26.8058 144.205 24.9657 144.833 22.8962C145.426 21.1151 146.027 19.3324 146.637 17.5482Z" fill="#715C4A"/>
<path d="M161.293 26.8536C160.639 26.9238 160.134 26.6902 159.78 26.1529C159.317 25.2438 159.018 24.1688 158.885 22.9279C158.808 22.2041 158.775 21.0832 158.786 19.5653C158.815 18.0456 158.789 16.9066 158.707 16.1483C158.678 15.8725 158.79 15.538 159.044 15.1446C159.299 14.7513 159.607 14.5352 159.969 14.4964C160.365 14.4539 160.738 14.597 161.087 14.9256C161.436 15.2543 161.587 15.6128 161.542 16.0012C161.365 18.0946 161.389 20.184 161.613 22.2694C161.681 22.9071 161.768 23.5602 161.875 24.2286C161.93 24.4145 162.075 24.6342 162.312 24.8878C162.546 25.1242 162.672 25.3199 162.688 25.475C162.701 25.5956 162.671 25.7209 162.598 25.8508C162.292 26.2497 162.115 26.4691 162.067 26.5091C161.862 26.7055 161.604 26.8203 161.293 26.8536Z" fill="#715C4A"/>
<path d="M176.795 23.4414C175.751 24.5287 174.657 25.0886 173.513 25.121C172.924 25.1377 172.374 25.0059 171.863 24.7256C170.912 24.1976 170.137 23.4653 169.538 22.5285C168.956 21.574 168.65 20.5596 168.62 19.4853C168.575 17.926 169.21 16.4514 170.523 15.0617C171.836 13.6546 173.272 12.929 174.831 12.8848C176.096 12.8489 177.213 13.4242 178.183 14.6105C178.937 15.5082 179.33 16.5288 179.362 17.6724C179.418 19.6476 178.563 21.5706 176.795 23.4414ZM175.379 21.1926C176.195 20.0077 176.591 18.9994 176.567 18.1677C176.555 17.7346 176.431 17.3392 176.196 16.9818C175.707 16.25 175.185 15.892 174.631 15.9077C173.886 15.9288 173.21 16.2427 172.602 16.8495C172.013 17.4558 171.694 18.1237 171.645 18.8534C171.578 19.5489 171.709 20.2041 172.039 20.819C172.385 21.4161 172.865 21.836 173.479 22.0788C173.637 22.161 173.812 22.1994 174.002 22.194C174.488 22.1802 174.946 21.8464 175.379 21.1926Z" fill="#715C4A"/>
<path d="M190.451 14.9653C191.004 13.9243 191.558 12.8833 192.112 11.8422C192.963 10.5078 193.864 9.87136 194.815 9.93299C195.144 9.95429 195.414 10.0673 195.627 10.2722C195.858 10.4608 195.964 10.7022 195.945 10.9963C195.931 11.2038 195.857 11.4161 195.721 11.6331C194.298 13.7642 192.883 15.8872 191.478 18.0021C189.873 20.521 188.658 22.7958 187.831 24.8266C187.679 25.3031 187.247 25.6746 186.535 25.9411C186.356 26.0164 186.172 26.0479 185.981 26.0356C185.67 26.0154 185.418 25.8861 185.225 25.6478C185.049 25.4106 185.006 25.1386 185.095 24.8318C185.526 23.279 186.297 21.5746 187.407 19.7185C188.413 18.1336 189.427 16.5492 190.451 14.9653Z" fill="#715C4A"/>
<path d="M201.575 26.5423C201.04 26.3712 200.825 25.9517 200.929 25.2837C200.988 24.907 201.116 24.5936 201.313 24.3436C201.884 23.6082 202.786 22.828 204.02 22.0031C205.642 20.9405 206.666 20.2232 207.093 19.8511C207.115 19.8196 207.131 19.7781 207.139 19.7267C207.155 19.624 207.033 19.3944 206.772 19.038C206.583 18.9032 206.257 18.7997 205.795 18.7275C205.352 18.6409 205.026 18.5374 204.817 18.417C204.627 18.2822 204.447 18.2014 204.276 18.1747C204.07 18.1426 203.808 18.1895 203.491 18.3153C203.173 18.4411 202.92 18.4894 202.731 18.46C202.526 18.4279 202.305 18.3233 202.07 18.1462C201.753 17.816 201.642 17.3427 201.739 16.7262C201.776 16.4864 201.842 16.2335 201.936 15.9675C202.215 15.4146 202.723 15.1957 203.459 15.3106C203.631 15.3373 203.868 15.3919 204.171 15.4742C204.491 15.5593 204.711 15.6111 204.831 15.6298C206.766 15.9319 208.13 16.4079 208.923 17.058C209.55 17.5417 209.907 17.8344 209.997 17.936C210.403 18.3678 210.574 18.7893 210.51 19.2003C210.491 19.3202 210.444 19.4532 210.369 19.5993C209.626 21.0974 207.964 22.5309 205.382 23.8998C205.065 24.131 204.896 24.3152 204.875 24.4522C204.861 24.5378 204.94 24.594 205.112 24.6207C205.781 24.8304 206.622 25.0582 207.636 25.3042C208.213 25.4293 209.053 25.727 210.155 26.1972C210.241 26.2106 210.35 26.2978 210.482 26.4588C210.618 26.6028 210.675 26.7433 210.654 26.8803C210.666 27.2506 210.534 27.5897 210.258 27.8974C209.985 28.1881 209.678 28.3508 209.34 28.3857C208.259 28.3399 207.393 28.2662 206.743 28.1646C206.092 28.063 205.368 27.871 204.57 27.5886C202.939 27.0184 201.941 26.6697 201.575 26.5423Z" fill="#715C4A"/>
<path d="M224.083 29.4445C222.779 30.2021 221.573 30.439 220.465 30.1551C219.894 30.0089 219.402 29.7307 218.988 29.3205C218.219 28.5509 217.676 27.6334 217.358 26.568C217.062 25.49 217.047 24.4305 217.313 23.3895C217.7 21.8782 218.717 20.6355 220.362 19.6613C222.011 18.6702 223.592 18.3682 225.103 18.7553C226.329 19.0693 227.244 19.9301 227.85 21.3377C228.327 22.4083 228.424 23.4977 228.14 24.6059C227.65 26.5201 226.297 28.133 224.083 29.4445ZM223.341 26.8925C224.452 25.9783 225.11 25.1181 225.317 24.3122C225.424 23.8924 225.414 23.4782 225.286 23.0697C225.018 22.2315 224.615 21.7437 224.077 21.606C223.355 21.4211 222.619 21.5367 221.868 21.9527C221.134 22.3731 220.643 22.9273 220.396 23.6153C220.14 24.2655 220.085 24.9315 220.233 25.6134C220.401 26.2828 220.747 26.8187 221.27 27.2211C221.4 27.3438 221.557 27.4288 221.742 27.4761C222.212 27.5965 222.745 27.402 223.341 26.8925Z" fill="#715C4A"/>
<path d="M233.244 33.9211C232.752 33.6511 232.621 33.1982 232.851 32.5625C232.98 32.2038 233.165 31.9206 233.406 31.7127C234.107 31.0997 235.142 30.5059 236.51 29.9314C238.305 29.1975 239.447 28.6887 239.937 28.4048C239.965 28.3781 239.988 28.3403 240.005 28.2914C240.041 28.1936 239.965 27.9449 239.777 27.5455C239.617 27.377 239.317 27.2133 238.877 27.0542C238.459 26.8848 238.158 26.7211 237.976 26.563C237.816 26.3945 237.654 26.2808 237.491 26.2219C237.295 26.1513 237.03 26.1474 236.694 26.2103C236.358 26.2732 236.1 26.2722 235.921 26.2074C235.725 26.1368 235.528 25.9921 235.331 25.7733C235.083 25.3888 235.065 24.9031 235.277 24.3162C235.359 24.088 235.472 23.8523 235.615 23.6091C235.995 23.1196 236.535 23.0015 237.236 23.2548C237.399 23.3137 237.621 23.4124 237.903 23.551C238.201 23.6955 238.407 23.7884 238.521 23.8296C240.363 24.4951 241.612 25.2226 242.266 26.012C242.789 26.6062 243.084 26.9618 243.153 27.0786C243.469 27.58 243.557 28.0263 243.415 28.4175C243.374 28.5316 243.303 28.6532 243.201 28.7823C242.186 30.1113 240.281 31.2015 237.485 32.0529C237.13 32.2195 236.929 32.3681 236.882 32.4985C236.853 32.58 236.92 32.6502 237.083 32.7091C237.699 33.0425 238.482 33.4266 239.431 33.8615C239.973 34.0943 240.741 34.5466 241.733 35.2183C241.814 35.2478 241.905 35.3542 242.004 35.5376C242.11 35.7048 242.139 35.8535 242.092 35.9839C242.033 36.3498 241.839 36.6575 241.51 36.907C241.186 37.1402 240.854 37.2416 240.515 37.2112C239.463 36.9602 238.627 36.7228 238.008 36.499C237.388 36.2752 236.714 35.9486 235.984 35.5191C234.493 34.6485 233.58 34.1159 233.244 33.9211Z" fill="#715C4A"/>
<path d="M248.486 40.843C247.885 40.5731 247.568 40.1168 247.533 39.4743C247.592 38.4555 247.877 37.377 248.389 36.2386C248.687 35.5745 249.224 34.5902 250 33.2857C250.792 31.9883 251.345 30.9918 251.657 30.2961C251.771 30.0431 252.037 29.811 252.454 29.5997C252.872 29.3885 253.247 29.3574 253.579 29.5066C253.943 29.67 254.193 29.9816 254.328 30.4415C254.463 30.9014 254.414 31.2875 254.178 31.5998C252.969 33.3179 251.935 35.1336 251.075 37.0467C250.813 37.6317 250.558 38.2396 250.313 38.8704C250.267 39.0585 250.281 39.3217 250.357 39.6599C250.441 39.9823 250.45 40.2147 250.386 40.357C250.337 40.4677 250.247 40.5606 250.119 40.6357C249.653 40.8257 249.39 40.9258 249.328 40.9361C249.051 41.0019 248.771 40.9709 248.486 40.843Z" fill="#715C4A"/>
</svg>
