<svg width="1222" height="110" viewBox="0 0 1222 110" fill="none" xmlns="http://www.w3.org/2000/svg">
<path d="M778.619 65.3217C778.619 65.8563 778.46 66.3788 778.163 66.8233C777.866 67.2678 777.444 67.6143 776.95 67.8189C776.456 68.0235 775.913 68.077 775.389 67.9727C774.864 67.8684 774.383 67.611 774.005 67.2329C773.627 66.8549 773.369 66.3733 773.265 65.849C773.16 65.3247 773.214 64.7812 773.419 64.2873C773.623 63.7934 773.97 63.3712 774.414 63.0742C774.859 62.7772 775.381 62.6187 775.916 62.6187C776.633 62.6187 777.32 62.9035 777.827 63.4104C778.334 63.9173 778.619 64.6048 778.619 65.3217ZM800.243 68.0246C800.777 68.0246 801.3 67.8661 801.744 67.5691C802.189 67.2721 802.535 66.8499 802.74 66.356C802.944 65.8621 802.998 65.3187 802.894 64.7943C802.789 64.27 802.532 63.7884 802.154 63.4104C801.776 63.0323 801.294 62.7749 800.77 62.6706C800.246 62.5663 799.702 62.6199 799.208 62.8244C798.714 63.029 798.292 63.3755 797.995 63.82C797.698 64.2645 797.54 64.7871 797.54 65.3217C797.54 66.0385 797.824 66.726 798.331 67.2329C798.838 67.7399 799.526 68.0246 800.243 68.0246ZM822.905 65.4284C822.371 65.6733 821.79 65.8008 821.201 65.8024C820.591 65.8005 819.989 65.6587 819.441 65.388C818.894 65.1172 818.416 64.7247 818.043 64.2405L816.46 62.2261V80.188C816.457 83.4128 815.174 86.5045 812.894 88.7848C810.614 91.0651 807.522 92.3478 804.297 92.3514H771.861C768.637 92.3478 765.545 91.0651 763.265 88.7848C760.984 86.5045 759.702 83.4128 759.698 80.188V62.2261L758.115 64.2405C757.743 64.7247 757.265 65.1172 756.717 65.3879C756.17 65.6587 755.568 65.8005 754.957 65.8024C754.369 65.8008 753.788 65.6733 753.253 65.4284C752.42 65.0622 751.737 64.4226 751.316 63.6152C750.896 62.8079 750.764 61.8814 750.942 60.9888L756.489 31.4024C756.591 30.8591 756.803 30.3423 757.112 29.8839C757.421 29.4255 757.82 29.0351 758.286 28.7367C758.751 28.4383 759.273 28.2382 759.818 28.1487C760.364 28.0592 760.922 28.0822 761.458 28.2163L780.136 32.886H796.022L814.701 28.2166C815.237 28.0826 815.795 28.0596 816.34 28.1491C816.886 28.2386 817.407 28.4386 817.873 28.7369C818.338 29.0353 818.737 29.4256 819.046 29.8839C819.355 30.3422 819.567 30.8588 819.669 31.4021L825.216 60.9885C825.394 61.881 825.262 62.8076 824.842 63.6149C824.422 64.4222 823.738 65.0622 822.905 65.4284ZM777.619 35.0426L760.803 30.8385C760.694 30.8112 760.583 30.7974 760.471 30.7973C760.156 30.7986 759.852 30.9094 759.61 31.1108C759.368 31.3122 759.204 31.5916 759.146 31.9008L753.599 61.4865C753.543 61.7837 753.589 62.0911 753.728 62.3593C753.868 62.6276 754.094 62.8413 754.369 62.9662C754.644 63.0911 754.954 63.12 755.248 63.0483C755.541 62.9766 755.803 62.8084 755.99 62.5707L777.619 35.0426ZM813.757 58.7859L795.531 35.589H780.627L762.401 58.7859V80.188C762.404 82.6962 763.401 85.1009 765.175 86.8744C766.948 88.648 769.353 89.6456 771.861 89.6484H786.728V83.4508L781.718 78.4409C781.464 78.1874 781.322 77.8437 781.322 77.4853C781.322 77.1268 781.464 76.783 781.717 76.5295C781.971 76.276 782.315 76.1336 782.673 76.1335C783.031 76.1334 783.375 76.2758 783.629 76.5292L788.079 80.9796L792.53 76.5292C792.783 76.2758 793.127 76.1334 793.485 76.1335C793.844 76.1336 794.188 76.276 794.441 76.5295C794.694 76.783 794.837 77.1268 794.837 77.4853C794.837 77.8437 794.694 78.1874 794.441 78.4409L789.431 83.4508V89.6484H804.297C806.805 89.6456 809.21 88.648 810.983 86.8744C812.757 85.1009 813.755 82.6962 813.757 80.188V58.7859ZM822.56 61.4865L817.012 31.9004C816.978 31.7193 816.908 31.5471 816.805 31.3943C816.702 31.2415 816.569 31.1113 816.414 31.0119C816.258 30.9124 816.085 30.8457 815.903 30.8159C815.721 30.7861 815.535 30.7938 815.356 30.8385L798.54 35.0426L820.169 62.5707C820.356 62.8085 820.617 62.9767 820.911 63.0484C821.205 63.1201 821.514 63.0912 821.79 62.9662C822.065 62.8413 822.291 62.6275 822.43 62.3592C822.57 62.0908 822.615 61.7838 822.56 61.4865Z" fill="#4F8A00"/>
<path d="M706.368 44.599C715.078 59.682 709.91 78.9686 694.827 87.6754C679.744 96.3852 660.457 91.2167 651.75 76.1337C643.04 61.0507 648.209 41.7609 663.292 33.0573C678.375 24.3475 697.662 29.516 706.368 44.599Z" stroke="#4F8A00" stroke-width="3" stroke-linecap="round" stroke-linejoin="round"/>
<path d="M708.891 70.5899C693.168 60.174 684.982 45.9928 685.12 29.4182" stroke="#4F8A00" stroke-width="3" stroke-linecap="round" stroke-linejoin="round"/>
<path d="M672.998 91.3145C671.838 72.4883 663.651 58.3071 649.228 50.1428" stroke="#4F8A00" stroke-width="3" stroke-linecap="round" stroke-linejoin="round"/>
<path d="M898.193 69.1196L922.803 44.5141C921.778 43.4897 921.022 42.2284 920.601 40.8419C920.181 39.4554 920.108 37.9865 920.391 36.5653C920.673 35.1441 921.301 33.8145 922.22 32.6943C923.139 31.574 924.321 30.6977 925.659 30.1429C926.998 29.5881 928.452 29.372 929.894 29.5137C931.336 29.6553 932.721 30.1505 933.926 30.9552C935.131 31.7599 936.119 32.8493 936.802 34.127C937.486 35.4047 937.844 36.8312 937.844 38.2802C939.293 38.2791 940.721 38.6356 941.999 39.3181C943.278 40.0005 944.368 40.9878 945.174 42.1925C945.98 43.3972 946.476 44.7821 946.619 46.2244C946.761 47.6667 946.546 49.1219 945.992 50.4611C945.438 51.8002 944.562 52.982 943.441 53.9017C942.321 54.8213 940.991 55.4504 939.57 55.7333C938.148 56.0161 936.679 55.9439 935.292 55.5232C933.905 55.1024 932.644 54.346 931.619 53.321L915.816 69.1196" stroke="#4F8A00" stroke-width="2.7" stroke-linecap="round" stroke-linejoin="round"/>
<path d="M907.129 60.3083L891.331 44.5141C892.356 43.4897 893.112 42.2284 893.533 40.8419C893.954 39.4554 894.026 37.9865 893.744 36.5653C893.461 35.1441 892.833 33.8145 891.914 32.6943C890.995 31.574 889.814 30.6977 888.475 30.1429C887.136 29.5881 885.682 29.372 884.24 29.5137C882.798 29.6553 881.413 30.1505 880.208 30.9552C879.003 31.7599 878.015 32.8493 877.332 34.127C876.648 35.4047 876.29 36.8312 876.29 38.2802C874.841 38.2791 873.413 38.6356 872.135 39.3181C870.856 40.0005 869.766 40.9878 868.96 42.1925C868.154 43.3972 867.658 44.7821 867.515 46.2244C867.373 47.6667 867.588 49.1219 868.142 50.4611C868.697 51.8002 869.573 52.982 870.693 53.9017C871.813 54.8213 873.143 55.4504 874.564 55.7333C875.986 56.0161 877.455 55.9439 878.842 55.5232C880.229 55.1024 881.49 54.346 882.515 53.321L898.318 69.1196" stroke="#4F8A00" stroke-width="2.7" stroke-linecap="round" stroke-linejoin="round"/>
<path d="M867.479 91.1478H946.78C946.009 83.786 946.577 76.4109 937.969 69.1196H876.29C870.417 73.5253 867.479 80.8694 867.479 91.1478Z" stroke="#4F8A00" stroke-width="2.7" stroke-linecap="round" stroke-linejoin="round"/>
<path d="M1 96C32.0442 60.4055 114.37 10.5732 195.32 96C230.056 49.9193 327.719 18.0167 402.225 96C433.437 45.488 521.938 19.7893 590 96" stroke="#4F8A00" stroke-width="2" stroke-dasharray="10 10"/>
<path d="M1036 91C1067.76 49.4017 1144.88 19.8105 1221 91" stroke="#4F8A00" stroke-width="2" stroke-dasharray="10 10"/>
</svg>
