<svg width="1019" height="310" viewBox="0 0 1019 310" fill="none" xmlns="http://www.w3.org/2000/svg">
<path d="M867 141L872.195 143.52L871.779 137.761L867 141ZM1017.5 0.953095C1013.44 44.0533 978.486 131.297 871.449 140.178L871.532 141.174C979.239 132.237 1014.41 44.4136 1018.5 1.0469L1017.5 0.953095Z" fill="#FEB00A" fill-opacity="0.6"/>
<path d="M445 287.064L449.516 283.466L444.143 281.354L445 287.064ZM770.133 153.046C717.273 138.446 653.336 128.304 594.08 143.095C534.787 157.896 480.239 197.648 446.177 282.704L447.105 283.076C481.052 198.307 535.352 158.786 594.322 144.066C653.328 129.337 717.066 139.426 769.867 154.01L770.133 153.046Z" fill="#FEB00A" fill-opacity="0.6"/>
<path d="M0.5 286.499L6.2492 285.97L2.91629 281.255L0.5 286.499ZM358.981 309.427C358.703 308.455 357.807 306.994 356.405 305.179C354.987 303.344 353.006 301.092 350.494 298.525C345.469 293.391 338.297 286.981 329.2 280.113C311.004 266.377 285.083 250.795 253.176 239.916C189.344 218.152 101.583 215.227 3.87115 283.503L4.44392 284.323C101.87 216.247 189.293 219.191 252.854 240.863C284.644 251.701 310.471 267.228 328.597 280.911C337.66 287.753 344.793 294.13 349.779 299.224C352.273 301.772 354.226 303.995 355.614 305.791C357.017 307.607 357.8 308.934 358.019 309.701L358.981 309.427Z" fill="#FEB00A" fill-opacity="0.6"/>
<path d="M530.068 158.267C529.524 158.639 528.97 158.673 528.403 158.367C527.564 157.787 526.792 156.982 526.086 155.952C525.674 155.352 525.114 154.381 524.404 153.039C523.709 151.687 523.146 150.697 522.714 150.068C522.558 149.839 522.498 149.491 522.535 149.024C522.572 148.558 522.741 148.221 523.041 148.015C523.37 147.79 523.766 147.739 524.229 147.863C524.692 147.987 524.996 148.231 525.14 148.594C525.978 150.521 526.989 152.349 528.175 154.079C528.537 154.608 528.924 155.142 529.335 155.68C529.471 155.817 529.704 155.942 530.032 156.053C530.351 156.15 530.554 156.263 530.642 156.391C530.711 156.491 530.744 156.616 530.741 156.765C530.661 157.261 530.609 157.538 530.586 157.596C530.498 157.867 530.325 158.09 530.068 158.267Z" fill="#715C4A"/>
<path d="M541.095 151.14C540.883 151.327 540.658 151.491 540.42 151.633C539.452 152.209 538.431 152.444 537.359 152.336C536.292 152.204 535.373 151.763 534.603 151.011C534.191 150.59 533.835 150.127 533.533 149.62C532.611 148.071 532.293 146.334 532.579 144.409C532.865 142.484 533.675 140.862 535.008 139.544C535.146 139.402 535.296 139.282 535.46 139.184C535.788 138.989 536.108 138.9 536.42 138.916C536.723 138.917 536.923 138.999 537.021 139.163C537.118 139.327 537.067 139.529 536.867 139.769C534.453 143.405 534.037 146.366 535.619 148.651C536.12 148.171 536.609 147.688 537.087 147.203C537.689 146.622 538.229 146.19 538.705 145.906C539.524 145.419 540.402 145.199 541.338 145.246C541.799 145.275 542.176 145.535 542.468 146.026C542.796 146.577 542.89 147.107 542.748 147.615C542.636 149.154 542.085 150.329 541.095 151.14ZM540.129 149.416C540.529 149.037 540.749 148.764 540.792 148.598C540.867 148.351 540.762 148.04 540.478 147.665C540.221 147.334 539.681 147.443 538.859 147.994C537.935 148.644 537.641 149.253 537.978 149.819C538.297 150.355 538.747 150.45 539.328 150.104C539.537 149.98 539.804 149.751 540.129 149.416Z" fill="#715C4A"/>
<path d="M547.935 134.7C547.893 133.522 547.85 132.343 547.808 131.165C547.875 129.584 548.336 128.582 549.19 128.158C549.485 128.012 549.776 127.974 550.062 128.045C550.357 128.092 550.569 128.248 550.7 128.512C550.793 128.698 550.835 128.919 550.826 129.175C550.662 131.733 550.502 134.279 550.347 136.813C550.22 139.797 550.308 142.375 550.611 144.546C550.718 145.035 550.53 145.573 550.047 146.161C549.931 146.315 549.787 146.435 549.616 146.52C549.336 146.658 549.053 146.673 548.767 146.563C548.496 146.446 548.322 146.232 548.246 145.922C547.84 144.362 547.653 142.501 547.684 140.339C547.76 138.463 547.844 136.584 547.935 134.7Z" fill="#715C4A"/>
<path d="M564.598 139.519C563.991 139.773 563.441 139.693 562.948 139.279C562.244 138.54 561.652 137.595 561.17 136.444C560.889 135.772 560.537 134.708 560.115 133.25C559.709 131.785 559.358 130.701 559.064 129.997C558.957 129.741 558.969 129.389 559.1 128.939C559.231 128.49 559.465 128.195 559.801 128.054C560.169 127.9 560.567 127.931 560.995 128.146C561.423 128.362 561.671 128.662 561.738 129.047C562.167 131.104 562.786 133.099 563.596 135.034C563.843 135.626 564.113 136.227 564.406 136.837C564.512 136.999 564.714 137.168 565.013 137.344C565.305 137.504 565.482 137.655 565.542 137.799C565.589 137.911 565.596 138.04 565.562 138.185C565.383 138.655 565.276 138.916 565.242 138.968C565.101 139.215 564.886 139.398 564.598 139.519Z" fill="#715C4A"/>
<path d="M578.457 131.737C577.779 133.084 576.899 133.941 575.815 134.309C575.257 134.498 574.693 134.534 574.122 134.417C573.058 134.192 572.101 133.721 571.253 133.002C570.416 132.261 569.825 131.382 569.479 130.364C568.977 128.887 569.15 127.291 569.995 125.576C570.835 123.845 571.994 122.729 573.471 122.227C574.669 121.82 575.906 122.041 577.183 122.889C578.167 123.525 578.844 124.384 579.211 125.468C579.847 127.339 579.595 129.429 578.457 131.737ZM576.441 130.005C576.872 128.632 576.954 127.552 576.686 126.764C576.547 126.354 576.312 126.013 575.982 125.74C575.299 125.185 574.695 124.997 574.17 125.175C573.464 125.415 572.91 125.914 572.509 126.672C572.124 127.425 572.016 128.158 572.184 128.869C572.325 129.554 572.643 130.141 573.139 130.632C573.646 131.1 574.229 131.36 574.887 131.412C575.062 131.443 575.24 131.429 575.421 131.367C575.88 131.211 576.221 130.757 576.441 130.005Z" fill="#715C4A"/>
<path d="M588.898 119.553C589.108 118.393 589.317 117.233 589.527 116.072C589.93 114.542 590.594 113.661 591.518 113.429C591.838 113.349 592.13 113.374 592.395 113.504C592.672 113.613 592.847 113.811 592.919 114.097C592.969 114.298 592.963 114.523 592.9 114.771C592.195 117.235 591.496 119.689 590.804 122.132C590.044 125.02 589.581 127.557 589.414 129.743C589.414 130.244 589.116 130.729 588.519 131.201C588.372 131.327 588.206 131.413 588.021 131.459C587.719 131.535 587.439 131.489 587.183 131.321C586.943 131.149 586.819 130.903 586.81 130.583C586.746 128.973 586.96 127.115 587.45 125.009C587.925 123.192 588.407 121.374 588.898 119.553Z" fill="#715C4A"/>
<path d="M603.04 127.135C602.479 127.141 602.142 126.811 602.031 126.144C601.968 125.768 601.99 125.43 602.098 125.131C602.408 124.253 603.018 123.228 603.928 122.056C605.132 120.536 605.878 119.532 606.165 119.044C606.176 119.007 606.178 118.963 606.169 118.912C606.152 118.809 605.964 118.63 605.604 118.374C605.382 118.306 605.04 118.31 604.578 118.388C604.131 118.445 603.789 118.45 603.553 118.402C603.33 118.334 603.134 118.314 602.963 118.343C602.757 118.377 602.524 118.504 602.262 118.724C602 118.943 601.775 119.069 601.587 119.101C601.382 119.135 601.14 119.105 600.86 119.012C600.455 118.798 600.201 118.384 600.098 117.769C600.058 117.529 600.041 117.269 600.046 116.986C600.137 116.374 600.549 116.006 601.284 115.882C601.455 115.854 601.698 115.831 602.011 115.813C602.342 115.793 602.567 115.773 602.686 115.753C604.618 115.428 606.063 115.45 607.021 115.816C607.767 116.078 608.199 116.242 608.316 116.311C608.838 116.592 609.133 116.938 609.202 117.348C609.222 117.468 609.22 117.609 609.194 117.772C608.962 119.427 607.837 121.312 605.819 123.426C605.591 123.745 605.489 123.973 605.512 124.11C605.526 124.196 605.619 124.224 605.79 124.195C606.491 124.183 607.361 124.134 608.401 124.047C608.988 123.984 609.879 124.002 611.073 124.1C611.158 124.086 611.29 124.134 611.466 124.245C611.64 124.339 611.739 124.454 611.762 124.591C611.89 124.938 611.872 125.302 611.707 125.681C611.54 126.043 611.3 126.294 610.99 126.434C609.95 126.731 609.106 126.935 608.456 127.044C607.806 127.153 607.058 127.199 606.212 127.183C604.485 127.156 603.428 127.14 603.04 127.135Z" fill="#715C4A"/>
<path d="M625.309 122.662C624.325 123.803 623.262 124.421 622.122 124.514C621.535 124.563 620.978 124.46 620.453 124.208C619.475 123.732 618.662 123.042 618.014 122.138C617.382 121.216 617.022 120.22 616.934 119.149C616.806 117.594 617.361 116.087 618.598 114.629C619.834 113.154 621.229 112.353 622.784 112.225C624.045 112.122 625.191 112.636 626.223 113.769C627.024 114.625 627.471 115.623 627.565 116.764C627.726 118.733 626.974 120.699 625.309 122.662ZM623.775 120.492C624.526 119.265 624.868 118.237 624.8 117.408C624.765 116.976 624.62 116.588 624.365 116.243C623.838 115.539 623.298 115.209 622.745 115.254C622.002 115.315 621.344 115.665 620.77 116.303C620.214 116.94 619.931 117.624 619.921 118.356C619.891 119.054 620.058 119.701 620.42 120.297C620.797 120.875 621.299 121.269 621.925 121.478C622.088 121.552 622.264 121.581 622.454 121.565C622.938 121.526 623.378 121.168 623.775 120.492Z" fill="#715C4A"/>
<path d="M635.455 123.849C634.9 123.761 634.624 123.379 634.625 122.703C634.626 122.322 634.705 121.993 634.862 121.716C635.315 120.902 636.088 119.994 637.183 118.992C638.625 117.695 639.528 116.831 639.893 116.399C639.911 116.364 639.92 116.321 639.92 116.269C639.92 116.165 639.765 115.956 639.453 115.643C639.246 115.539 638.908 115.486 638.44 115.485C637.989 115.466 637.651 115.414 637.426 115.326C637.218 115.222 637.028 115.169 636.855 115.169C636.647 115.168 636.395 115.254 636.1 115.427C635.805 115.6 635.562 115.686 635.371 115.685C635.163 115.685 634.929 115.615 634.67 115.475C634.306 115.197 634.126 114.746 634.127 114.122C634.128 113.879 634.154 113.619 634.207 113.342C634.399 112.753 634.868 112.46 635.613 112.462C635.787 112.462 636.029 112.48 636.341 112.516C636.67 112.551 636.896 112.569 637.017 112.569C638.976 112.574 640.396 112.838 641.279 113.36C641.971 113.743 642.37 113.978 642.473 114.065C642.94 114.43 643.173 114.821 643.172 115.237C643.172 115.358 643.146 115.497 643.093 115.653C642.587 117.246 641.161 118.915 638.817 120.66C638.539 120.936 638.399 121.144 638.399 121.283C638.399 121.369 638.485 121.413 638.659 121.413C639.352 121.519 640.218 121.617 641.258 121.706C641.847 121.742 642.722 121.909 643.883 122.207C643.969 122.207 644.091 122.277 644.246 122.416C644.402 122.537 644.48 122.668 644.479 122.806C644.548 123.17 644.469 123.525 644.243 123.872C644.016 124.2 643.739 124.408 643.409 124.493C642.334 124.612 641.467 124.671 640.809 124.669C640.15 124.667 639.405 124.587 638.573 124.429C636.875 124.113 635.836 123.92 635.455 123.849Z" fill="#715C4A"/>
<path d="M652.169 125.164C651.512 125.119 651.057 124.801 650.802 124.21C650.505 123.234 650.399 122.123 650.485 120.878C650.535 120.152 650.699 119.042 650.976 117.55C651.27 116.059 651.443 114.932 651.496 114.172C651.515 113.895 651.684 113.585 652.003 113.242C652.322 112.9 652.663 112.741 653.026 112.766C653.424 112.793 653.766 112.999 654.052 113.384C654.338 113.769 654.425 114.148 654.312 114.523C653.772 116.553 653.43 118.614 653.286 120.707C653.241 121.346 653.213 122.005 653.201 122.681C653.223 122.874 653.327 123.116 653.516 123.407C653.705 123.681 653.795 123.895 653.784 124.051C653.776 124.172 653.724 124.29 653.629 124.405C653.258 124.744 653.046 124.929 652.991 124.96C652.755 125.118 652.481 125.186 652.169 125.164Z" fill="#715C4A"/>
<path d="M897.712 124.016C897.156 124.093 896.781 123.808 896.586 123.161C896.476 122.796 896.455 122.458 896.525 122.147C896.721 121.237 897.197 120.143 897.953 118.866C898.955 117.206 899.568 116.116 899.792 115.596C899.799 115.558 899.794 115.514 899.779 115.464C899.749 115.365 899.54 115.211 899.151 115.002C898.922 114.962 898.583 115.01 898.135 115.145C897.699 115.258 897.36 115.306 897.119 115.288C896.89 115.249 896.693 115.254 896.527 115.304C896.328 115.364 896.112 115.519 895.88 115.77C895.648 116.021 895.44 116.174 895.258 116.229C895.059 116.289 894.815 116.29 894.526 116.233C894.097 116.072 893.793 115.693 893.613 115.096C893.543 114.863 893.493 114.607 893.462 114.326C893.475 113.707 893.838 113.29 894.552 113.075C894.718 113.025 894.955 112.971 895.264 112.915C895.589 112.853 895.81 112.804 895.926 112.769C897.801 112.204 899.237 112.043 900.234 112.286C901.008 112.451 901.457 112.56 901.581 112.613C902.135 112.827 902.471 113.133 902.591 113.531C902.626 113.647 902.641 113.787 902.636 113.952C902.615 115.624 901.737 117.635 900.001 119.987C899.816 120.332 899.743 120.571 899.783 120.704C899.808 120.787 899.903 120.804 900.069 120.754C900.763 120.653 901.621 120.494 902.641 120.277C903.216 120.141 904.101 120.046 905.298 119.993C905.381 119.968 905.517 119.999 905.707 120.087C905.891 120.158 906.003 120.26 906.043 120.393C906.215 120.721 906.243 121.084 906.127 121.481C906.006 121.861 905.801 122.141 905.51 122.319C904.516 122.745 903.704 123.053 903.073 123.243C902.443 123.433 901.706 123.573 900.865 123.664C899.148 123.855 898.098 123.973 897.712 124.016Z" fill="#715C4A"/>
<path d="M911.788 108.077C911.822 106.898 911.856 105.72 911.891 104.541C912.061 102.968 912.586 101.997 913.466 101.63C913.77 101.504 914.062 101.485 914.344 101.574C914.634 101.641 914.836 101.81 914.95 102.082C915.03 102.274 915.057 102.497 915.032 102.752C914.702 105.293 914.377 107.823 914.057 110.342C913.736 113.312 913.657 115.89 913.817 118.076C913.892 118.571 913.67 119.096 913.15 119.651C913.023 119.797 912.872 119.907 912.696 119.981C912.408 120.101 912.125 120.097 911.846 119.969C911.583 119.834 911.424 119.61 911.368 119.295C911.064 117.713 910.998 115.843 911.17 113.687C911.368 111.821 911.574 109.95 911.788 108.077Z" fill="#715C4A"/>
<path d="M928.152 112.914C927.567 113.217 927.012 113.182 926.488 112.81C925.726 112.131 925.058 111.237 924.484 110.129C924.15 109.482 923.713 108.45 923.173 107.031C922.649 105.604 922.211 104.552 921.861 103.875C921.733 103.629 921.717 103.276 921.811 102.817C921.905 102.359 922.114 102.046 922.437 101.878C922.791 101.695 923.19 101.693 923.635 101.873C924.079 102.053 924.351 102.332 924.449 102.71C925.044 104.725 925.823 106.664 926.787 108.526C927.082 109.096 927.401 109.673 927.742 110.257C927.861 110.41 928.076 110.562 928.388 110.713C928.693 110.848 928.881 110.985 928.952 111.124C929.008 111.232 929.025 111.359 929.004 111.507C928.864 111.989 928.778 112.258 928.748 112.313C928.628 112.57 928.429 112.771 928.152 112.914Z" fill="#715C4A"/>
<path d="M940.734 102.678C940.396 104.147 939.744 105.189 938.779 105.803C938.282 106.12 937.742 106.289 937.16 106.31C936.073 106.345 935.032 106.114 934.037 105.617C933.048 105.096 932.264 104.383 931.687 103.476C930.849 102.161 930.637 100.569 931.051 98.7027C931.456 96.8214 932.316 95.4618 933.632 94.6238C934.7 93.9441 935.954 93.8646 937.395 94.3852C938.503 94.769 939.364 95.4434 939.978 96.4084C941.04 98.0751 941.292 100.165 940.734 102.678ZM938.365 101.474C938.457 100.038 938.28 98.9694 937.833 98.2676C937.6 97.9021 937.291 97.6264 936.906 97.4404C936.111 97.0631 935.479 97.0234 935.011 97.3214C934.383 97.7218 933.963 98.3381 933.754 99.1704C933.558 99.9933 933.627 100.73 933.96 101.382C934.259 102.013 934.708 102.508 935.306 102.867C935.91 103.202 936.537 103.316 937.189 103.209C937.367 103.199 937.536 103.142 937.697 103.04C938.107 102.779 938.329 102.257 938.365 101.474Z" fill="#715C4A"/>
<path d="M945.911 87.9852C945.621 86.8423 945.331 85.6994 945.041 84.5565C944.773 82.9967 945.012 81.9198 945.757 81.3256C946.015 81.1204 946.291 81.0221 946.586 81.0308C946.884 81.0151 947.125 81.1224 947.308 81.3529C947.438 81.5155 947.526 81.7228 947.571 81.9746C947.951 84.5091 948.332 87.0314 948.714 89.5415C949.22 92.485 949.851 94.9861 950.605 97.0448C950.812 97.5 950.742 98.0656 950.395 98.7417C950.313 98.9175 950.198 99.0648 950.049 99.1837C949.805 99.3781 949.531 99.452 949.228 99.4055C948.938 99.3481 948.724 99.1758 948.583 98.8886C947.858 97.4498 947.282 95.6702 946.855 93.5498C946.534 91.7004 946.219 89.8455 945.911 87.9852Z" fill="#715C4A"/>
<path d="M961.786 88.1865C961.33 88.5129 960.865 88.4347 960.391 87.9519C960.124 87.6796 959.95 87.3898 959.867 87.0825C959.618 86.1853 959.532 84.9955 959.608 83.5131C959.726 81.5777 959.763 80.3278 959.72 79.7636C959.708 79.7267 959.684 79.6896 959.647 79.6525C959.574 79.5782 959.317 79.5389 958.876 79.5345C958.655 79.6058 958.377 79.8053 958.043 80.1329C957.709 80.436 957.431 80.6354 957.209 80.7313C956.988 80.8026 956.815 80.8989 956.692 81.0202C956.543 81.1658 956.424 81.4037 956.335 81.7337C956.246 82.0638 956.134 82.2955 955.997 82.429C955.849 82.5746 955.633 82.6889 955.35 82.7719C954.896 82.8286 954.451 82.6341 954.014 82.1885C953.844 82.0152 953.681 81.8113 953.524 81.5769C953.247 81.0225 953.375 80.4845 953.908 79.9628C954.031 79.8415 954.217 79.684 954.464 79.4903C954.723 79.2845 954.896 79.1392 954.983 79.0543C956.382 77.6832 957.579 76.874 958.574 76.6265C959.336 76.4135 959.785 76.3016 959.92 76.2907C960.509 76.223 960.949 76.3377 961.24 76.6348C961.325 76.7215 961.404 76.8387 961.476 76.9865C962.233 78.4772 962.389 80.6666 961.943 83.5549C961.939 83.9471 961.986 84.1927 962.083 84.2917C962.143 84.3536 962.236 84.3239 962.359 84.2025C962.927 83.7915 963.613 83.2529 964.416 82.5868C964.862 82.199 965.602 81.7039 966.638 81.1014C966.699 81.0407 966.835 81.0053 967.043 80.9951C967.239 80.9726 967.386 81.0108 967.483 81.1099C967.788 81.3213 967.981 81.6296 968.062 82.0349C968.132 82.4279 968.079 82.7705 967.905 83.063C967.222 83.9019 966.646 84.5519 966.176 85.0129C965.705 85.474 965.118 85.94 964.415 86.411C962.983 87.3773 962.107 87.9691 961.786 88.1865Z" fill="#715C4A"/>
<path d="M976.1 70.2043C976.237 71.7056 975.943 72.8988 975.218 73.7838C974.845 74.2397 974.385 74.5688 973.838 74.7709C972.816 75.1435 971.755 75.249 970.655 75.0874C969.552 74.9014 968.586 74.4679 967.754 73.787C966.547 72.7984 965.849 71.3529 965.66 69.4502C965.458 67.5366 965.851 65.9764 966.839 64.7696C967.641 63.7907 968.808 63.3236 970.339 63.3684C971.511 63.3874 972.54 63.7593 973.425 64.4842C974.954 65.7364 975.845 67.643 976.1 70.2043ZM973.473 69.8003C973.113 68.4074 972.611 67.4473 971.967 66.9201C971.632 66.6455 971.252 66.48 970.828 66.4237C969.955 66.3135 969.343 66.4729 968.991 66.902C968.519 67.4786 968.313 68.1949 968.373 69.0511C968.445 69.8939 968.74 70.5727 969.259 71.0877C969.741 71.5941 970.322 71.9243 971.002 72.0783C971.68 72.208 972.312 72.1205 972.898 71.816C973.064 71.7502 973.207 71.6436 973.328 71.4961C973.635 71.1206 973.684 70.5554 973.473 69.8003Z" fill="#715C4A"/>
<path d="M983.597 62.8328C983.222 63.2503 982.751 63.2746 982.184 62.9058C981.865 62.6977 981.631 62.4526 981.484 62.1706C981.047 61.3484 980.706 60.2054 980.459 58.7418C980.155 56.8268 979.92 55.5986 979.756 55.0571C979.736 55.0236 979.704 54.9927 979.661 54.9644C979.574 54.9076 979.314 54.9248 978.883 55.016C978.682 55.1336 978.454 55.3885 978.198 55.7807C977.938 56.1489 977.71 56.4037 977.514 56.5453C977.314 56.6628 977.166 56.7942 977.072 56.9395C976.958 57.1138 976.894 57.3717 976.878 57.7132C976.863 58.0547 976.803 58.3054 976.699 58.4652C976.585 58.6395 976.399 58.7977 976.141 58.94C975.71 59.0937 975.233 59.0003 974.71 58.6598C974.507 58.5274 974.303 58.3637 974.099 58.1688C973.71 57.6874 973.718 57.1345 974.125 56.5099C974.219 56.3646 974.366 56.1707 974.565 55.9282C974.774 55.6711 974.912 55.4917 974.978 55.3901C976.047 53.7487 977.04 52.6995 977.958 52.2424C978.656 51.8695 979.07 51.6631 979.199 51.6232C979.76 51.4296 980.214 51.4463 980.563 51.6733C980.664 51.7395 980.766 51.837 980.869 51.9657C981.931 53.2571 982.557 55.3609 982.747 58.2771C982.828 58.6608 982.927 58.8905 983.043 58.9662C983.116 59.0135 983.199 58.9645 983.294 58.8192C983.759 58.295 984.312 57.6207 984.952 56.7965C985.303 56.3215 985.919 55.6778 986.799 54.8654C986.846 54.7928 986.971 54.7289 987.172 54.6739C987.359 54.6094 987.51 54.6149 987.627 54.6906C987.969 54.8311 988.225 55.0904 988.392 55.4684C988.545 55.8369 988.568 56.1828 988.461 56.5061C987.976 57.4729 987.554 58.2322 987.195 58.7842C986.836 59.3362 986.363 59.9182 985.779 60.5303C984.59 61.7836 983.863 62.551 983.597 62.8328Z" fill="#715C4A"/>
<path d="M993.178 48.5618C992.868 49.1425 992.391 49.428 991.747 49.418C990.735 49.2893 989.679 48.9306 988.578 48.3419C987.936 47.9985 986.991 47.3948 985.743 46.5306C984.504 45.6512 983.548 45.0316 982.875 44.6719C982.631 44.541 982.417 44.2599 982.235 43.8284C982.053 43.3968 982.048 43.0206 982.22 42.6996C982.408 42.3481 982.736 42.1206 983.204 42.0172C983.672 41.9138 984.054 41.9902 984.349 42.2465C985.98 43.571 987.72 44.7279 989.57 45.7171C990.135 46.0196 990.724 46.3151 991.336 46.6033C991.521 46.6627 991.784 46.6661 992.127 46.6135C992.455 46.5527 992.687 46.5591 992.825 46.6327C992.932 46.69 993.018 46.7854 993.084 46.9191C993.242 47.3964 993.323 47.6662 993.329 47.7284C993.376 48.0089 993.326 48.2866 993.178 48.5618Z" fill="#715C4A"/>
<path d="M126.942 221.183C126.295 221.819 125.52 222.287 124.616 222.589C123.596 222.929 122.582 223.011 121.574 222.836C121.239 222.765 121.023 222.581 120.924 222.285C120.847 222.055 120.861 221.795 120.965 221.504C121.08 221.192 121.233 220.967 121.425 220.83C121.617 220.693 121.828 220.586 122.058 220.509C122.321 220.422 122.743 220.345 123.324 220.279C123.905 220.213 124.327 220.136 124.59 220.048C124.87 219.955 125.111 219.829 125.314 219.67C125.396 219.643 125.495 219.555 125.61 219.407C125.741 219.253 125.766 219.163 125.684 219.136C125.278 218.631 124.283 218.333 122.699 218.24C121.263 218.153 120.449 217.821 120.257 217.246C120.191 217.048 120.164 216.829 120.175 216.588C120.257 216.177 120.561 215.719 121.087 215.215C121.8 214.502 122.208 214.082 122.312 213.956C121.978 213.885 121.506 213.951 120.898 214.154C120.306 214.351 119.856 214.401 119.549 214.302C119.237 214.187 119.029 213.973 118.924 213.661C118.809 213.316 118.839 212.968 119.015 212.617C119.206 212.261 119.483 212.022 119.845 211.901C121.062 211.605 121.774 211.441 121.983 211.408C122.799 211.281 123.498 211.295 124.079 211.448C124.671 211.58 125.033 211.843 125.165 212.238C125.302 212.649 125.176 213.257 124.787 214.063C124.463 214.682 124.132 215.304 123.792 215.929C123.885 215.935 124.017 216.001 124.187 216.127C124.373 216.247 124.516 216.318 124.614 216.34C126.193 216.143 127.339 216.537 128.051 217.524C128.156 217.672 128.235 217.828 128.29 217.992C128.597 218.913 128.148 219.977 126.942 221.183Z" fill="#715C4A"/>
<path d="M137.157 220.199C136.52 220.363 135.987 220.205 135.559 219.725C134.968 218.893 134.517 217.872 134.206 216.664C134.024 215.959 133.829 214.854 133.621 213.351C133.429 211.843 133.238 210.72 133.048 209.981C132.979 209.713 133.042 209.365 133.236 208.939C133.431 208.513 133.704 208.255 134.057 208.164C134.443 208.065 134.832 208.152 135.225 208.427C135.618 208.702 135.82 209.034 135.831 209.425C135.96 211.522 136.286 213.586 136.809 215.617C136.969 216.238 137.15 216.872 137.353 217.518C137.434 217.694 137.61 217.89 137.88 218.107C138.146 218.306 138.299 218.482 138.338 218.633C138.368 218.751 138.357 218.879 138.303 219.018C138.058 219.457 137.915 219.7 137.873 219.746C137.698 219.97 137.46 220.121 137.157 220.199Z" fill="#715C4A"/>
<path d="M146.637 206.548C146.923 205.404 147.209 204.26 147.494 203.116C147.997 201.616 148.718 200.78 149.656 200.61C149.98 200.551 150.27 200.595 150.525 200.743C150.795 200.87 150.956 201.079 151.009 201.369C151.046 201.573 151.025 201.797 150.946 202.041C150.08 204.453 149.221 206.855 148.369 209.246C147.421 212.079 146.791 214.58 146.48 216.75C146.447 217.249 146.118 217.714 145.491 218.145C145.336 218.261 145.165 218.336 144.977 218.37C144.67 218.426 144.394 218.362 144.15 218.177C143.922 217.989 143.814 217.736 143.827 217.417C143.869 215.806 144.205 213.966 144.833 211.896C145.426 210.115 146.027 208.332 146.637 206.548Z" fill="#715C4A"/>
<path d="M161.293 215.854C160.639 215.924 160.134 215.69 159.78 215.153C159.317 214.244 159.018 213.169 158.885 211.928C158.808 211.204 158.775 210.083 158.786 208.565C158.815 207.046 158.789 205.907 158.707 205.148C158.678 204.873 158.79 204.538 159.044 204.145C159.299 203.751 159.607 203.535 159.969 203.496C160.365 203.454 160.738 203.597 161.087 203.926C161.436 204.254 161.587 204.613 161.542 205.001C161.365 207.095 161.389 209.184 161.613 211.269C161.681 211.907 161.768 212.56 161.875 213.229C161.93 213.415 162.075 213.634 162.312 213.888C162.546 214.124 162.672 214.32 162.688 214.475C162.701 214.596 162.671 214.721 162.598 214.851C162.292 215.25 162.115 215.469 162.067 215.509C161.862 215.705 161.604 215.82 161.293 215.854Z" fill="#715C4A"/>
<path d="M176.795 212.441C175.751 213.529 174.657 214.089 173.513 214.121C172.924 214.138 172.374 214.006 171.863 213.726C170.912 213.198 170.137 212.465 169.538 211.529C168.956 210.574 168.65 209.56 168.62 208.485C168.575 206.926 169.21 205.451 170.523 204.062C171.836 202.655 173.272 201.929 174.831 201.885C176.096 201.849 177.213 202.424 178.183 203.611C178.937 204.508 179.33 205.529 179.362 206.672C179.418 208.648 178.563 210.571 176.795 212.441ZM175.379 210.193C176.195 209.008 176.591 207.999 176.567 207.168C176.555 206.735 176.431 206.339 176.196 205.982C175.707 205.25 175.185 204.892 174.631 204.908C173.886 204.929 173.21 205.243 172.602 205.849C172.013 206.456 171.694 207.124 171.645 207.853C171.578 208.549 171.709 209.204 172.039 209.819C172.385 210.416 172.865 210.836 173.479 211.079C173.637 211.161 173.812 211.199 174.002 211.194C174.488 211.18 174.946 210.846 175.379 210.193Z" fill="#715C4A"/>
<path d="M190.451 203.965C191.004 202.924 191.558 201.883 192.112 200.842C192.963 199.508 193.864 198.871 194.815 198.933C195.144 198.954 195.414 199.067 195.627 199.272C195.858 199.461 195.964 199.702 195.945 199.996C195.931 200.204 195.857 200.416 195.721 200.633C194.298 202.764 192.883 204.887 191.478 207.002C189.873 209.521 188.658 211.796 187.831 213.827C187.679 214.303 187.247 214.675 186.535 214.941C186.356 215.016 186.172 215.048 185.981 215.036C185.67 215.015 185.418 214.886 185.225 214.648C185.049 214.411 185.006 214.139 185.095 213.832C185.526 212.279 186.297 210.575 187.407 208.719C188.413 207.134 189.427 205.549 190.451 203.965Z" fill="#715C4A"/>
<path d="M201.575 215.542C201.04 215.371 200.825 214.952 200.929 214.284C200.988 213.907 201.116 213.594 201.313 213.344C201.884 212.608 202.786 211.828 204.02 211.003C205.642 209.94 206.666 209.223 207.093 208.851C207.115 208.82 207.131 208.778 207.139 208.727C207.155 208.624 207.033 208.394 206.772 208.038C206.583 207.903 206.257 207.8 205.795 207.728C205.352 207.641 205.026 207.537 204.817 207.417C204.627 207.282 204.447 207.201 204.276 207.175C204.07 207.143 203.808 207.189 203.491 207.315C203.173 207.441 202.92 207.489 202.731 207.46C202.526 207.428 202.305 207.323 202.07 207.146C201.753 206.816 201.642 206.343 201.739 205.726C201.776 205.486 201.842 205.234 201.936 204.968C202.215 204.415 202.723 204.196 203.459 204.311C203.631 204.337 203.868 204.392 204.171 204.474C204.491 204.559 204.711 204.611 204.831 204.63C206.766 204.932 208.13 205.408 208.923 206.058C209.55 206.542 209.907 206.834 209.997 206.936C210.403 207.368 210.574 207.789 210.51 208.2C210.491 208.32 210.444 208.453 210.369 208.599C209.626 210.097 207.964 211.531 205.382 212.9C205.065 213.131 204.896 213.315 204.875 213.452C204.861 213.538 204.94 213.594 205.112 213.621C205.781 213.83 206.622 214.058 207.636 214.304C208.213 214.429 209.053 214.727 210.155 215.197C210.241 215.211 210.35 215.298 210.482 215.459C210.618 215.603 210.675 215.743 210.654 215.88C210.666 216.251 210.534 216.59 210.258 216.897C209.985 217.188 209.678 217.351 209.34 217.386C208.259 217.34 207.393 217.266 206.743 217.165C206.092 217.063 205.368 216.871 204.57 216.589C202.939 216.018 201.941 215.67 201.575 215.542Z" fill="#715C4A"/>
<path d="M224.083 218.444C222.779 219.202 221.573 219.439 220.465 219.155C219.894 219.009 219.402 218.731 218.988 218.32C218.219 217.551 217.676 216.633 217.358 215.568C217.062 214.49 217.047 213.431 217.313 212.389C217.7 210.878 218.717 209.636 220.362 208.661C222.011 207.67 223.592 207.368 225.103 207.755C226.329 208.069 227.244 208.93 227.85 210.338C228.327 211.408 228.424 212.498 228.14 213.606C227.65 215.52 226.297 217.133 224.083 218.444ZM223.341 215.893C224.452 214.978 225.11 214.118 225.317 213.312C225.424 212.892 225.414 212.478 225.286 212.07C225.018 211.232 224.615 210.744 224.077 210.606C223.355 210.421 222.619 210.537 221.868 210.953C221.134 211.373 220.643 211.927 220.396 212.615C220.14 213.265 220.085 213.932 220.233 214.613C220.401 215.283 220.747 215.819 221.27 216.221C221.4 216.344 221.557 216.429 221.742 216.476C222.212 216.597 222.745 216.402 223.341 215.893Z" fill="#715C4A"/>
<path d="M233.244 222.921C232.752 222.651 232.621 222.198 232.851 221.562C232.98 221.204 233.165 220.921 233.406 220.713C234.107 220.1 235.142 219.506 236.51 218.931C238.305 218.198 239.447 217.689 239.937 217.405C239.965 217.378 239.988 217.34 240.005 217.291C240.041 217.194 239.965 216.945 239.777 216.545C239.617 216.377 239.317 216.213 238.877 216.054C238.459 215.885 238.158 215.721 237.976 215.563C237.816 215.395 237.654 215.281 237.491 215.222C237.295 215.151 237.03 215.147 236.694 215.21C236.358 215.273 236.1 215.272 235.921 215.207C235.725 215.137 235.528 214.992 235.331 214.773C235.083 214.389 235.065 213.903 235.277 213.316C235.359 213.088 235.472 212.852 235.615 212.609C235.995 212.12 236.535 212.002 237.236 212.255C237.399 212.314 237.621 212.412 237.903 212.551C238.201 212.696 238.407 212.788 238.521 212.83C240.363 213.495 241.612 214.223 242.266 215.012C242.789 215.606 243.084 215.962 243.153 216.079C243.469 216.58 243.557 217.026 243.415 217.418C243.374 217.532 243.303 217.653 243.201 217.782C242.186 219.111 240.281 220.201 237.485 221.053C237.13 221.22 236.929 221.368 236.882 221.498C236.853 221.58 236.92 221.65 237.083 221.709C237.699 222.042 238.482 222.427 239.431 222.861C239.973 223.094 240.741 223.547 241.733 224.218C241.814 224.248 241.905 224.354 242.004 224.538C242.11 224.705 242.139 224.854 242.092 224.984C242.033 225.35 241.839 225.658 241.51 225.907C241.186 226.14 240.854 226.242 240.515 226.211C239.463 225.96 238.627 225.723 238.008 225.499C237.388 225.275 236.714 224.949 235.984 224.519C234.493 223.649 233.58 223.116 233.244 222.921Z" fill="#715C4A"/>
<path d="M248.486 229.843C247.885 229.573 247.568 229.117 247.533 228.474C247.592 227.456 247.877 226.377 248.389 225.239C248.687 224.575 249.224 223.59 250 222.286C250.792 220.988 251.345 219.992 251.657 219.296C251.771 219.043 252.037 218.811 252.454 218.6C252.872 218.388 253.247 218.357 253.579 218.507C253.943 218.67 254.193 218.982 254.328 219.442C254.463 219.901 254.414 220.288 254.178 220.6C252.969 222.318 251.935 224.134 251.075 226.047C250.813 226.632 250.558 227.24 250.313 227.87C250.267 228.059 250.281 228.322 250.357 228.66C250.441 228.982 250.45 229.215 250.386 229.357C250.337 229.468 250.247 229.561 250.119 229.636C249.653 229.826 249.39 229.926 249.328 229.936C249.051 230.002 248.771 229.971 248.486 229.843Z" fill="#715C4A"/>
</svg>
