<svg width="327" height="197" viewBox="0 0 327 197" fill="none" xmlns="http://www.w3.org/2000/svg">
<path d="M1 196.064L5.51595 192.466L0.142751 190.354L1 196.064ZM326.133 62.0461C273.273 47.4461 209.336 37.3041 150.08 52.0954C90.7874 66.8959 36.2386 106.648 2.17672 191.704L3.10505 192.076C37.0519 107.307 91.3523 67.7856 150.322 53.0657C209.328 38.3366 273.066 48.4263 325.867 63.01L326.133 62.0461Z" fill="#FEB00A" fill-opacity="0.6"/>
<path d="M86.0678 67.2665C85.5245 67.6389 84.9696 67.6725 84.4032 67.3673C83.5639 66.7867 82.7915 65.9818 82.086 64.9524C81.6744 64.3519 81.1138 63.3807 80.4042 62.0389C79.7089 60.6872 79.1456 59.6968 78.7144 59.0678C78.5576 58.839 78.4979 58.4912 78.5351 58.0244C78.5724 57.5575 78.7411 57.2212 79.0414 57.0154C79.3702 56.79 79.7662 56.7393 80.2293 56.8631C80.6925 56.987 80.9961 57.2307 81.1402 57.5942C81.9776 59.521 82.9891 61.3493 84.1749 63.0793C84.5375 63.6083 84.9241 64.1418 85.3349 64.6798C85.4713 64.8174 85.7037 64.9418 86.0321 65.053C86.3506 65.1499 86.554 65.2626 86.6422 65.3913C86.7108 65.4914 86.7436 65.616 86.7408 65.765C86.6606 66.2613 86.6089 66.5384 86.5856 66.5964C86.4977 66.8668 86.3251 67.0901 86.0678 67.2665Z" fill="#715C4A"/>
<path d="M97.095 60.1404C96.8832 60.3269 96.6582 60.4911 96.4199 60.633C95.4518 61.2093 94.4314 61.4436 93.3586 61.3359C92.2919 61.2043 91.3734 60.7627 90.6031 60.0109C90.1914 59.5903 89.8348 59.1269 89.5333 58.6205C88.6112 57.0715 88.2932 55.3344 88.5793 53.4091C88.8654 51.4838 89.6751 49.862 91.0084 48.5438C91.1457 48.4016 91.2962 48.2817 91.46 48.1842C91.7877 47.9891 92.1076 47.8996 92.4196 47.9155C92.7229 47.9166 92.9232 47.999 93.0208 48.1628C93.1183 48.3267 93.067 48.5286 92.867 48.7687C90.4526 52.4048 90.0365 55.3657 91.619 57.6512C92.1201 57.1713 92.6093 56.6885 93.0866 56.2026C93.6891 55.6221 94.2286 55.1899 94.7052 54.9062C95.5244 54.4185 96.4021 54.1986 97.3383 54.2465C97.799 54.2748 98.1756 54.5347 98.4682 55.0262C98.7962 55.5773 98.8895 56.1068 98.7481 56.6146C98.6357 58.154 98.0847 59.3293 97.095 60.1404ZM96.1289 58.4159C96.5285 58.0368 96.7494 57.764 96.7916 57.5977C96.8668 57.3513 96.7623 57.0402 96.4783 56.6647C96.2208 56.3339 95.6809 56.4435 94.8585 56.9935C93.9347 57.6443 93.6413 58.2527 93.9782 58.8187C94.2974 59.3549 94.7475 59.4501 95.3283 59.1043C95.5368 58.9801 95.8037 58.7507 96.1289 58.4159Z" fill="#715C4A"/>
<path d="M103.935 43.7002C103.893 42.5218 103.85 41.3434 103.808 40.165C103.875 38.5839 104.336 37.5816 105.19 37.1581C105.485 37.0118 105.776 36.9741 106.062 37.0448C106.357 37.0923 106.569 37.2481 106.7 37.5121C106.793 37.6984 106.835 37.9195 106.826 38.1753C106.662 40.7328 106.502 43.2787 106.347 45.813C106.22 48.797 106.308 51.3747 106.611 53.5463C106.718 54.035 106.53 54.5731 106.047 55.1606C105.931 55.3152 105.787 55.4349 105.616 55.5196C105.336 55.6582 105.053 55.6727 104.767 55.5632C104.496 55.446 104.322 55.2323 104.246 54.9219C103.84 53.3624 103.653 51.5014 103.684 49.3388C103.76 47.4631 103.844 45.5836 103.935 43.7002Z" fill="#715C4A"/>
<path d="M120.598 48.5186C119.991 48.7729 119.441 48.6931 118.948 48.2792C118.244 47.5402 117.652 46.5952 117.17 45.4439C116.889 44.7723 116.537 43.7075 116.115 42.2495C115.709 40.7848 115.358 39.7007 115.064 38.9971C114.957 38.7413 114.969 38.3886 115.1 37.9391C115.231 37.4895 115.465 37.1945 115.801 37.054C116.169 36.9001 116.567 36.9308 116.995 37.1462C117.423 37.3615 117.671 37.6618 117.738 38.047C118.167 40.1037 118.786 42.0994 119.596 44.0342C119.843 44.6258 120.113 45.2267 120.406 45.8369C120.512 45.9994 120.714 46.1684 121.013 46.344C121.305 46.5035 121.482 46.6553 121.542 46.7992C121.589 46.9111 121.596 47.0397 121.562 47.1851C121.383 47.6547 121.276 47.9156 121.242 47.9676C121.101 48.2145 120.886 48.3982 120.598 48.5186Z" fill="#715C4A"/>
<path d="M134.457 40.737C133.779 42.0837 132.899 42.941 131.815 43.3087C131.257 43.4982 130.693 43.5342 130.122 43.4168C129.058 43.1925 128.101 42.7209 127.253 42.0021C126.416 41.2613 125.825 40.382 125.479 39.3644C124.977 37.8872 125.15 36.2912 125.995 34.5763C126.835 32.845 127.994 31.7286 129.471 31.2271C130.669 30.8203 131.906 31.0409 133.183 31.8889C134.167 32.5248 134.844 33.3844 135.211 34.4676C135.847 36.3387 135.595 38.4285 134.457 40.737ZM132.441 39.0051C132.872 37.6324 132.954 36.5521 132.686 35.7643C132.547 35.354 132.312 35.0127 131.982 34.7404C131.299 34.1851 130.695 33.9966 130.17 34.175C129.464 34.4146 128.91 34.9137 128.509 35.6724C128.124 36.4254 128.016 37.1578 128.184 37.8695C128.325 38.5538 128.643 39.1413 129.139 39.6319C129.646 40.1005 130.229 40.3603 130.887 40.4115C131.062 40.4434 131.24 40.4287 131.421 40.3674C131.88 40.2114 132.221 39.7573 132.441 39.0051Z" fill="#715C4A"/>
<path d="M144.898 28.5533C145.108 27.3929 145.317 26.2326 145.527 25.0722C145.93 23.5417 146.594 22.6607 147.518 22.429C147.838 22.3489 148.13 22.374 148.395 22.5042C148.672 22.6134 148.847 22.8109 148.919 23.0967C148.969 23.2985 148.963 23.5234 148.9 23.7714C148.195 26.2353 147.496 28.6887 146.804 31.1315C146.044 34.02 145.581 36.5573 145.414 38.7435C145.414 39.2437 145.116 39.7294 144.519 40.2006C144.372 40.3268 144.206 40.413 144.021 40.4594C143.719 40.5352 143.439 40.4891 143.183 40.3211C142.943 40.1488 142.819 39.903 142.81 39.5835C142.746 37.9734 142.96 36.1151 143.45 34.0087C143.925 32.1924 144.407 30.3739 144.898 28.5533Z" fill="#715C4A"/>
<path d="M159.04 36.1348C158.479 36.1411 158.142 35.811 158.031 35.1443C157.968 34.7682 157.99 34.4305 158.098 34.1312C158.408 33.2532 159.018 32.2281 159.928 31.0559C161.132 29.5358 161.878 28.532 162.165 28.0444C162.176 28.0073 162.178 27.9631 162.169 27.9119C162.152 27.8093 161.964 27.63 161.604 27.3739C161.382 27.3057 161.04 27.3104 160.578 27.3878C160.131 27.4453 159.789 27.4499 159.553 27.4017C159.33 27.3336 159.134 27.3139 158.963 27.3425C158.757 27.3769 158.524 27.504 158.262 27.7237C158 27.9434 157.775 28.069 157.587 28.1006C157.382 28.135 157.14 28.1053 156.86 28.0116C156.455 27.7983 156.201 27.384 156.098 26.7686C156.058 26.5292 156.041 26.2685 156.046 25.9864C156.137 25.3737 156.549 25.0056 157.284 24.8823C157.455 24.8536 157.698 24.8306 158.011 24.8131C158.342 24.7928 158.567 24.7726 158.686 24.7526C160.618 24.4285 162.063 24.4497 163.021 24.8163C163.767 25.0777 164.199 25.2425 164.316 25.3107C164.838 25.5923 165.133 25.9382 165.202 26.3485C165.222 26.4681 165.22 26.6092 165.194 26.7716C164.962 28.4275 163.837 30.3123 161.819 32.426C161.591 32.7454 161.489 32.9735 161.512 33.1102C161.526 33.1957 161.619 33.2241 161.79 33.1954C162.491 33.1833 163.361 33.1339 164.401 33.0473C164.988 32.984 165.879 33.0015 167.073 33.1C167.158 33.0856 167.29 33.1339 167.466 33.2449C167.64 33.3387 167.739 33.454 167.762 33.5908C167.89 33.9383 167.872 34.3016 167.707 34.6808C167.54 35.0429 167.3 35.2939 166.99 35.4339C165.95 35.7313 165.106 35.9346 164.456 36.0436C163.806 36.1525 163.058 36.1989 162.212 36.1827C160.485 36.1561 159.428 36.1401 159.04 36.1348Z" fill="#715C4A"/>
<path d="M181.309 31.6616C180.325 32.8033 179.262 33.4209 178.122 33.5144C177.535 33.5626 176.978 33.4604 176.453 33.2078C175.475 32.7315 174.662 32.0417 174.014 31.1383C173.382 30.2162 173.022 29.2197 172.934 28.1486C172.806 26.5938 173.361 25.0874 174.598 23.6294C175.834 22.1541 177.229 21.3527 178.784 21.2252C180.045 21.1217 181.191 21.6364 182.223 22.7691C183.024 23.6252 183.471 24.6233 183.565 25.7635C183.726 27.7329 182.974 29.6989 181.309 31.6616ZM179.775 29.4918C180.526 28.265 180.868 27.2369 180.8 26.4077C180.765 25.9758 180.62 25.5877 180.365 25.2433C179.838 24.5387 179.298 24.2091 178.745 24.2545C178.002 24.3154 177.344 24.6651 176.77 25.3034C176.214 25.9404 175.931 26.6245 175.921 27.3557C175.891 28.0538 176.058 28.7011 176.42 29.2975C176.797 29.8752 177.299 30.2688 177.925 30.4783C178.088 30.552 178.264 30.581 178.454 30.5654C178.938 30.5257 179.378 30.1679 179.775 29.4918Z" fill="#715C4A"/>
<path d="M191.455 32.8494C190.9 32.7613 190.624 32.3792 190.625 31.7033C190.626 31.3219 190.705 30.9928 190.862 30.7158C191.315 29.9023 192.088 28.9943 193.183 27.9917C194.625 26.6953 195.528 25.831 195.893 25.3986C195.911 25.3639 195.92 25.3206 195.92 25.2686C195.92 25.1646 195.765 24.9562 195.453 24.6434C195.246 24.5389 194.908 24.4861 194.44 24.4849C193.989 24.4664 193.651 24.4135 193.426 24.3263C193.218 24.2218 193.028 24.1693 192.855 24.1689C192.647 24.1683 192.395 24.2544 192.1 24.427C191.805 24.5995 191.562 24.6856 191.371 24.6851C191.163 24.6846 190.929 24.6147 190.67 24.4753C190.306 24.1971 190.126 23.746 190.127 23.122C190.128 22.8793 190.154 22.6194 190.207 22.3422C190.399 21.7533 190.868 21.4598 191.613 21.4617C191.787 21.4622 192.029 21.4801 192.341 21.5156C192.67 21.5511 192.896 21.569 193.017 21.5693C194.976 21.5742 196.396 21.8378 197.279 22.36C197.971 22.7431 198.37 22.9781 198.473 23.0651C198.94 23.4303 199.173 23.8208 199.172 24.2368C199.172 24.3582 199.146 24.4968 199.093 24.6526C198.587 26.246 197.161 27.9151 194.817 29.6598C194.539 29.9365 194.399 30.1441 194.399 30.2828C194.399 30.3695 194.485 30.413 194.659 30.4134C195.352 30.5192 196.218 30.6167 197.258 30.706C197.847 30.7422 198.722 30.9091 199.883 31.2067C199.969 31.2069 200.091 31.2765 200.246 31.4156C200.402 31.5373 200.48 31.6675 200.479 31.8062C200.548 32.1703 200.469 32.5255 200.243 32.8716C200.016 33.2003 199.739 33.4076 199.409 33.4935C198.334 33.6121 197.467 33.6706 196.809 33.6689C196.15 33.6672 195.405 33.5873 194.573 33.4292C192.875 33.1129 191.836 32.9196 191.455 32.8494Z" fill="#715C4A"/>
<path d="M208.169 34.1643C207.512 34.1188 207.057 33.8007 206.802 33.2097C206.505 32.2335 206.399 31.1229 206.485 29.8779C206.535 29.1516 206.699 28.0423 206.976 26.5498C207.27 25.0586 207.443 23.9325 207.496 23.1716C207.515 22.895 207.684 22.5852 208.003 22.2424C208.322 21.8996 208.663 21.7407 209.026 21.7658C209.424 21.7933 209.766 21.9994 210.052 22.384C210.338 22.7687 210.425 23.1482 210.312 23.5227C209.772 25.553 209.43 27.6143 209.286 29.7066C209.241 30.3464 209.213 31.0047 209.201 31.6815C209.223 31.8741 209.327 32.1159 209.516 32.4069C209.705 32.6806 209.795 32.8953 209.784 33.0509C209.776 33.172 209.724 33.29 209.629 33.4051C209.258 33.7443 209.046 33.9295 208.991 33.9605C208.755 34.1178 208.481 34.1858 208.169 34.1643Z" fill="#715C4A"/>
</svg>
