<svg width="1273" height="185" viewBox="0 0 1273 185" fill="none" xmlns="http://www.w3.org/2000/svg">
<path d="M166.65 108.796C167.359 112.591 166.299 116.638 163.619 120.755C160.935 124.879 156.661 129.014 151.074 132.914C139.903 140.712 123.645 147.454 104.95 151.239C86.2553 155.025 68.756 155.119 55.5915 152.248C49.0077 150.813 43.5559 148.647 39.5834 145.871C35.6164 143.1 33.1763 139.761 32.4674 135.967C31.7584 132.172 32.8186 128.125 35.4985 124.007C38.182 119.884 42.4563 115.748 48.0433 111.848C59.2146 104.051 75.4719 97.309 94.1669 93.5235C112.862 89.738 130.361 89.6441 143.526 92.5144C150.109 93.9498 155.561 96.1163 159.534 98.8917C163.501 101.663 165.941 105.002 166.65 108.796Z" stroke="#4F8A00" stroke-width="2" stroke-linecap="round"/>
<path d="M37.8145 144.467C33.3242 137.385 38.9858 120.548 95.211 109.863C165.492 96.5074 165.492 114.113 166.078 115.934" stroke="#4F8A00" stroke-width="2" stroke-linecap="round"/>
<path d="M41.9479 130.246C48.641 135.669 68.7564 144.061 98.0486 136.83C134.664 127.792 139.389 115.155 145.885 105.514" stroke="#4F8A00" stroke-width="2" stroke-linecap="round" stroke-dasharray="8 8"/>
<path d="M172.611 98.713C177.561 101.392 185.678 110.337 178.551 124.682" stroke="#4F8A00" stroke-width="2" stroke-linecap="round" stroke-linejoin="round"/>
<path d="M193.399 103.66C196.566 105.514 201.714 111.326 196.962 119.735" stroke="#4F8A00" stroke-width="2" stroke-linecap="round" stroke-linejoin="round"/>
<path d="M22.9422 114.789C17.3989 118.087 7.97525 128.392 14.6272 143.231M1.56085 129.628C0.175029 136.636 0.491789 151.516 12.8454 154.979" stroke="#4F8A00" stroke-width="2" stroke-linecap="round" stroke-linejoin="round"/>
<path d="M131.07 183.25C431 -49 937 -68.5 1272 183.25" stroke="#4F8A00" stroke-width="2" stroke-linecap="round" stroke-linejoin="round" stroke-dasharray="10 10"/>
</svg>
