<svg width="1362" height="236" viewBox="0 0 1362 236" fill="none" xmlns="http://www.w3.org/2000/svg">
<path d="M181.561 154.44C182.461 158.182 181.5 162.263 178.805 166.498C176.107 170.737 171.714 175.055 165.913 179.192C154.315 187.463 137.26 194.887 117.496 199.458C97.7322 204.028 79.0923 204.859 64.9494 202.541C57.8755 201.381 51.978 199.443 47.634 196.833C43.2939 194.225 40.5757 190.995 39.6762 187.253C38.7766 183.511 39.7374 179.43 42.4328 175.195C45.1306 170.956 49.524 166.638 55.3249 162.501C66.9225 154.231 83.9773 146.806 103.741 142.235C123.505 137.665 142.145 136.834 156.288 139.152C163.362 140.312 169.259 142.25 173.603 144.86C177.944 147.468 180.662 150.698 181.561 154.44Z" stroke="#4F8A00" stroke-opacity="0.75" stroke-width="2" stroke-linecap="round"/>
<path d="M45.7642 195.508C40.7053 188.619 46.0682 171.558 105.497 158.52C179.784 142.223 180.478 159.815 181.173 161.61" stroke="#4F8A00" stroke-opacity="0.75" stroke-width="2" stroke-linecap="round"/>
<path d="M49.6036 181.124C56.942 186.262 78.6851 193.802 109.581 185.347C148.201 174.779 152.732 161.953 159.267 152.047" stroke="#4F8A00" stroke-opacity="0.75" stroke-width="2" stroke-linecap="round" stroke-dasharray="8 8"/>
<path d="M187.449 144.128C192.823 146.598 201.816 155.195 194.795 169.828" stroke="#4F8A00" stroke-opacity="0.75" stroke-width="2" stroke-linecap="round" stroke-linejoin="round"/>
<path d="M209.771 148.199C213.216 149.919 218.924 155.511 214.198 164.112" stroke="#4F8A00" stroke-opacity="0.75" stroke-width="2" stroke-linecap="round" stroke-linejoin="round"/>
<path d="M28.7633 166.477C22.9925 170.005 13.3676 180.698 21.0334 195.246M6.58834 182.203C5.38939 189.263 6.31315 204.118 19.5998 207.059" stroke="#4F8A00" stroke-opacity="0.75" stroke-width="2" stroke-linecap="round" stroke-linejoin="round"/>
<path d="M146.561 230.345C456.674 -14.32 994.53 -55.0536 1361.05 182.433" stroke="#4F8A00" stroke-opacity="0.7" stroke-width="1.5" stroke-linecap="round" stroke-linejoin="round" stroke-dasharray="10 10"/>
</svg>
