<svg width="152" height="144" viewBox="0 0 152 144" fill="none" xmlns="http://www.w3.org/2000/svg">
<path d="M0 141L5.19469 143.52L4.77941 137.761L0 141ZM150.502 0.953095C146.441 44.0533 111.486 131.297 4.44897 140.178L4.53166 141.174C112.239 132.238 147.412 44.4137 151.498 1.0469L150.502 0.953095Z" fill="#FEB00A" fill-opacity="0.6"/>
<path d="M30.7124 124.016C30.1563 124.093 29.7808 123.808 29.5858 123.161C29.4758 122.796 29.4554 122.458 29.5248 122.147C29.7213 121.237 30.1973 120.143 30.9529 118.866C31.9554 117.206 32.5684 116.116 32.7919 115.596C32.7985 115.558 32.7943 115.514 32.7793 115.464C32.7493 115.365 32.5399 115.211 32.1512 115.002C31.922 114.962 31.5834 115.01 31.1353 115.145C30.6988 115.258 30.3602 115.306 30.1194 115.288C29.8902 115.249 29.6927 115.254 29.5267 115.304C29.3276 115.364 29.1119 115.519 28.8798 115.77C28.6476 116.021 28.4403 116.174 28.2577 116.229C28.0586 116.289 27.8145 116.29 27.5256 116.233C27.097 116.072 26.7928 115.693 26.6128 115.096C26.5428 114.863 26.4926 114.607 26.4624 114.326C26.475 113.707 26.8381 113.29 27.5517 113.075C27.7177 113.025 27.955 112.971 28.2638 112.915C28.5891 112.853 28.8099 112.804 28.926 112.769C30.8014 112.204 32.2374 112.043 33.2338 112.286C34.0076 112.451 34.4569 112.56 34.5814 112.613C35.1346 112.827 35.4711 113.133 35.5911 113.531C35.6261 113.647 35.6412 113.787 35.6364 113.952C35.6152 115.624 34.7368 117.635 33.0013 119.987C32.8157 120.332 32.743 120.571 32.783 120.704C32.808 120.787 32.9035 120.804 33.0694 120.754C33.7633 120.653 34.6206 120.494 35.6414 120.277C36.2157 120.141 37.1013 120.046 38.2983 119.993C38.3813 119.968 38.5174 119.999 38.7068 120.087C38.8912 120.158 39.0034 120.26 39.0434 120.393C39.2147 120.721 39.2426 121.084 39.1268 121.481C39.0061 121.861 38.8005 122.141 38.5102 122.319C37.5162 122.745 36.7039 123.053 36.0732 123.243C35.4426 123.433 34.7064 123.573 33.8648 123.664C32.1483 123.855 31.0975 123.973 30.7124 124.016Z" fill="#715C4A"/>
<path d="M44.7878 108.077C44.8221 106.898 44.8563 105.72 44.8906 104.541C45.0607 102.968 45.5857 101.997 46.4656 101.63C46.7695 101.504 47.0622 101.485 47.3436 101.574C47.6342 101.641 47.8363 101.81 47.9497 102.082C48.0298 102.274 48.0572 102.497 48.032 102.752C47.7022 105.293 47.377 107.823 47.0566 110.342C46.7363 113.312 46.6565 115.89 46.8173 118.076C46.8921 118.571 46.6696 119.096 46.1498 119.651C46.0232 119.797 45.8719 119.907 45.6959 119.981C45.408 120.101 45.1246 120.097 44.8459 119.969C44.5832 119.834 44.4238 119.61 44.3677 119.295C44.0645 117.713 43.9985 115.843 44.1697 113.687C44.3678 111.821 44.5738 109.95 44.7878 108.077Z" fill="#715C4A"/>
<path d="M61.152 112.914C60.5671 113.217 60.0123 113.182 59.4876 112.81C58.726 112.131 58.0583 111.237 57.4844 110.129C57.1496 109.482 56.7125 108.45 56.173 107.031C55.6489 105.604 55.2115 104.552 54.8608 103.875C54.7333 103.629 54.7167 103.276 54.8109 102.817C54.9052 102.359 55.114 102.046 55.4372 101.878C55.7913 101.695 56.1905 101.693 56.6349 101.873C57.0794 102.053 57.3508 102.332 57.4492 102.71C58.0436 104.725 58.823 106.664 59.7874 108.526C60.0824 109.096 60.4006 109.673 60.7422 110.257C60.8607 110.41 61.076 110.562 61.3883 110.713C61.6925 110.848 61.8805 110.985 61.9523 111.124C62.0081 111.232 62.0254 111.359 62.0042 111.507C61.8637 111.989 61.7784 112.258 61.7482 112.313C61.6278 112.57 61.429 112.771 61.152 112.914Z" fill="#715C4A"/>
<path d="M73.7341 102.678C73.3957 104.147 72.7439 105.189 71.779 105.803C71.2819 106.12 70.7422 106.289 70.16 106.31C69.0725 106.345 68.0315 106.114 67.037 105.617C66.0477 105.096 65.2644 104.383 64.6872 103.476C63.8492 102.161 63.6372 100.569 64.0514 98.7027C64.4562 96.8214 65.3165 95.4618 66.6323 94.6238C67.6996 93.9441 68.9539 93.8646 70.3951 94.3852C71.5026 94.769 72.3637 95.4434 72.9782 96.4084C74.0396 98.0751 74.2916 100.165 73.7341 102.678ZM71.3647 101.474C71.4573 100.038 71.2801 98.9694 70.8332 98.2676C70.6004 97.9021 70.2912 97.6264 69.9056 97.4404C69.1105 97.0631 68.479 97.0234 68.0112 97.3214C67.3825 97.7218 66.9633 98.3381 66.7535 99.1704C66.5584 99.9933 66.6271 100.73 66.9597 101.382C67.259 102.013 67.7079 102.508 68.3062 102.867C68.9099 103.202 69.5374 103.316 70.1888 103.209C70.3669 103.199 70.5364 103.142 70.6972 103.04C71.1066 102.779 71.3291 102.257 71.3647 101.474Z" fill="#715C4A"/>
<path d="M78.9114 87.9852C78.6211 86.8423 78.3309 85.6994 78.0406 84.5565C77.7728 82.9967 78.0117 81.9198 78.7572 81.3256C79.0148 81.1204 79.2911 81.0221 79.5861 81.0308C79.8839 81.0151 80.1246 81.1224 80.3083 81.3529C80.4379 81.5155 80.5255 81.7228 80.5711 81.9746C80.9508 84.5091 81.3318 87.0314 81.7143 89.5415C82.2205 92.485 82.8506 94.9861 83.6048 97.0448C83.8124 97.5 83.7423 98.0656 83.3945 98.7417C83.313 98.9175 83.1977 99.0648 83.0486 99.1837C82.8046 99.3781 82.531 99.452 82.2279 99.4055C81.9384 99.3481 81.7235 99.1758 81.5833 98.8886C80.8578 97.4498 80.2818 95.6702 79.8553 93.5498C79.5339 91.7004 79.2192 89.8455 78.9114 87.9852Z" fill="#715C4A"/>
<path d="M94.7864 88.1865C94.3296 88.5129 93.8646 88.4347 93.3914 87.9519C93.1245 87.6796 92.9496 87.3898 92.8669 87.0825C92.6185 86.1853 92.5323 84.9955 92.6085 83.5131C92.7259 81.5777 92.7629 80.3278 92.7195 79.7636C92.7077 79.7267 92.6835 79.6896 92.6471 79.6525C92.5743 79.5782 92.3173 79.5389 91.8761 79.5345C91.6547 79.6058 91.377 79.8053 91.0427 80.1329C90.7088 80.436 90.431 80.6354 90.2094 80.7313C89.9881 80.8026 89.8155 80.8989 89.6917 81.0202C89.5432 81.1658 89.4243 81.4037 89.3352 81.7337C89.2461 82.0638 89.1335 82.2955 88.9973 82.429C88.8488 82.5746 88.6332 82.6889 88.3504 82.7719C87.8963 82.8286 87.4509 82.6341 87.0141 82.1885C86.8442 82.0152 86.6808 81.8113 86.5238 81.5769C86.2474 81.0225 86.3754 80.4845 86.9077 79.9628C87.0315 79.8415 87.2169 79.684 87.464 79.4903C87.7234 79.2845 87.8965 79.1392 87.9831 79.0543C89.3819 77.6832 90.5789 76.874 91.5743 76.6265C92.3363 76.4135 92.7848 76.3016 92.9198 76.2907C93.5088 76.223 93.9489 76.3377 94.2401 76.6348C94.325 76.7215 94.4035 76.8387 94.4756 76.9865C95.2329 78.4772 95.3887 80.6666 94.943 83.5549C94.9391 83.9471 94.9857 84.1927 95.0827 84.2917C95.1434 84.3536 95.2356 84.3239 95.3594 84.2025C95.9274 83.7915 96.613 83.2529 97.4164 82.5868C97.8615 82.199 98.6019 81.7039 99.6376 81.1014C99.6995 81.0407 99.8346 81.0053 100.043 80.9951C100.239 80.9726 100.386 81.0108 100.483 81.1099C100.788 81.3213 100.981 81.6296 101.062 82.0349C101.132 82.4279 101.079 82.7705 100.905 83.063C100.222 83.9019 99.6459 84.5519 99.1755 85.0129C98.7052 85.474 98.1183 85.94 97.4149 86.411C95.9834 87.3773 95.1072 87.9691 94.7864 88.1865Z" fill="#715C4A"/>
<path d="M109.1 70.2043C109.237 71.7056 108.943 72.8988 108.218 73.7838C107.845 74.2397 107.385 74.5688 106.838 74.7709C105.816 75.1435 104.755 75.249 103.655 75.0874C102.552 74.9014 101.586 74.4679 100.754 73.787C99.5474 72.7984 98.8494 71.3529 98.6602 69.4502C98.4576 67.5366 98.8506 65.9764 99.8391 64.7696C100.641 63.7907 101.808 63.3236 103.339 63.3684C104.511 63.3874 105.54 63.7593 106.425 64.4842C107.954 65.7364 108.845 67.643 109.1 70.2043ZM106.473 69.8003C106.113 68.4074 105.611 67.4473 104.967 66.9201C104.632 66.6455 104.252 66.48 103.828 66.4237C102.955 66.3135 102.343 66.4729 101.991 66.902C101.519 67.4786 101.313 68.1949 101.373 69.0511C101.445 69.8939 101.74 70.5727 102.259 71.0877C102.741 71.5941 103.322 71.9243 104.002 72.0783C104.68 72.208 105.312 72.1205 105.898 71.816C106.064 71.7502 106.207 71.6436 106.328 71.4961C106.635 71.1206 106.684 70.5554 106.473 69.8003Z" fill="#715C4A"/>
<path d="M116.597 62.8328C116.222 63.2503 115.751 63.2746 115.184 62.9058C114.865 62.6977 114.631 62.4526 114.484 62.1706C114.047 61.3484 113.706 60.2054 113.459 58.7418C113.155 56.8268 112.92 55.5986 112.756 55.0571C112.736 55.0236 112.704 54.9927 112.661 54.9644C112.574 54.9076 112.314 54.9248 111.883 55.016C111.682 55.1336 111.454 55.3885 111.198 55.7807C110.938 56.1489 110.71 56.4037 110.514 56.5453C110.314 56.6628 110.166 56.7942 110.072 56.9395C109.958 57.1138 109.894 57.3717 109.878 57.7132C109.863 58.0547 109.803 58.3054 109.699 58.4652C109.585 58.6395 109.399 58.7977 109.141 58.94C108.71 59.0937 108.233 59.0003 107.71 58.6598C107.507 58.5274 107.303 58.3637 107.099 58.1688C106.71 57.6874 106.718 57.1345 107.125 56.5099C107.219 56.3646 107.366 56.1707 107.565 55.9282C107.774 55.6711 107.912 55.4917 107.978 55.3901C109.047 53.7487 110.04 52.6995 110.958 52.2424C111.656 51.8695 112.07 51.6631 112.199 51.6232C112.76 51.4296 113.214 51.4463 113.563 51.6733C113.664 51.7395 113.766 51.837 113.869 51.9657C114.931 53.2571 115.557 55.3609 115.747 58.2771C115.828 58.6608 115.927 58.8905 116.043 58.9662C116.116 59.0135 116.199 58.9645 116.294 58.8192C116.759 58.295 117.312 57.6207 117.952 56.7965C118.303 56.3215 118.919 55.6778 119.799 54.8654C119.846 54.7928 119.971 54.7289 120.172 54.6739C120.359 54.6094 120.51 54.6149 120.627 54.6906C120.969 54.8311 121.225 55.0904 121.392 55.4684C121.545 55.8369 121.568 56.1828 121.461 56.5061C120.976 57.4729 120.554 58.2322 120.195 58.7842C119.836 59.3362 119.363 59.9182 118.779 60.5303C117.59 61.7836 116.863 62.551 116.597 62.8328Z" fill="#715C4A"/>
<path d="M126.178 48.5618C125.868 49.1425 125.391 49.428 124.747 49.418C123.735 49.2893 122.679 48.9306 121.578 48.3419C120.936 47.9985 119.991 47.3948 118.743 46.5306C117.504 45.6512 116.548 45.0316 115.875 44.6719C115.631 44.541 115.417 44.2599 115.235 43.8284C115.053 43.3968 115.048 43.0206 115.22 42.6996C115.408 42.3481 115.736 42.1206 116.204 42.0172C116.672 41.9138 117.054 41.9902 117.349 42.2465C118.98 43.571 120.72 44.7279 122.57 45.7171C123.135 46.0196 123.724 46.3151 124.336 46.6033C124.521 46.6627 124.784 46.6661 125.127 46.6135C125.455 46.5527 125.687 46.5591 125.825 46.6327C125.932 46.69 126.018 46.7854 126.084 46.9191C126.242 47.3964 126.323 47.6662 126.329 47.7284C126.376 48.0089 126.326 48.2866 126.178 48.5618Z" fill="#715C4A"/>
</svg>
