<svg width="1223" height="704" viewBox="0 0 1223 704" fill="none" xmlns="http://www.w3.org/2000/svg">
<path d="M741.018 700.626C751.336 700.386 754.077 700.746 771.811 699.666C852.098 694.745 1198.56 696.545 1218.71 507.889C1241.28 297.271 1180.18 -148.568 906.751 49.5689C633.324 247.706 668.631 403.84 482.101 265.108C295.572 126.376 38.653 -21.5852 12.8581 246.038C-12.9369 513.662 -19.6104 644.221 189.329 678.784C390.046 712.147 596.728 703.986 741.018 700.626Z" fill="#FFE6BB" fill-opacity="0.9"/>
<path d="M277.204 360.78L283.204 347.58L278.344 344.82L270.724 357.06L277.204 360.78ZM290.284 360.78L296.284 347.58L291.424 344.82L283.804 357.06L290.284 360.78Z" fill="#8BBD4E"/>
<path d="M938.204 578.78L944.204 565.58L939.344 562.82L931.724 575.06L938.204 578.78ZM951.284 578.78L957.284 565.58L952.424 562.82L944.804 575.06L951.284 578.78Z" fill="#8BBD4E"/>
</svg>
