<svg width="24" height="28" viewBox="0 0 24 28" fill="none" xmlns="http://www.w3.org/2000/svg">
<path d="M20.0816 14.7964C20.0694 12.5023 21.0837 10.7707 23.1369 9.49548C21.9881 7.81392 20.2527 6.88875 17.9613 6.70747C15.792 6.53244 13.4211 8.00146 12.5535 8.00146C11.6369 8.00146 9.53486 6.76998 7.88502 6.76998C4.47535 6.82624 0.851807 9.55174 0.851807 15.0965C0.851807 16.7343 1.14511 18.4263 1.73172 20.1724C2.51387 22.4666 5.33693 28.0926 8.2822 27.9988C9.82205 27.9613 10.9097 26.8799 12.914 26.8799C14.8571 26.8799 15.8654 27.9988 17.5824 27.9988C20.5521 27.9551 23.1063 22.8417 23.8518 20.5412C19.8677 18.6221 20.0816 14.9152 20.0816 14.7964V14.7964ZM16.6231 4.53207C18.2912 2.50671 18.1385 0.662621 18.0896 0C16.617 0.0875159 14.9121 1.02519 13.9405 2.18165C12.8712 3.41937 12.2418 4.9509 12.3762 6.67621C13.9711 6.80124 15.4254 5.96358 16.6231 4.53207V4.53207Z" fill="#1E0B05"/>
</svg>
