<svg width="27" height="24" viewBox="0 0 27 24" fill="none" xmlns="http://www.w3.org/2000/svg">
<path d="M17.7056 8V7.19948C17.7056 4.88017 15.8254 3 13.5061 3V3C11.1868 3 9.30664 4.88017 9.30664 7.19948V8" stroke="#1E0B05" stroke-width="2" stroke-linecap="round"/>
<path fill-rule="evenodd" clip-rule="evenodd" d="M4.93532 7.87868C4.05664 8.75736 4.05664 10.1716 4.05664 13V14C4.05664 17.7712 4.05664 19.6569 5.22821 20.8284C6.39979 22 8.2854 22 12.0566 22H14.9543C18.7255 22 20.6111 22 21.7827 20.8284C22.9543 19.6569 22.9543 17.7712 22.9543 14V13C22.9543 10.1716 22.9543 8.75736 22.0756 7.87868C21.1969 7 19.7827 7 16.9543 7H10.0566C7.22821 7 5.814 7 4.93532 7.87868ZM13.5055 15C14.2332 15 14.6551 14.4617 14.6551 14C14.6551 13.5383 14.2332 13 13.5055 13C12.7777 13 12.3559 13.5383 12.3559 14C12.3559 14.4617 12.7777 15 13.5055 15ZM16.6551 14C16.6551 15.3239 15.7547 16.4475 14.5055 16.8456V19H12.5055V16.8456C11.2562 16.4475 10.3559 15.3239 10.3559 14C10.3559 12.3431 11.766 11 13.5055 11C15.2449 11 16.6551 12.3431 16.6551 14Z" fill="#1E0B05"/>
</svg>
