<svg width="161" height="72" viewBox="0 0 161 72" fill="none" xmlns="http://www.w3.org/2000/svg">
<g clip-path="url(#clip0)">
<path d="M27.088 35.2983C27.4677 35.2862 27.5686 35.3043 28.2211 35.2501C31.1755 35.0031 43.9246 35.0935 44.6661 25.6244C45.4967 15.053 43.2483 -7.32469 33.1867 2.62027C23.1251 12.5652 24.4243 20.4019 17.5604 13.4386C10.6964 6.47536 1.46538 -3.96954 0.516171 9.46307C-0.433035 22.8957 -0.901706 32.4672 6.78687 34.202C14.1729 35.8765 21.7784 35.4669 27.088 35.2983Z" fill="#FF842E"/>
<path d="M79.1342 35.2501C79.1342 35.2501 91.2069 34.7923 88.3059 26.6785C85.4049 18.5647 81.8572 18.625 80.1961 15.2638C78.535 11.9026 82.7589 10.7521 84.8709 10.457C87.6355 10.0654 91.1416 6.96931 88.2465 2.94555C85.3455 -1.07821 75.2128 -0.27707 71.2854 2.96965C67.9691 5.71038 63.7452 10.5774 69.3099 16.8239C74.8746 23.0704 76.1501 24.7811 73.5694 26.6785C71.3566 28.3049 68.598 31.6058 71.4397 33.5876C74.2813 35.5693 78.0366 35.3465 79.1342 35.2501Z" fill="#8BBC49"/>
<path d="M99.7141 24.8112C99.7141 24.8112 110.381 25.3653 112.795 18.2274C114.937 11.9026 113.596 4.87307 107.456 2.49376C101.316 0.114437 96.6885 -1.35532 92.4705 2.04801C89.9432 4.08398 89.2254 4.89717 87.7185 16.4986C86.1227 28.7446 88.0448 33.4129 90.5246 34.5754C93.0044 35.738 98.3556 35.0453 99.4531 33.3165C100.551 31.5937 99.7141 24.8112 99.7141 24.8112Z" fill="#00A69A"/>
<path d="M120.217 25.8954C119.95 25.3533 120.371 24.7088 120.917 24.8533C123.682 25.5702 130.48 26.799 131.578 21.9801C132.966 15.9023 128.333 11.0955 124.079 10.9629C119.825 10.8304 115.696 10.3666 112.368 16.2336C109.402 21.4741 109.497 28.9855 113.205 32.2563C116.907 35.5211 125.521 37.027 128.671 33.0274C128.701 32.9852 128.736 32.9491 128.766 32.9069C130.439 30.7264 128.671 27.3833 126.126 27.9314C123.984 28.3892 121.415 28.3169 120.217 25.8954Z" fill="#FF842E"/>
<path d="M143.437 35.1657C144.066 35.1537 144.689 35.1416 145.312 35.1718C147.186 35.244 151.476 34.7802 150.894 28.9072C150.159 21.4139 148.153 15.5891 150.948 15.2337C153.742 14.8783 160.493 16.5408 160.6 11.5472C160.707 6.55367 161.864 -0.222871 157.859 0.0120488C153.855 0.246969 139.296 2.86723 132.023 2.03598C124.75 1.20472 124.957 5.84289 125.906 10.3606C126.856 14.8783 128.968 18.3298 133.5 16.3059C138.032 14.2819 139.723 17.9684 139.302 23.0824C138.893 27.9314 137.35 35.2621 143.437 35.1657Z" fill="#FEB00A"/>
<path d="M55.9617 35.6235C54.0693 35.5874 50.3199 35.6958 44.5179 33.7683C38.7218 31.8467 45.2298 23.3173 51.5005 15.2638C54.532 11.3725 58.0322 12.4206 61.4019 15.4385V13.0712C61.4019 12.3785 61.7697 11.7219 62.3867 11.4268C63.2647 11.0051 64.119 11.228 64.6588 11.7761C65.0029 12.1255 65.2165 12.6074 65.2165 13.1435V19.649C67.3878 22.4499 69.393 25.6304 71.0304 28.2446C76.0019 36.1717 55.9617 35.6235 55.9617 35.6235Z" fill="#FEB00A"/>
<path d="M13.7635 45.7552C16.6586 46.1769 18.6875 47.6647 19.8681 50.2187C20.0995 50.8391 20.1588 51.568 20.0461 52.4053C19.7139 54.7966 18.0231 56.5073 14.9738 57.5434C13.6746 57.8807 12.5474 58.0433 11.5922 58.0253L11.9245 65.2536L5.68342 65.9463L3.52991 46.4419C8.51324 45.7191 11.9245 45.4902 13.7635 45.7552ZM11.0642 51.3571L11.2303 53.5738C13.4847 53.3871 14.6534 52.9835 14.7365 52.3571C14.8314 51.7246 14.4932 51.309 13.7339 51.0981C12.8737 50.9897 11.9838 51.074 11.0642 51.3571Z" fill="#583719"/>
<path d="M31.1696 52.5318C32.6409 53.7485 33.4002 55.3689 33.4358 57.4048L25.4566 61.0913C25.8066 61.5069 26.6075 61.7238 27.8533 61.7539C29.0991 61.784 30.6475 60.9889 32.5044 59.3685L33.5604 62.9827C30.8552 65.7294 27.9067 66.7354 24.715 66.0065C22.0928 64.9404 20.5681 62.8321 20.141 59.6697C20.0757 57.6639 20.3546 55.9953 20.9775 54.6581C22.3894 52.4956 24.2285 51.4234 26.4947 51.4535C28.3398 51.321 29.8941 51.6824 31.1696 52.5318ZM24.3116 57.6398L28.9983 55.5375C28.2211 54.5978 27.0999 54.3629 25.6345 54.8328C24.6201 55.3869 24.1811 56.3206 24.3116 57.6398Z" fill="#583719"/>
<path d="M41.9135 45.4118L41.2431 50.4536L42.8864 50.5801L43.2601 54.2485L40.3829 54.3448C39.2972 58.5734 39.3565 60.8503 40.5608 61.1756C40.9939 61.2117 41.3736 61.0973 41.688 60.8383L43.8 64.0127C42.5304 65.3018 41.0058 65.9463 39.226 65.9463C37.1793 65.9463 35.9097 65.115 35.4292 63.4465C34.8893 61.1395 34.9309 58.0915 35.5419 54.2966L33.2223 54.2244L33.8452 50.4958L36.2064 50.3391L36.7344 45.9479L41.9135 45.4118Z" fill="#583719"/>
<path d="M60.4407 45.9479C63.1875 46.7973 64.4689 48.4357 64.291 50.8632C64.0299 51.9535 63.3121 53.0016 62.1374 53.9955L63.2765 54.2665C66.1597 55.3026 67.6962 56.9591 67.8801 59.236C67.9751 60.7419 67.6547 62.0912 66.9369 63.2899C65.0563 65.4825 60.5416 66.3499 53.3929 65.886L50.9427 47.49C54.3896 45.8696 57.5575 45.3576 60.4407 45.9479ZM57.5753 50.2729L57.7711 52.2185C59.1237 51.8511 59.8594 51.2367 59.9839 50.3693C59.9483 50.1223 59.7822 49.9536 59.4975 49.8633C58.9576 49.7368 58.3169 49.8753 57.5753 50.2729ZM58.4355 61.0973C60.8382 60.8804 62.0663 60.3564 62.1196 59.5131C62.2205 59.0493 62.0069 58.7541 61.4789 58.6216C60.4763 58.3867 59.4263 58.465 58.3228 58.8625L58.4355 61.0973Z" fill="#583719"/>
<path d="M75.6637 51.2307C78.3511 51.2307 80.125 52.4053 80.9911 54.7605C81.1691 55.3086 81.2403 56.0074 81.2166 56.8627C81.2166 59.5854 80.1012 62.0912 77.8647 64.3862C76.7494 65.4584 75.1713 65.9704 73.1246 65.9101C70.0456 65.8258 68.3489 63.9043 68.0344 60.1516C67.8683 56.7603 69.0786 54.2123 71.6652 52.5016C73.0652 51.6523 74.4001 51.2307 75.6637 51.2307ZM72.6025 59.5312C72.7627 60.519 73.2491 61.013 74.0619 61.013C75.8417 60.7118 76.7731 59.7601 76.8561 58.1638C76.9214 56.8627 76.4705 56.1941 75.5094 56.1579C73.611 56.4772 72.6381 57.6036 72.6025 59.5312Z" fill="#583719"/>
<path d="M88.9644 51.1584C91.3078 51.056 92.7494 52.7847 93.2892 56.3387C93.7223 59.5191 94.0308 62.29 94.2088 64.6512L89.6348 66.0065L89.4806 65.115C88.1991 65.621 86.8406 65.874 85.393 65.862C83.0497 65.4403 81.7861 64.0007 81.6081 61.5551C81.6081 59.495 82.937 58.2963 85.6007 57.9711C86.7516 57.8205 87.8372 57.8144 88.8695 57.959C88.7924 56.3326 88.5136 55.4833 88.0212 55.4171C87.1491 55.3869 86.0041 56.1821 84.5862 57.8024L81.5844 55.3869C83.5006 52.5077 85.9626 51.0921 88.9644 51.1584ZM85.8083 61.8201C85.9566 62.1394 86.3778 62.302 87.0719 62.3141C87.6474 62.296 88.3356 62.2056 89.1424 62.043L89.006 60.6576L87.7957 60.6696C86.4075 60.6877 85.7431 61.0672 85.8083 61.8201Z" fill="#583719"/>
<path d="M99.7498 51.1463L99.6133 54.8569C101.31 53.1823 102.686 52.3029 103.742 52.2185L105.748 56.0435C102.876 56.8085 100.871 58.2843 99.7379 60.4769L99.8922 65.8559H94.274L94.7902 52.2185L99.7498 51.1463Z" fill="#583719"/>
<path d="M114.777 45.3275C118.105 46.0443 119.826 46.5082 119.938 46.725C119.292 54.6219 119.214 60.8684 119.713 65.4584L114.89 66.2776L114.777 65.1211C113.685 65.6572 112.647 65.9282 111.674 65.9282H110.992C108.554 65.9282 106.952 64.7596 106.181 62.4285C106.02 61.79 105.908 60.9286 105.831 59.8444L105.748 58.5312C105.712 56.1098 106.264 54.4171 107.409 53.4413C108.554 52.4655 109.871 52.0197 111.366 52.1101C112.356 52.1462 113.276 52.5197 114.118 53.2245C114.089 52.0197 114.231 49.4296 114.534 45.448L114.777 45.3275ZM110.523 58.3023L110.535 59.0071C110.612 60.8262 111.336 61.7298 112.718 61.7298L114.219 61.6454L114.083 56.929C113.537 56.6097 112.772 56.5073 111.787 56.6157C110.927 56.8507 110.505 57.4109 110.523 58.3023Z" fill="#583719"/>
<path d="M126.316 53.375C125.539 55.7664 125.224 57.8084 125.372 59.501C125.568 60.6937 126.167 60.9407 127.164 60.2359L128.974 64.0609C128.03 65.0608 126.725 65.621 125.064 65.7415C122.181 65.8921 120.65 64.2356 120.478 60.772C120.217 58.3806 120.555 55.5496 121.493 52.2727L126.316 53.375ZM125.675 46.207C126.761 46.2371 127.384 46.6889 127.538 47.5623C127.639 49.9235 126.351 51.1282 123.67 51.1764C122.685 51.1102 122.139 50.5319 122.027 49.4416C121.866 47.5864 123.082 46.5081 125.675 46.207Z" fill="#583719"/>
<path d="M133.168 50.8753L133.292 51.9595C134.74 51.5258 136.009 51.3029 137.101 51.2969C138.798 51.3933 140.115 52.0438 141.052 53.2606C141.628 54.2665 141.9 55.5134 141.871 57.0013L141.55 65.8559H137.131L137.214 58.4891C137.243 57.1338 136.822 56.4109 135.962 56.3266C134.936 56.2423 134.253 56.682 133.933 57.6398C133.749 58.6457 133.666 61.3864 133.684 65.8559H129.009L128.914 56.682C128.914 55.2966 128.825 53.6823 128.647 51.839L133.168 50.8753Z" fill="#583719"/>
<path d="M155.717 51.1042C155.516 55.8688 155.391 59.5794 155.355 62.2478C155.32 64.9163 155.094 67.2112 154.685 69.1388C154.276 71.0663 152.609 72.0181 149.678 72C147.376 71.8795 145.496 70.9158 144.03 69.1207L146.047 66.4222C146.937 66.9763 147.999 67.2715 149.233 67.3137C150.236 67.2293 150.71 66.0909 150.663 63.8983C149.512 64.6813 148.047 65.0488 146.267 65.0126C144.457 65.0126 143.2 63.8922 142.482 61.6515C142.221 60.7479 142.12 59.3746 142.173 57.5313C142.227 55.5917 142.773 54.0738 143.799 52.9715C144.784 52.2065 146.154 51.827 147.916 51.827C148.824 51.827 149.85 52.1221 150.989 52.7185L151.114 51.6463L155.717 51.1042ZM147.086 57.6699C146.949 59.3926 147.566 60.3805 148.948 60.6335C149.803 60.6335 150.414 60.4528 150.781 60.0974V56.17C150.123 56.0194 149.548 55.9532 149.055 55.9712C147.863 55.9532 147.204 56.5194 147.086 57.6699Z" fill="#583719"/>
</g>
<defs>
<clipPath id="clip0">
<rect width="160.831" height="72" fill="white"/>
</clipPath>
</defs>
</svg>
