<svg width="147" height="32" viewBox="0 0 147 32" fill="none" xmlns="http://www.w3.org/2000/svg">
<g clip-path="url(#clip0)">
<path d="M24.6328 31.7023C24.978 31.6915 25.0698 31.7077 25.6632 31.659C28.3498 31.4372 39.9433 31.5184 40.6176 23.0139C41.3729 13.5194 39.3283 -6.57869 30.1786 2.35318C21.029 11.285 22.2105 18.3234 15.9687 12.0695C9.72689 5.81556 1.33256 -3.56534 0.469386 8.49891C-0.393785 20.5632 -0.819975 29.1596 6.17171 30.7177C12.8883 32.2217 19.8044 31.8538 24.6328 31.7023Z" fill="#FF842E"/>
<path d="M71.9616 31.6591C71.9616 31.6591 82.9401 31.2479 80.302 23.9607C77.664 16.6735 74.4378 16.7276 72.9273 13.7088C71.4167 10.69 75.2579 9.65674 77.1784 9.39165C79.6924 9.04 82.8808 6.25928 80.2481 2.64541C77.61 -0.968447 68.3956 -0.248921 64.8243 2.66705C61.8085 5.12859 57.9674 9.49985 63.0278 15.11C68.0881 20.7201 69.248 22.2566 66.9013 23.9607C64.889 25.4214 62.3804 28.3861 64.9645 30.1659C67.5486 31.9458 70.9636 31.7457 71.9616 31.6591Z" fill="#8BBC49"/>
<path d="M90.6761 22.2838C90.6761 22.2838 100.376 22.7815 102.572 16.3707C104.519 10.6902 103.3 4.37679 97.7164 2.23985C92.1327 0.102906 87.9248 -1.21713 84.0891 1.83951C81.7909 3.66808 81.1381 4.39843 79.7678 14.818C78.3166 25.8165 80.0645 30.0093 82.3196 31.0534C84.5746 32.0975 89.4407 31.4754 90.4388 29.9227C91.4368 28.3754 90.6761 22.2838 90.6761 22.2838Z" fill="#00A69A"/>
<path d="M109.321 23.2577C109.078 22.7708 109.461 22.1919 109.957 22.3218C112.471 22.9656 118.654 24.0692 119.652 19.7412C120.914 14.2825 116.701 9.96538 112.833 9.84636C108.965 9.72734 105.21 9.31077 102.183 14.5801C99.4859 19.2868 99.5722 26.033 102.944 28.9706C106.31 31.9028 114.144 33.2553 117.008 29.6631C117.035 29.6252 117.068 29.5928 117.095 29.5549C118.616 27.5965 117.008 24.594 114.694 25.0863C112.746 25.4974 110.41 25.4325 109.321 23.2577Z" fill="#FF842E"/>
<path d="M130.436 31.5833C131.008 31.5725 131.574 31.5617 132.141 31.5887C133.845 31.6537 137.746 31.2371 137.217 25.9624C136.548 19.2324 134.725 14.0009 137.266 13.6817C139.807 13.3625 145.946 14.8557 146.043 10.3708C146.14 5.88594 147.192 -0.200278 143.551 0.0107107C139.909 0.2217 126.67 2.57504 120.056 1.82846C113.442 1.08189 113.631 5.24757 114.494 9.30505C115.357 13.3625 117.278 16.4624 121.4 14.6447C125.521 12.8269 127.059 16.1378 126.676 20.7309C126.303 25.0859 124.901 31.6699 130.436 31.5833Z" fill="#FEB00A"/>
<path d="M50.8893 31.9946C49.1683 31.9622 45.7588 32.0595 40.4827 30.3283C35.2119 28.6026 41.13 20.942 46.8324 13.7089C49.5891 10.214 52.772 11.1554 55.8363 13.8658V11.7397C55.8363 11.1175 56.1708 10.5278 56.7318 10.2627C57.5303 9.88404 58.3071 10.0842 58.7981 10.5765C59.111 10.8903 59.3052 11.3231 59.3052 11.8046V17.6474C61.2797 20.163 63.1031 23.0195 64.5921 25.3674C69.1129 32.4869 50.8893 31.9946 50.8893 31.9946Z" fill="#FEB00A"/>
</g>
<defs>
<clipPath id="clip0">
<rect width="146.254" height="32" fill="white"/>
</clipPath>
</defs>
</svg>
