<svg width="24" height="30" viewBox="0 0 24 30" fill="none" xmlns="http://www.w3.org/2000/svg">
<path d="M12 0C8.8174 0 5.76515 1.26427 3.51472 3.51471C1.26428 5.76515 0 8.8174 0 12C0 17.7046 6.18462 24.5538 11.3815 29.2985L12.0185 29.88L12.6369 29.28C18.3877 23.7415 24 17.8615 24 12C24 8.8174 22.7357 5.76515 20.4853 3.51471C18.2348 1.26427 15.1826 0 12 0V0ZM12 27.3415C5.45538 21.2308 1.84615 15.8031 1.84615 12C1.84615 9.30703 2.91593 6.72435 4.82015 4.82014C6.72436 2.91592 9.30703 1.84615 12 1.84615C14.693 1.84615 17.2756 2.91592 19.1799 4.82014C21.0841 6.72435 22.1538 9.30703 22.1538 12C22.1538 16.9385 17.2246 22.2369 12 27.3415Z" fill="#41180B"/>
<path d="M12.0002 7.38281C11.0873 7.38281 10.195 7.6535 9.43598 8.16064C8.67698 8.66779 8.08542 9.38861 7.73609 10.232C7.38676 11.0753 7.29537 12.0033 7.47345 12.8986C7.65154 13.7939 8.0911 14.6163 8.73658 15.2618C9.38205 15.9072 10.2044 16.3468 11.0997 16.5249C11.995 16.703 12.923 16.6116 13.7664 16.2623C14.6097 15.9129 15.3306 15.3214 15.8377 14.5624C16.3448 13.8034 16.6155 12.911 16.6155 11.9982C16.6155 10.7741 16.1293 9.60018 15.2637 8.73462C14.3982 7.86907 13.2242 7.38281 12.0002 7.38281ZM12.0002 14.7674C11.4524 14.7674 10.917 14.605 10.4616 14.3007C10.0063 13.9964 9.65131 13.5639 9.44172 13.0579C9.23212 12.5519 9.17728 11.9951 9.28413 11.4579C9.39098 10.9208 9.65472 10.4273 10.042 10.0401C10.4293 9.65277 10.9227 9.38903 11.4599 9.28218C11.9971 9.17533 12.5539 9.23017 13.0599 9.43976C13.5659 9.64936 13.9984 10.0043 14.3027 10.4597C14.607 10.9151 14.7694 11.4505 14.7694 11.9982C14.7694 12.7326 14.4776 13.437 13.9583 13.9563C13.439 14.4757 12.7346 14.7674 12.0002 14.7674V14.7674Z" fill="#41180B"/>
</svg>
