<svg width="1154" height="175" viewBox="0 0 1154 175" fill="none" xmlns="http://www.w3.org/2000/svg">
<path d="M151.053 98.816C152.347 106.459 147.13 115.108 136.959 122.941C126.854 130.723 112.142 137.456 95.2173 141.237C78.2928 145.018 62.4562 145.11 50.5479 142.245C38.5626 139.362 30.9031 133.59 29.6088 125.947C28.3145 118.304 33.5319 109.655 43.7025 101.823C53.8078 94.0401 68.52 87.3078 85.4445 83.5267C102.369 79.7457 118.206 79.6533 130.114 82.5179C142.099 85.4009 149.759 91.1729 151.053 98.816Z" stroke="#4F8A00" stroke-width="2" stroke-linecap="round"/>
<path d="M34.3676 134.468C30.2978 127.385 35.4293 110.548 86.3903 99.8636C150.091 86.5076 150.091 104.113 150.622 105.934" stroke="#4F8A00" stroke-width="2" stroke-linecap="round"/>
<path d="M38.114 120.247C44.1805 125.669 62.4125 134.061 88.9622 126.83C122.149 117.792 126.432 105.155 132.32 95.5146" stroke="#4F8A00" stroke-width="2" stroke-linecap="round" stroke-dasharray="8 8"/>
<path d="M156.544 88.7133C161.03 91.3926 168.387 100.337 161.927 114.682" stroke="#4F8A00" stroke-width="2" stroke-linecap="round" stroke-linejoin="round"/>
<path d="M175.385 93.6598C178.256 95.5147 182.921 101.327 178.615 109.736" stroke="#4F8A00" stroke-width="2" stroke-linecap="round" stroke-linejoin="round"/>
<path d="M20.8878 104.789C15.8635 108.087 7.32218 118.392 13.3513 133.231M1.50834 119.628C0.252268 126.636 0.539371 141.516 11.7364 144.979" stroke="#4F8A00" stroke-width="2" stroke-linecap="round" stroke-linejoin="round"/>
<path d="M118.892 173.25C314.839 -1.23195 765.95 -105.732 1153 173.25" stroke="#4F8A00" stroke-width="2" stroke-linecap="round" stroke-linejoin="round" stroke-dasharray="10 10"/>
</svg>
