<svg width="1213" height="110" viewBox="0 0 1213 110" fill="none" xmlns="http://www.w3.org/2000/svg">
<path d="M434.381 65.3217C434.381 65.8563 434.54 66.3788 434.837 66.8233C435.134 67.2678 435.556 67.6143 436.05 67.8189C436.544 68.0235 437.087 68.077 437.612 67.9727C438.136 67.8684 438.618 67.611 438.996 67.2329C439.374 66.8549 439.631 66.3733 439.735 65.849C439.84 65.3247 439.786 64.7812 439.581 64.2873C439.377 63.7934 439.03 63.3712 438.586 63.0742C438.141 62.7772 437.619 62.6187 437.084 62.6187C436.367 62.6187 435.68 62.9035 435.173 63.4104C434.666 63.9173 434.381 64.6048 434.381 65.3217ZM412.758 68.0246C412.223 68.0246 411.7 67.8661 411.256 67.5691C410.811 67.2721 410.465 66.8499 410.26 66.356C410.056 65.8621 410.002 65.3187 410.106 64.7943C410.211 64.27 410.468 63.7884 410.846 63.4104C411.224 63.0323 411.706 62.7749 412.23 62.6706C412.755 62.5663 413.298 62.6199 413.792 62.8244C414.286 63.029 414.708 63.3755 415.005 63.82C415.302 64.2645 415.46 64.7871 415.46 65.3217C415.46 66.0385 415.176 66.726 414.669 67.2329C414.162 67.7399 413.474 68.0246 412.758 68.0246ZM390.095 65.4284C390.63 65.6733 391.211 65.8008 391.799 65.8024C392.409 65.8005 393.012 65.6587 393.559 65.388C394.106 65.1172 394.585 64.7247 394.957 64.2405L396.54 62.2261V80.188C396.543 83.4128 397.826 86.5045 400.106 88.7848C402.386 91.0651 405.478 92.3478 408.703 92.3514H441.139C444.364 92.3478 447.455 91.0651 449.736 88.7848C452.016 86.5045 453.298 83.4128 453.302 80.188V62.2261L454.885 64.2405C455.257 64.7247 455.735 65.1172 456.283 65.3879C456.83 65.6587 457.432 65.8005 458.043 65.8024C458.631 65.8008 459.212 65.6733 459.747 65.4284C460.58 65.0622 461.263 64.4226 461.684 63.6152C462.104 62.8079 462.236 61.8814 462.058 60.9888L456.511 31.4024C456.409 30.8591 456.197 30.3423 455.888 29.8839C455.579 29.4255 455.18 29.0351 454.714 28.7367C454.249 28.4383 453.727 28.2382 453.182 28.1487C452.636 28.0592 452.078 28.0822 451.542 28.2163L432.864 32.886H416.978L398.299 28.2166C397.763 28.0826 397.205 28.0596 396.66 28.1491C396.114 28.2386 395.593 28.4386 395.128 28.7369C394.662 29.0353 394.263 29.4256 393.954 29.8839C393.645 30.3422 393.433 30.8588 393.331 31.4021L387.784 60.9885C387.606 61.881 387.738 62.8076 388.158 63.6149C388.578 64.4222 389.262 65.0622 390.095 65.4284ZM435.381 35.0426L452.198 30.8385C452.306 30.8112 452.417 30.7974 452.529 30.7973C452.844 30.7986 453.148 30.9094 453.39 31.1108C453.632 31.3122 453.796 31.5916 453.854 31.9008L459.401 61.4865C459.457 61.7837 459.411 62.0911 459.272 62.3593C459.132 62.6276 458.907 62.8413 458.631 62.9662C458.356 63.0911 458.046 63.12 457.753 63.0483C457.459 62.9766 457.197 62.8084 457.011 62.5707L435.381 35.0426ZM399.243 58.7859L417.469 35.589H432.373L450.599 58.7859V80.188C450.596 82.6962 449.599 85.1009 447.825 86.8744C446.052 88.648 443.647 89.6456 441.139 89.6484H426.272V83.4508L431.282 78.4409C431.536 78.1874 431.678 77.8437 431.678 77.4853C431.678 77.1268 431.536 76.783 431.283 76.5295C431.029 76.276 430.685 76.1336 430.327 76.1335C429.969 76.1334 429.625 76.2758 429.371 76.5292L424.921 80.9796L420.47 76.5292C420.217 76.2758 419.873 76.1334 419.515 76.1335C419.156 76.1336 418.813 76.276 418.559 76.5295C418.306 76.783 418.163 77.1268 418.163 77.4853C418.163 77.8437 418.306 78.1874 418.559 78.4409L423.569 83.4508V89.6484H408.703C406.195 89.6456 403.79 88.648 402.017 86.8744C400.243 85.1009 399.245 82.6962 399.243 80.188V58.7859ZM390.44 61.4865L395.988 31.9004C396.022 31.7193 396.092 31.5471 396.195 31.3943C396.298 31.2415 396.431 31.1113 396.586 31.0119C396.742 30.9124 396.915 30.8457 397.097 30.8159C397.279 30.7861 397.465 30.7938 397.644 30.8385L414.46 35.0426L392.831 62.5707C392.644 62.8085 392.383 62.9767 392.089 63.0484C391.795 63.1201 391.486 63.0912 391.21 62.9662C390.935 62.8413 390.709 62.6275 390.57 62.3592C390.43 62.0908 390.385 61.7838 390.44 61.4865Z" fill="#4F8A00" fill-opacity="0.15"/>
<path d="M506.632 44.599C497.922 59.682 503.09 78.9686 518.173 87.6754C533.256 96.3852 552.543 91.2167 561.25 76.1337C569.96 61.0507 564.791 41.7609 549.708 33.0573C534.625 24.3475 515.338 29.516 506.632 44.599Z" stroke="#4F8A00" stroke-opacity="0.15" stroke-width="3" stroke-linecap="round" stroke-linejoin="round"/>
<path d="M504.109 70.5899C519.832 60.174 528.018 45.9928 527.88 29.4182" stroke="#4F8A00" stroke-opacity="0.15" stroke-width="3" stroke-linecap="round" stroke-linejoin="round"/>
<path d="M540.002 91.3145C541.162 72.4883 549.349 58.3071 563.772 50.1428" stroke="#4F8A00" stroke-opacity="0.15" stroke-width="3" stroke-linecap="round" stroke-linejoin="round"/>
<path d="M314.807 69.1196L290.197 44.5141C291.221 43.4897 291.978 42.2284 292.399 40.8419C292.819 39.4554 292.892 37.9865 292.609 36.5653C292.327 35.1441 291.698 33.8145 290.779 32.6943C289.86 31.574 288.679 30.6977 287.341 30.1429C286.002 29.5881 284.548 29.372 283.106 29.5137C281.663 29.6553 280.279 30.1505 279.074 30.9552C277.869 31.7599 276.881 32.8493 276.197 34.127C275.514 35.4047 275.156 36.8312 275.156 38.2802C273.707 38.2791 272.279 38.6356 271.001 39.3181C269.722 40.0005 268.632 40.9878 267.826 42.1925C267.02 43.3972 266.524 44.7821 266.381 46.2244C266.238 47.6667 266.454 49.1219 267.008 50.4611C267.562 51.8002 268.438 52.982 269.559 53.9017C270.679 54.8213 272.009 55.4504 273.43 55.7333C274.851 56.0161 276.321 55.9439 277.708 55.5232C279.095 55.1024 280.356 54.346 281.381 53.321L297.184 69.1196" stroke="#4F8A00" stroke-opacity="0.15" stroke-width="2.7" stroke-linecap="round" stroke-linejoin="round"/>
<path d="M305.871 60.3083L321.669 44.5141C320.644 43.4897 319.888 42.2284 319.467 40.8419C319.046 39.4554 318.974 37.9865 319.256 36.5653C319.539 35.1441 320.167 33.8145 321.086 32.6943C322.005 31.574 323.186 30.6977 324.525 30.1429C325.864 29.5881 327.318 29.372 328.76 29.5137C330.202 29.6553 331.587 30.1505 332.792 30.9552C333.997 31.7599 334.985 32.8493 335.668 34.127C336.352 35.4047 336.71 36.8312 336.71 38.2802C338.159 38.2791 339.586 38.6356 340.865 39.3181C342.144 40.0005 343.234 40.9878 344.04 42.1925C344.846 43.3972 345.342 44.7821 345.485 46.2244C345.627 47.6667 345.412 49.1219 344.858 50.4611C344.303 51.8002 343.427 52.982 342.307 53.9017C341.187 54.8213 339.857 55.4504 338.436 55.7333C337.014 56.0161 335.545 55.9439 334.158 55.5232C332.771 55.1024 331.509 54.346 330.485 53.321L314.682 69.1196" stroke="#4F8A00" stroke-opacity="0.15" stroke-width="2.7" stroke-linecap="round" stroke-linejoin="round"/>
<path d="M345.521 91.1478H266.22C266.991 83.786 266.423 76.4109 275.031 69.1196H336.71C342.583 73.5253 345.521 80.8694 345.521 91.1478Z" stroke="#4F8A00" stroke-opacity="0.15" stroke-width="2.7" stroke-linecap="round" stroke-linejoin="round"/>
<path d="M1212 96C1180.96 60.4055 1098.63 10.5732 1017.68 96C982.944 49.9193 885.281 18.0167 810.775 96C779.563 45.488 691.062 19.7893 623 96" stroke="#4F8A00" stroke-opacity="0.15" stroke-width="2" stroke-dasharray="10 10"/>
<path d="M177 91C145.243 49.4017 68.1172 19.8105 -8.00001 91" stroke="#4F8A00" stroke-opacity="0.15" stroke-width="2" stroke-dasharray="10 10"/>
</svg>
