<svg width="32" height="32" viewBox="0 0 32 32" fill="none" xmlns="http://www.w3.org/2000/svg">
<path fill-rule="evenodd" clip-rule="evenodd" d="M13.606 16.9793L8.35877 15.2302C6.00556 14.4458 4.82895 14.0536 4.82895 13.3329C4.82895 12.6121 6.00556 12.2199 8.35877 11.4355L22.8719 6.59777C24.5277 6.04584 25.3556 5.76988 25.7926 6.20689C26.2297 6.64391 25.9537 7.4718 25.4018 9.12759L20.564 23.6408C19.7796 25.994 19.3874 27.1706 18.6667 27.1706C17.9459 27.1706 17.5537 25.994 16.7693 23.6408L15.0202 18.3935L20.7071 12.7066C21.0976 12.3161 21.0976 11.6829 20.7071 11.2924C20.3166 10.9019 19.6834 10.9019 19.2929 11.2924L13.606 16.9793Z" fill="#FF6F0C"/>
</svg>
