<svg width="73" height="52" viewBox="0 0 73 52" fill="none" xmlns="http://www.w3.org/2000/svg">
<path d="M71.3632 37.8182H68.7105C68.3316 22.7697 57.3421 10.4 43.2453 8.50909C44.0032 7.64242 44.5337 6.38182 44.5337 5.12121C44.5337 2.28485 42.3358 0 39.6074 0C36.8789 0 34.6053 2.28485 34.6053 5.12121C34.6053 6.46061 35.06 7.64242 35.8937 8.50909C21.7211 10.4 10.7316 22.7697 10.3526 37.8182H6.94211C6.33579 37.8182 5.80526 38.3697 5.80526 39C5.80526 39.6303 6.33579 40.1818 6.94211 40.1818H17.4011C17.2495 40.3394 17.0979 40.497 16.8705 40.6545C14.2179 43.4121 13.3842 47.1152 14.8242 49.6364H1.63684C1.03053 49.6364 0.5 50.1879 0.5 50.8182C0.5 51.4485 1.03053 52 1.63684 52H18.3105C18.3863 52 18.3863 52 18.4621 52C18.6895 52 18.8411 52 19.0684 52C21.0389 52 23.2368 50.9758 25.0558 49.1636C27.7084 46.4061 28.5421 42.703 27.1021 40.1818H56.0537C55.9021 40.3394 55.7505 40.497 55.5232 40.6545C52.8705 43.4121 52.0368 47.1939 53.4768 49.6364H44.8368C44.2305 49.6364 43.7 50.1879 43.7 50.8182C43.7 51.4485 44.2305 52 44.8368 52H56.9632C57.0389 52 57.0389 52 57.1147 52C57.3421 52 57.4937 52 57.7211 52C59.6916 52 61.8895 50.9758 63.7084 49.1636C66.3611 46.4061 67.1947 42.6242 65.7547 40.1818H71.3632C71.9695 40.1818 72.5 39.6303 72.5 39C72.5 38.3697 71.9695 37.8182 71.3632 37.8182ZM39.5316 2.36364C40.9716 2.36364 42.1842 3.62424 42.1842 5.12121C42.1842 6.61818 40.9716 7.87879 39.5316 7.87879C38.0916 7.87879 36.8789 6.61818 36.8789 5.12121C36.8789 3.62424 38.0916 2.36364 39.5316 2.36364ZM24.8284 40.8909C26.1926 42.3091 25.5105 45.303 23.4642 47.4303C21.4179 49.5576 18.4621 50.2667 17.1737 48.8485C15.8095 47.4303 16.4916 44.4364 18.5379 42.3091C19.9021 40.8909 21.5695 40.1818 22.9337 40.1818C23.6158 40.1818 24.2979 40.4182 24.8284 40.8909ZM23.2368 37.8182C23.0095 37.8182 22.7063 37.8182 22.4789 37.8182H12.6263C13.0053 22.7697 24.9042 10.6364 39.5316 10.6364C54.0832 10.6364 65.9821 22.7697 66.4368 37.8182H61.8895C61.6621 37.8182 61.3589 37.8182 61.1316 37.8182H23.2368ZM63.4811 40.8909C64.8453 42.3091 64.1632 45.303 62.1168 47.4303C60.0705 49.5576 57.1147 50.2667 55.8263 48.8485C54.4621 47.4303 55.1442 44.4364 57.1905 42.3091C58.5547 40.8909 60.2221 40.1818 61.5863 40.1818C62.2684 40.1818 62.9505 40.4182 63.4811 40.8909Z" fill="#FF6F0C"/>
<path d="M33.3926 16.2303C27.1021 18.1212 21.8726 22.7697 19.1442 28.994C18.9168 29.6243 19.1442 30.2546 19.6747 30.5697C19.8263 30.6485 19.9779 30.6485 20.1295 30.6485C20.5842 30.6485 20.9631 30.4121 21.1905 29.9394C23.6158 24.3455 28.3147 20.1697 33.9989 18.5152C34.6053 18.3576 34.9842 17.6485 34.7568 17.0182C34.681 16.4667 33.9989 16.0727 33.3926 16.2303Z" fill="#FF6F0C"/>
</svg>
