<svg width="65" height="64" viewBox="0 0 65 64" fill="none" xmlns="http://www.w3.org/2000/svg">
<g clip-path="url(#clip0)">
<path d="M60.4474 46.9083C60.8111 44.2196 60.9955 41.4737 60.9955 38.7472C60.9955 36.0206 60.811 33.2747 60.4474 30.5861C60.1128 28.1117 60.9656 25.582 62.7286 23.819C65.0869 21.4609 65.0867 17.624 62.7286 15.2658C60.3705 12.9077 56.5336 12.9075 54.1741 15.267C53.0203 16.4212 51.345 16.8178 49.802 16.302C46.0548 15.0497 42.1562 14.2063 38.2145 13.7954C37.5275 13.7244 36.9133 14.2225 36.8417 14.909C36.7702 15.5957 37.2688 16.2102 37.9553 16.2818C41.716 16.6738 45.4352 17.4782 49.0097 18.6729C51.4574 19.4909 54.1134 18.863 55.9429 17.0334C57.3265 15.65 59.5775 15.65 60.9609 17.0334C62.3442 18.4168 62.3442 20.6679 60.9609 22.0513C58.6495 24.3626 57.5314 27.6785 57.97 30.9211C58.3188 33.4992 58.4956 36.1323 58.4956 38.7473C58.4956 41.3622 58.3188 43.9953 57.97 46.5736C57.5314 49.8163 58.6496 53.132 60.9609 55.4433C62.3442 56.8268 62.3442 59.0779 60.9609 60.4611C59.5776 61.8445 57.3264 61.8446 55.9416 60.4599C54.115 58.6333 51.4618 58.0061 49.0169 58.8236C43.7059 60.5995 38.148 61.5 32.4974 61.5C26.8479 61.5 21.291 60.5998 15.9811 58.8246C13.5363 58.0073 10.8833 58.6345 9.05672 60.4611C8.38647 61.1314 7.49547 61.5002 6.5476 61.5002C5.59973 61.5002 4.70886 61.1311 4.03861 60.461C3.36836 59.7909 2.99949 58.8999 2.99949 57.952C2.99949 57.0041 3.36861 56.1133 4.03874 55.443C6.34798 53.1338 7.4646 49.8215 7.02597 46.5828C6.67635 44.0012 6.4991 41.3648 6.4991 38.747C6.4991 36.1291 6.67635 33.4927 7.02597 30.9112C7.4646 27.6724 6.34773 24.3601 4.03874 22.051C2.65537 20.6675 2.65537 18.4164 4.03874 17.033C5.42211 15.6497 7.67335 15.6497 9.05659 17.033C10.8851 18.8614 13.5412 19.4894 15.9883 18.6714C19.4847 17.5032 23.1215 16.7077 26.7978 16.307C27.484 16.2323 27.9796 15.6153 27.9049 14.9292C27.83 14.2428 27.213 13.7465 26.527 13.822C22.6737 14.2418 18.8613 15.0757 15.1959 16.3005C13.6536 16.816 11.9782 16.4195 10.8241 15.2654C8.46597 12.9072 4.62898 12.9074 2.27087 15.2654C-0.0869966 17.6237 -0.0868714 21.4606 2.27124 23.8188C4.03199 25.5795 4.88348 28.1055 4.54898 30.5759C4.18436 33.2682 3.99949 36.0175 3.99949 38.7471C3.99949 41.4767 4.18436 44.2259 4.54898 46.9183C4.88361 49.3887 4.03199 51.9147 2.27124 53.6754C-0.0869964 56.0336 -0.0869964 59.8706 2.27124 62.2286C4.62936 64.5869 8.46634 64.5867 10.8243 62.2286C11.9765 61.0766 13.6488 60.6809 15.1886 61.1954C20.7545 63.0562 26.5781 63.9997 32.4974 63.9997C38.418 63.9997 44.2426 63.0559 49.8095 61.1944C51.3494 60.6795 53.0217 61.0752 54.1752 62.2287C56.5334 64.5869 60.3704 64.5869 62.7284 62.2287C65.0866 59.8705 65.0865 56.0338 62.7284 53.6755C60.9656 51.9124 60.1128 49.3825 60.4474 46.9083Z" fill="#FF6F0C"/>
<path d="M54.1945 9.04096H48.171L55.0784 2.13374C55.4359 1.77624 55.5427 1.23862 55.3492 0.771622C55.1559 0.304499 54.7 0 54.1945 0H45.1535C44.4632 0 43.9037 0.559623 43.9037 1.24987C43.9037 1.94024 44.4633 2.49974 45.1534 2.49974H51.1769L44.2697 9.40696C43.9122 9.76446 43.8053 10.3021 43.9988 10.7691C44.1923 11.2362 44.648 11.5407 45.1535 11.5407H54.1945C54.8849 11.5407 55.4444 10.9811 55.4444 10.2908C55.4444 9.60059 54.8849 9.04096 54.1945 9.04096Z" fill="#FF6F0C"/>
<path d="M43.399 26.3508H39.9121L44.2829 21.9801C44.6404 21.6226 44.7472 21.0849 44.5537 20.6179C44.3602 20.1508 43.9045 19.8463 43.399 19.8463H36.8946C36.2042 19.8463 35.6448 20.4059 35.6448 21.0962C35.6448 21.7866 36.2044 22.3461 36.8946 22.3461H40.3815L36.0108 26.7168C35.6533 27.0743 35.5464 27.6119 35.7399 28.0789C35.9334 28.546 36.3891 28.8505 36.8946 28.8505H43.399C44.0894 28.8505 44.6489 28.2909 44.6489 27.6007C44.6489 26.9104 44.0892 26.3508 43.399 26.3508Z" fill="#FF6F0C"/>
</g>
<defs>
<clipPath id="clip0">
<rect width="64" height="64" fill="white" transform="translate(0.5)"/>
</clipPath>
</defs>
</svg>
