<svg width="74" height="74" viewBox="0 0 74 74" fill="none" xmlns="http://www.w3.org/2000/svg">
<g clip-path="url(#clip0)">
<path d="M16.8411 32.144H58.8376C59.5531 32.144 60.1326 31.5638 60.1326 30.849C60.1326 30.1334 59.5531 29.554 58.8376 29.554H16.8411C16.1255 29.554 15.5461 30.1334 15.5461 30.849C15.5461 31.5638 16.1255 32.144 16.8411 32.144Z" fill="#FF6F0C"/>
<path d="M50.4786 38.975C49.7793 38.8167 49.0882 39.2592 48.932 39.957C47.1324 48.0267 38.7082 48.4669 38.3493 48.4817C37.6367 48.5091 37.0802 49.1093 37.1061 49.8234C37.1305 50.5219 37.7062 51.0717 38.3996 51.0717C38.4152 51.0717 38.4314 51.071 38.447 51.071C38.5543 51.0666 49.2192 50.5648 51.4591 40.5216C51.616 39.8223 51.1764 39.1304 50.4786 38.975Z" fill="#FF6F0C"/>
<path d="M61.4302 38.4053C61.1875 38.1596 60.8567 38.0212 60.5097 38.0212H57.7576C57.8257 37.3515 57.8605 36.6729 57.8605 35.9855L57.8531 35.648C57.8412 34.9421 57.2648 34.3752 56.5581 34.3752H19.12C18.4118 34.3752 17.8339 34.9443 17.825 35.6525L17.822 35.7627C17.8191 35.8367 17.8161 35.91 17.8161 35.9855C17.8161 36.6729 17.8509 37.3515 17.919 38.0212H15.2483C14.9027 38.0212 14.5705 38.1596 14.3277 38.406C14.0835 38.6517 13.9489 38.9847 13.9533 39.331L13.9651 40.4921C13.9711 41.204 14.549 41.776 15.2601 41.776C15.2631 41.776 15.2675 41.776 15.2705 41.776C15.938 41.7701 16.4848 41.2609 16.5485 40.6112H18.3622C19.6631 46.0843 23.2129 50.6908 27.9807 53.4006L19.8615 67.0455C19.4959 67.6597 19.6964 68.4544 20.3121 68.82C20.5186 68.9436 20.7472 69.0028 20.9729 69.0028C21.4155 69.0028 21.8447 68.7763 22.0874 68.3701L30.3184 54.5373C32.6427 55.483 35.1787 56.0084 37.8383 56.0084C40.5023 56.0084 43.0427 55.4808 45.37 54.5328L53.604 68.3701C53.8467 68.7771 54.2759 69.0028 54.7184 69.0028C54.9441 69.0028 55.172 68.9436 55.3792 68.82C55.9949 68.4544 56.1962 67.6597 55.8299 67.0455L47.7069 53.3955C52.4696 50.6856 56.0164 46.0806 57.3151 40.612H59.2102C59.2753 41.2617 59.82 41.7708 60.4882 41.7767C60.4911 41.7767 60.4956 41.7767 60.5 41.7767C61.2097 41.7767 61.7876 41.2047 61.7935 40.4928L61.8054 39.3303C61.8084 38.9847 61.6729 38.651 61.4302 38.4053ZM37.8383 53.4184C28.555 53.4184 20.9426 46.125 20.4335 36.9667H55.2423C54.734 46.1242 47.1216 53.4184 37.8383 53.4184Z" fill="#FF6F0C"/>
<path d="M36.1855 15.594L37.4243 16.1986C37.6774 16.3273 39.8781 17.5106 39.1455 19.5981C38.3663 21.8159 35.4078 21.6953 35.2879 21.6901C34.5612 21.6494 33.9611 22.1933 33.9189 22.9074C33.8767 23.6208 34.4221 24.2342 35.1362 24.2764C35.1606 24.2779 35.2517 24.2823 35.3982 24.2823C36.4549 24.2823 40.334 24.0329 41.5897 20.4565C42.7967 17.0177 40.1445 14.6497 38.5706 13.8764L37.3533 13.2822C37.1002 13.1475 34.895 11.911 35.6106 9.87231C36.4068 7.60569 39.3224 7.77071 39.4519 7.77959C40.1541 7.82695 40.7817 7.29859 40.8349 6.58745C40.8897 5.87409 40.3569 5.25175 39.6428 5.19699C37.9142 5.06157 34.3341 5.69205 33.1678 9.01391C31.986 12.3794 34.6093 14.7822 36.1855 15.594Z" fill="#FF6F0C"/>
<path d="M25.3852 17.7338L26.3072 18.1838C26.5744 18.3207 27.8856 19.0673 27.4402 20.3379C26.937 21.7691 24.9471 21.6951 24.8702 21.6906C24.162 21.6455 23.5433 22.1931 23.5012 22.9079C23.459 23.622 24.0044 24.2348 24.7185 24.2769C24.8139 24.2821 24.9138 24.2858 25.0174 24.2851C26.5492 24.2851 29.0223 23.6465 29.8836 21.1963C30.8619 18.4035 28.7263 16.4869 27.4542 15.8624L26.5448 15.4184C26.4796 15.3851 24.9375 14.5726 25.3985 13.2583C25.9098 11.8027 27.8486 11.8974 27.9508 11.9034C28.656 11.95 29.2805 11.4216 29.3353 10.7112C29.3886 9.99786 28.8558 9.37478 28.1432 9.32076C26.6528 9.2105 23.8941 9.72776 22.9543 12.3999C21.996 15.1342 24.1087 17.076 25.3852 17.7338Z" fill="#FF6F0C"/>
<path d="M47.384 17.8045C47.939 18.1153 48.4622 18.4083 48.8018 18.8131C49.2399 19.3326 49.3369 19.8572 49.0897 20.3708C48.7745 21.0279 47.8236 21.7176 46.5226 21.6887C45.8263 21.6695 45.2128 22.2371 45.1958 22.9526C45.1788 23.6675 45.7449 24.261 46.4605 24.278C46.5071 24.2795 46.5545 24.2802 46.6018 24.2802C48.6916 24.2802 50.6185 23.1717 51.4251 21.4919C52.1119 20.0615 51.8721 18.4364 50.7836 17.1444C50.1405 16.38 49.3494 15.936 48.6531 15.5445C47.7784 15.0539 47.273 14.746 47.0577 14.123C46.8253 13.4473 46.086 13.0892 45.4112 13.323C44.7348 13.5569 44.3766 14.2946 44.6105 14.971C45.1581 16.5539 46.3924 17.2472 47.384 17.8045Z" fill="#FF6F0C"/>
<path d="M47.5736 12.3025C47.7771 12.3025 47.9828 12.2551 48.1752 12.1537C48.6029 11.9295 48.9411 11.874 49.6841 11.9059C50.3878 11.9273 51.0035 11.3827 51.0339 10.6678C51.0657 9.953 50.5107 9.34916 49.7966 9.31808C48.8035 9.2759 47.9421 9.35138 46.9712 9.8605C46.3385 10.1928 46.0936 10.9764 46.4266 11.6091C46.6589 12.0501 47.1081 12.3025 47.5736 12.3025Z" fill="#FF6F0C"/>
</g>
<defs>
<clipPath id="clip0">
<rect width="74" height="74" fill="white"/>
</clipPath>
</defs>
</svg>
