<svg width="1155" height="175" viewBox="0 0 1155 175" fill="none" xmlns="http://www.w3.org/2000/svg">
<path d="M151.053 98.8157C152.347 106.459 147.13 115.108 136.959 122.94C126.854 130.723 112.142 137.455 95.2174 141.236C78.2929 145.017 62.4563 145.11 50.548 142.245C38.5627 139.362 30.9032 133.59 29.6089 125.947C28.3146 118.304 33.532 109.655 43.7026 101.822C53.8079 94.0399 68.5201 87.3075 85.4446 83.5265C102.369 79.7455 118.206 79.6531 130.114 82.5176C142.099 85.4007 149.759 91.1727 151.053 98.8157Z" stroke="#4F8A00" stroke-width="2" stroke-linecap="round"/>
<path d="M34.3676 134.468C30.2978 127.385 35.4293 110.548 86.3903 99.8637C150.091 86.5077 150.091 104.113 150.622 105.935" stroke="#4F8A00" stroke-width="2" stroke-linecap="round"/>
<path d="M38.1143 120.247C44.1807 125.669 62.4128 134.061 88.9625 126.83C122.15 117.792 126.432 105.155 132.32 95.5146" stroke="#4F8A00" stroke-width="2" stroke-linecap="round" stroke-dasharray="8 8"/>
<path d="M156.544 88.7129C161.03 91.3922 168.387 100.337 161.927 114.682" stroke="#4F8A00" stroke-width="2" stroke-linecap="round" stroke-linejoin="round"/>
<path d="M175.385 93.6592C178.256 95.5141 182.921 101.326 178.615 109.735" stroke="#4F8A00" stroke-width="2" stroke-linecap="round" stroke-linejoin="round"/>
<path d="M20.8878 104.789C15.8635 108.087 7.32218 118.392 13.3513 133.231M1.50834 119.628C0.252268 126.636 0.539371 141.516 11.7364 144.979" stroke="#4F8A00" stroke-width="2" stroke-linecap="round" stroke-linejoin="round"/>
<path d="M119 173.25C314.948 -1.23195 766.058 -105.732 1153.11 173.25" stroke="#4F8A00" stroke-width="2" stroke-linecap="round" stroke-linejoin="round" stroke-dasharray="10 10"/>
</svg>
