<svg width="24" height="24" viewBox="0 0 24 24" fill="none" xmlns="http://www.w3.org/2000/svg">
<path d="M12.707 10.8213C12.2356 10.7034 11.7641 10.4677 11.4106 10.1141C11.057 9.99629 10.9391 9.64272 10.9391 9.407C10.9391 9.17129 11.057 8.81772 11.2927 8.69986C11.6463 8.46415 11.9999 8.22843 12.3534 8.34629C12.6498 8.34629 12.9255 8.40839 13.1718 8.51525C13.6631 8.72842 14.3248 8.74284 14.6461 8.31439C14.886 7.99456 14.8565 7.54262 14.5368 7.30256C14.359 7.16905 14.1812 7.05053 14.0034 6.932C13.6499 6.69629 13.1784 6.57843 12.707 6.57843V5.63557C12.707 5.24503 12.3904 4.92843 11.9999 4.92843C11.6093 4.92843 11.2927 5.24503 11.2927 5.63558V6.57843C10.7034 6.69629 10.1141 7.04986 9.64272 7.52129C9.17129 8.11057 8.81772 8.81772 8.93558 9.52486C8.93558 10.232 9.17129 10.9391 9.64272 11.4106C10.232 11.9999 11.057 12.3534 11.7641 12.707C12.1177 12.8249 12.5891 13.0606 12.9427 13.2963C13.1784 13.532 13.2963 13.8856 13.2963 14.2391C13.2963 14.5927 13.1784 14.9463 12.9427 15.2999C12.5891 15.6534 12.1177 15.7713 11.7641 15.7713C11.2927 15.7713 10.7034 15.6534 10.3499 15.2999C10.2753 15.2501 10.2007 15.1952 10.1273 15.1361C9.70578 14.7971 9.05453 14.7447 8.69066 15.145C8.42239 15.4401 8.39552 15.8901 8.66947 16.1799C8.89033 16.4135 9.12803 16.6228 9.407 16.832C9.99629 17.1856 10.7034 17.5391 11.4106 17.5391V18.4231C11.4106 18.7811 11.7008 19.0713 12.0588 19.0713C12.4168 19.0713 12.707 18.7811 12.707 18.4231V17.3034C13.4141 17.1856 14.0034 16.832 14.4749 16.3606C15.0641 15.7713 15.4177 14.8284 15.4177 14.0034C15.4177 13.2963 15.182 12.4713 14.5927 11.9999C14.0034 11.4106 13.4141 11.057 12.707 10.8213ZM11.9999 2.57129C6.81415 2.57129 2.57129 6.81415 2.57129 11.9999C2.57129 17.1856 6.81415 21.4284 11.9999 21.4284C17.1856 21.4284 21.4284 17.1856 21.4284 11.9999C21.4284 6.81415 17.1856 2.57129 11.9999 2.57129ZM11.9999 19.5C7.52129 19.5 4.5 16.4784 4.5 11.9999C4.5 7.52129 7.52129 4.5 11.9999 4.5C16.4784 4.5 19.5 7.52129 19.5 11.9999C19.5 16.4784 16.4784 19.5 11.9999 19.5Z" fill="#583719"/>
</svg>
