<svg width="74" height="73" viewBox="0 0 74 73" fill="none" xmlns="http://www.w3.org/2000/svg">
<path d="M37 41.3135C35.5235 41.3352 34.1109 41.9199 33.051 42.9481C31.991 43.9762 31.3636 45.3703 31.2969 46.8455C31.2969 48.8758 32.7569 50.1875 35.0838 50.1875C35.7452 50.0966 36.3904 49.9122 37 49.64C37.6114 49.9073 38.2559 50.0914 38.9163 50.1875C41.1975 50.1875 42.7488 48.8758 42.7488 46.8455C42.6816 45.3625 42.0478 43.9619 40.9781 42.9325C39.9084 41.9032 38.4845 41.3236 37 41.3135ZM38.9277 47.9063C38.3107 47.6436 37.663 47.4596 37 47.3588C36.3391 47.4523 35.6943 47.6365 35.0838 47.9063C33.5781 47.9063 33.5781 47.1421 33.5781 46.8455C33.5781 45.9259 33.9435 45.0439 34.5937 44.3936C35.244 43.7433 36.126 43.378 37.0456 43.378C37.9653 43.378 38.8472 43.7433 39.4975 44.3936C40.1478 45.0439 40.5131 45.9259 40.5131 46.8455C40.4219 47.1421 40.4219 47.9063 38.9277 47.9063ZM34.0458 40.9029C37.3992 41.4275 35.6541 36.135 34.8214 35.9982C33.9888 35.8613 30.6923 40.3782 34.0458 40.9029ZM29.7913 39.6368C29.0841 39.728 27.51 44.1993 30.3273 43.8C33.1447 43.4008 30.5098 39.5455 29.7913 39.6368ZM39.9542 40.9029C43.3077 40.3782 40.0227 35.8727 39.1786 35.9982C38.3345 36.1236 36.6008 41.4275 39.9542 40.9029ZM44.2088 39.6368C43.4902 39.5455 40.7869 43.435 43.6727 43.8C46.5584 44.165 44.9159 39.728 44.2088 39.6368Z" fill="#FF6F0C"/>
<path d="M68.9375 52.4688H67.603L64.375 35.4393C64.1687 34.3163 63.6301 33.2811 62.8288 32.4677C62.0276 31.6543 61.0007 31.1001 59.8809 30.8768C60.2476 29.3377 60.0584 27.7184 59.3466 26.3054C58.6348 24.8923 57.4464 23.7763 55.9914 23.1548C55.9924 21.6771 55.4198 20.2568 54.3942 19.1929C53.3687 18.1291 51.9703 17.5048 50.4936 17.4516C50.1363 16.492 49.547 15.6356 48.7784 14.959C48.0097 14.2824 47.0855 13.8066 46.0883 13.5739C45.091 13.3413 44.0517 13.3591 43.063 13.6257C42.0743 13.8923 41.167 14.3995 40.4219 15.1019C38.9118 14.4318 37.2198 14.2912 35.6198 14.7027C34.9166 13.536 33.8775 12.6088 32.6386 12.0425C31.3996 11.4763 30.0185 11.2973 28.6761 11.529C27.3338 11.7608 26.0926 12.3924 25.1152 13.3413C24.1379 14.2902 23.4698 15.5122 23.1984 16.8471C22.1246 17.2197 21.1721 17.8771 20.4428 18.749C19.7136 19.6209 19.2349 20.6746 19.058 21.7974C18.1065 22.0173 17.2146 22.4422 16.4445 23.0425C15.6743 23.6429 15.0446 24.4042 14.5992 25.2732C14.1538 26.1422 13.9036 27.098 13.866 28.0737C13.8284 29.0495 14.0043 30.0217 14.3814 30.9224C13.2056 31.0884 12.111 31.6172 11.2501 32.4351C10.3893 33.253 9.80521 34.3192 9.57937 35.4849L6.39703 52.4688H5.0625C4.75999 52.4688 4.46986 52.589 4.25596 52.8029C4.04205 53.0168 3.92188 53.3069 3.92188 53.6094V58.1719C3.92188 58.4745 4.04205 58.7646 4.25596 58.9785C4.46986 59.1924 4.75999 59.3126 5.0625 59.3126H68.9375C69.24 59.3126 69.5301 59.1924 69.744 58.9785C69.9579 58.7646 70.0781 58.4745 70.0781 58.1719V53.6094C70.0781 53.3069 69.9579 53.0168 69.744 52.8029C69.5301 52.589 69.24 52.4688 68.9375 52.4688ZM20.267 23.9532C20.5514 23.9275 20.8158 23.7961 21.008 23.5849C21.2002 23.3737 21.3062 23.0981 21.305 22.8126V22.7441C21.3041 21.8344 21.6166 20.9521 22.19 20.2457C22.7634 19.5394 23.5626 19.0522 24.4531 18.866C24.6979 18.8167 24.9196 18.6885 25.0845 18.501C25.2493 18.3135 25.3481 18.0771 25.3656 17.828C25.4453 16.8217 25.8632 15.8719 26.5513 15.1332C27.2394 14.3946 28.1572 13.9105 29.1554 13.7598C30.1536 13.609 31.1734 13.8005 32.0489 14.3031C32.9244 14.8057 33.6041 15.5898 33.9773 16.5277C34.0335 16.6703 34.1178 16.8 34.2253 16.9093C34.3327 17.0185 34.4611 17.105 34.6026 17.1636C34.7442 17.2221 34.8962 17.2515 35.0494 17.2501C35.2026 17.2486 35.3539 17.2163 35.4944 17.1551C36.2269 16.8457 37.0223 16.7143 37.8154 16.7718C38.6085 16.8293 39.3767 17.074 40.0569 17.4859C40.2958 17.6362 40.582 17.6926 40.8601 17.6441C41.1382 17.5957 41.3885 17.4458 41.5625 17.2235C42.0311 16.63 42.6608 16.1842 43.3762 15.9392C44.0916 15.6943 44.8625 15.6606 45.5965 15.8423C46.3305 16.024 46.9966 16.4134 47.5152 16.9638C48.0337 17.5142 48.3827 18.2023 48.5203 18.9459C48.5759 19.2304 48.7377 19.483 48.9729 19.6525C49.208 19.822 49.4989 19.8956 49.7864 19.8584C50.3172 19.7836 50.8581 19.8345 51.3656 20.0071C51.8731 20.1797 52.333 20.4692 52.7081 20.8521C53.0832 21.235 53.3632 21.7006 53.5253 22.2116C53.6875 22.7225 53.7274 23.2644 53.6417 23.7935C53.5931 24.0783 53.6544 24.3709 53.8132 24.6123C53.972 24.8536 54.2164 25.0257 54.4972 25.0938C55.0833 25.2513 55.6312 25.5265 56.1076 25.9026C56.5839 26.2786 56.9787 26.7477 57.2679 27.2813C57.5571 27.8149 57.7347 28.4018 57.7898 29.0062C57.8448 29.6106 57.7763 30.2199 57.5883 30.7969H57.6795H16.9364C16.5212 30.1542 16.2787 29.4151 16.2326 28.6513C16.1865 27.8874 16.3382 27.1245 16.673 26.4365C17.0079 25.7484 17.5146 25.1583 18.1442 24.7233C18.7738 24.2883 19.505 24.023 20.267 23.9532ZM11.9062 35.8613C12.0568 35.0684 12.4828 34.3541 13.1089 33.8449C13.7351 33.3356 14.5211 33.064 15.3281 33.0782H58.7859C59.5832 33.0775 60.3557 33.3551 60.97 33.8633C61.5843 34.3714 62.002 35.0781 62.1508 35.8613L65.2761 52.4688H8.72391L11.9062 35.8613ZM67.7969 57.0313H6.20312V54.7501H67.7969V57.0313Z" fill="#FF6F0C"/>
</svg>
