<svg width="34" height="34" viewBox="0 0 34 34" fill="none" xmlns="http://www.w3.org/2000/svg">
<path d="M10.3158 20.358C10.4542 19.2124 10.924 18.5709 11.8095 17.9134C13.0764 17.0229 14.6589 17.5266 14.6589 17.5266V14.5382C15.0437 14.5283 15.4286 14.5512 15.8091 14.6063V18.4521C15.8091 18.4521 14.227 17.9484 12.9601 18.8394C12.0752 19.4965 11.6043 20.1384 11.4664 21.284C11.4621 21.9061 11.5789 22.7193 12.1165 23.4224C11.9836 23.3543 11.8481 23.2766 11.71 23.1894C10.5258 22.3942 10.31 21.2011 10.3158 20.358ZM22.3435 9.01259C21.472 8.05758 21.1424 7.09336 21.0233 6.41602H22.1196C22.1196 6.41602 21.901 8.19203 23.4941 9.93858L23.5162 9.96207C23.0869 9.69198 22.6931 9.37318 22.3435 9.01259ZM27.6249 11.7201V15.4886C27.6249 15.4886 26.2259 15.4338 25.1905 15.1704C23.7449 14.802 22.8158 14.237 22.8158 14.237C22.8158 14.237 22.1739 13.8341 22.122 13.806V21.5879C22.122 22.0212 22.0033 23.1033 21.6416 24.0058C21.1693 25.1865 20.4405 25.9614 20.3064 26.1198C20.3064 26.1198 19.42 27.1674 17.8562 27.8728C16.4466 28.5092 15.209 28.4931 14.8391 28.5092C14.8391 28.5092 12.6997 28.5939 10.7746 27.3428C10.3583 27.0671 9.96974 26.7548 9.61389 26.4099L9.6235 26.4168C11.5491 27.6679 13.688 27.5832 13.688 27.5832C14.0584 27.5671 15.296 27.5832 16.7051 26.9468C18.2675 26.2414 19.1553 25.1938 19.1553 25.1938C19.2879 25.0354 20.0201 24.2605 20.4904 23.0794C20.8513 22.1773 20.9709 21.0948 20.9709 20.6615V12.8805C21.0228 12.9091 21.6642 13.312 21.6642 13.312C21.6642 13.312 22.5938 13.8774 24.0394 14.2453C25.0752 14.5087 26.4738 14.5635 26.4738 14.5635V11.6105C26.9523 11.7178 27.3602 11.7468 27.6249 11.7201Z" fill="#FD355A"/>
<path d="M26.4743 11.6105V14.5626C26.4743 14.5626 25.0757 14.5078 24.0399 14.2444C22.5943 13.876 21.6646 13.311 21.6646 13.311C21.6646 13.311 21.0233 12.9081 20.9714 12.8796V20.6624C20.9714 21.0957 20.8527 22.1782 20.4909 23.0803C20.0187 24.2614 19.2899 25.0364 19.1558 25.1948C19.1558 25.1948 18.2689 26.2423 16.7056 26.9477C15.2965 27.5841 14.0589 27.568 13.6885 27.5841C13.6885 27.5841 11.5496 27.6688 9.62399 26.4177L9.61438 26.4108C9.41108 26.214 9.21971 26.0061 9.04122 25.7883C8.42675 25.0391 8.05009 24.1532 7.95544 23.9004C7.95528 23.8993 7.95528 23.8982 7.95544 23.8972C7.80314 23.4579 7.48317 22.4029 7.52689 21.3812C7.60424 19.5784 8.23842 18.4719 8.40609 18.1947C8.85015 17.4388 9.42772 16.7625 10.1131 16.1959C10.7179 15.7069 11.4034 15.3179 12.1415 15.0447C12.9394 14.724 13.7938 14.5521 14.6589 14.5382V17.5266C14.6589 17.5266 13.0764 17.0247 11.81 17.9134C10.9245 18.5709 10.4547 19.2124 10.3163 20.358C10.3105 21.2011 10.5262 22.3942 11.7096 23.1899C11.8476 23.2774 11.9831 23.355 12.116 23.4229C12.3227 23.6916 12.5743 23.9257 12.8607 24.1159C14.0166 24.8476 14.9852 24.8987 16.2237 24.4235C17.0496 24.1057 17.6713 23.3897 17.9595 22.5963C18.1407 22.1009 18.1383 21.6022 18.1383 21.0865V6.41602H21.0209C21.14 7.09336 21.4696 8.05758 22.3411 9.01258C22.6907 9.37318 23.0845 9.69198 23.5138 9.96207C23.6407 10.0933 24.2893 10.7421 25.1219 11.1404C25.5524 11.3463 26.0062 11.504 26.4743 11.6105Z" fill="black"/>
<path d="M6.80823 22.9829V22.9852L6.87976 23.1791C6.87154 23.1565 6.84496 23.0879 6.80823 22.9829Z" fill="#33F3ED"/>
<path d="M12.1416 15.0448C11.4035 15.318 10.7179 15.707 10.1132 16.196C9.42759 16.7639 8.85017 17.4417 8.40666 18.199C8.23899 18.4753 7.60481 19.5827 7.52746 21.3854C7.48374 22.4072 7.80371 23.4621 7.95601 23.9014C7.95585 23.9025 7.95585 23.9036 7.95601 23.9046C8.0521 24.1551 8.42732 25.0411 9.04179 25.7926C9.22029 26.0104 9.41165 26.2183 9.61495 26.4151C8.96357 25.9833 8.38265 25.4613 7.89115 24.8661C7.28196 24.1234 6.90626 23.2466 6.80825 22.9879C6.80814 22.986 6.80814 22.9842 6.80825 22.9823V22.9791C6.65548 22.5403 6.33455 21.4849 6.37923 20.4617C6.45658 18.659 7.09075 17.5525 7.25842 17.2753C7.7018 16.5179 8.27924 15.8401 8.96492 15.2723C9.56958 14.7832 10.2551 14.3941 10.9933 14.1211C11.4538 13.938 11.9334 13.8029 12.4241 13.7182C13.1634 13.5945 13.9186 13.5838 14.6614 13.6864V14.5383C13.7955 14.5519 12.9402 14.7238 12.1416 15.0448Z" fill="#33F3ED"/>
<path d="M21.0234 6.4162H18.1407V21.0871C18.1407 21.6028 18.1407 22.1001 17.962 22.597C17.6709 23.3899 17.0516 24.1059 16.2262 24.4237C14.9872 24.9007 14.0186 24.8477 12.8632 24.1161C12.5763 23.9268 12.3241 23.6934 12.1166 23.4254C13.101 23.9287 13.9821 23.9199 15.0737 23.5C15.8986 23.1822 16.5188 22.4662 16.809 21.6728C16.9906 21.1774 16.9882 20.6787 16.9882 20.1634V5.48975H20.9686C20.9686 5.48975 20.9239 5.85444 21.0234 6.4162ZM26.4744 10.7943V11.6107C26.0071 11.5041 25.5541 11.3463 25.1243 11.1406C24.2917 10.7423 23.6432 10.0935 23.5163 9.96225C23.6635 10.0549 23.8162 10.1391 23.9737 10.2146C24.986 10.699 25.9829 10.8436 26.4744 10.7943Z" fill="#33F3ED"/>
</svg>
