<svg width="34" height="34" viewBox="0 0 34 34" fill="none" xmlns="http://www.w3.org/2000/svg">
<path fill-rule="evenodd" clip-rule="evenodd" d="M28.01 11.4593C28.0196 11.7071 28.0228 11.9547 28.0228 12.2025C28.0228 19.7139 22.7388 28.3854 13.0763 28.3854C10.1082 28.3854 7.34823 27.4394 5.02283 25.829C5.43388 25.8741 5.85135 25.908 6.27522 25.908C8.73622 25.908 11.0029 24.9956 12.8009 23.464C10.5022 23.4302 8.56113 21.7748 7.89169 19.5225C8.21307 19.59 8.54402 19.6239 8.88248 19.6239C9.35973 19.6239 9.8231 19.5564 10.2673 19.4213C7.86177 18.9033 6.04994 16.606 6.04994 13.8469C6.04994 13.8131 6.04994 13.8018 6.04994 13.7792C6.75888 14.1959 7.5703 14.4548 8.43192 14.4886C7.02045 13.4638 6.09262 11.7183 6.09262 9.74753C6.09262 8.71146 6.351 7.73166 6.80583 6.88705C9.39602 10.3331 13.2685 12.5967 17.6343 12.8332C17.5446 12.4165 17.4987 11.9774 17.4987 11.5382C17.4987 8.39624 19.8507 5.85107 22.7527 5.85107C24.2635 5.85107 25.628 6.53813 26.5857 7.64176C27.7847 7.39401 28.9079 6.92105 29.9243 6.26788C29.5303 7.59675 28.6986 8.71141 27.6117 9.40962C28.6751 9.27449 29.6894 8.97065 30.6301 8.52019C29.9243 9.65761 29.036 10.6597 28.01 11.4593Z" fill="#1EA1F2"/>
</svg>
